<svg width="304" height="277" viewBox="0 0 304 277" fill="none" xmlns="http://www.w3.org/2000/svg">
<g clip-path="url(#clip0_520_1159)">
<path d="M276.805 76.6424L276.723 76.6789L276.744 76.6664C276.653 51.8869 258.51 21.3884 235.994 8.3252C224.213 1.48907 213.474 0.751271 205.894 5.13289L193.89 12.0709C201.47 7.6902 212.209 8.428 223.991 15.2632C246.037 28.0564 263.877 57.5577 264.7 82.0452L261.203 83.6063C276.741 95.6253 291.934 117.553 291.848 135.344C291.799 144.887 288.109 151.417 282.515 154.651L294.909 147.571C300.503 144.337 303.951 137.628 304 128.085C304.091 110.289 292.344 88.6575 276.806 76.6434L276.805 76.6424ZM162.194 23.6585L174.198 16.7196C179.996 13.3668 187.746 13.1833 196.482 16.6792L184.479 23.6181C175.741 20.1203 167.993 20.3115 162.194 23.6585Z" fill="#2F94D1"/>
<path d="M264.722 83.5429C264.63 58.7633 246.488 28.2649 223.972 15.2007C205.752 4.62853 190.024 8.64222 184.618 23.6248C165.837 16.1066 151.626 25.6048 151.518 46.9893C151.396 70.766 169 100.304 190.843 112.979C192.015 113.658 193.159 114.276 194.314 114.818L258.368 151.985C258.889 152.292 259.453 152.527 260.039 152.68C277.679 162.068 291.816 154.373 291.915 134.985C292.001 117.193 280.259 95.5618 264.721 83.5429H264.722Z" fill="url(#paint0_linear_520_1159)"/>
<path d="M83.2676 135.885L86.6247 134.015" stroke="#D2D2D2" stroke-width="2" stroke-linejoin="round"/>
<path d="M93.3633 130.261L148.571 99.5073C151.449 97.7675 153.208 94.6492 153.208 91.2868L152.081 60.2418" stroke="#D2D2D2" stroke-width="2" stroke-linejoin="round" stroke-dasharray="4 4"/>
<path d="M151.94 56.3876L151.801 52.5468" stroke="#D2D2D2" stroke-width="2" stroke-linejoin="round"/>
<path d="M201.476 204.469L204.833 202.599" stroke="#D2D2D2" stroke-width="2" stroke-linejoin="round" stroke-dasharray="4 4"/>
<path d="M211.626 198.815L266.779 168.092C269.657 166.352 271.416 163.233 271.416 159.871V127.897" stroke="#D2D2D2" stroke-width="2" stroke-linejoin="round" stroke-dasharray="4 4"/>
<path d="M271.416 124.009V120.167" stroke="#D2D2D2" stroke-width="2" stroke-linejoin="round" stroke-dasharray="4 4"/>
<path d="M122.786 253.123C123.078 252.953 123.32 252.711 123.488 252.419C123.656 252.127 123.745 251.797 123.745 251.46C123.745 251.122 123.656 250.792 123.488 250.5C123.32 250.208 123.078 249.966 122.786 249.797L44.4295 204.371L0.956981 229.612C0.66489 229.781 0.423724 230.024 0.255579 230.316C0.087435 230.608 0 230.94 0 231.277C0 231.614 0.0903175 231.945 0.258462 232.237C0.427567 232.529 0.670655 232.771 0.962746 232.939L75.4737 275.977C76.6421 276.647 77.9651 277 79.3112 277C80.6574 277 81.9814 276.647 83.1488 275.977L122.785 253.123H122.786ZM82.4301 274.727C81.4808 275.272 80.4056 275.559 79.3112 275.559C78.2169 275.559 77.1417 275.272 76.1924 274.727L1.68144 231.688C1.60842 231.646 1.54789 231.585 1.50657 231.512C1.4643 231.439 1.4422 231.357 1.4422 231.272C1.4422 231.188 1.4643 231.106 1.50657 231.033C1.54885 230.96 1.60938 230.899 1.68144 230.857L44.4295 206.037L122.065 251.046C122.138 251.088 122.199 251.148 122.241 251.221C122.283 251.294 122.305 251.377 122.305 251.462C122.305 251.546 122.283 251.629 122.241 251.702C122.199 251.775 122.138 251.835 122.065 251.877L82.4301 274.727V274.727Z" fill="#D2D2D2"/>
<path d="M244.311 231.909C244.603 231.74 244.845 231.498 245.013 231.206C245.182 230.914 245.27 230.583 245.27 230.246C245.27 229.909 245.182 229.578 245.013 229.286C244.845 228.994 244.603 228.752 244.311 228.583L165.955 183.158L122.482 208.398C122.19 208.568 121.949 208.811 121.781 209.103C121.613 209.395 121.524 209.726 121.525 210.063C121.525 210.4 121.616 210.732 121.784 211.023C121.953 211.315 122.196 211.557 122.488 211.725L196.999 254.763C198.167 255.434 199.491 255.786 200.837 255.786C202.183 255.786 203.507 255.434 204.674 254.763L244.31 231.909H244.311ZM203.955 253.514C203.006 254.058 201.931 254.345 200.837 254.345C199.742 254.345 198.667 254.058 197.718 253.514L123.207 210.474C123.134 210.432 123.073 210.372 123.032 210.299C122.99 210.226 122.968 210.143 122.968 210.058C122.968 209.975 122.99 209.892 123.032 209.819C123.074 209.746 123.135 209.686 123.207 209.643L165.955 184.824L243.59 229.832C243.663 229.874 243.724 229.935 243.766 230.008C243.809 230.081 243.831 230.163 243.831 230.248C243.831 230.332 243.809 230.415 243.766 230.488C243.724 230.561 243.663 230.622 243.59 230.664L203.955 253.514V253.514Z" fill="#D2D2D2"/>
<path d="M124.859 163.323C125.151 163.154 125.393 162.912 125.561 162.62C125.729 162.328 125.818 161.997 125.818 161.66C125.818 161.323 125.729 160.992 125.561 160.7C125.393 160.408 125.151 160.166 124.859 159.997L46.5027 114.571L3.03023 139.811C2.73814 139.98 2.49697 140.223 2.32883 140.515C2.16068 140.808 2.07229 141.139 2.07325 141.476C2.07325 141.813 2.16357 142.145 2.33171 142.436C2.50082 142.728 2.74391 142.97 3.036 143.138L77.547 186.176C78.7153 186.847 80.0384 187.199 81.3845 187.199C82.7306 187.199 84.0546 186.847 85.222 186.176L124.858 163.322L124.859 163.323ZM84.5033 184.927C83.554 185.472 82.4789 185.759 81.3845 185.759C80.2901 185.759 79.215 185.472 78.2657 184.927L3.75469 141.887C3.68167 141.845 3.62114 141.785 3.57982 141.712C3.53755 141.638 3.51545 141.556 3.51545 141.471C3.51545 141.388 3.53755 141.305 3.57982 141.232C3.6221 141.159 3.68263 141.099 3.75469 141.056L46.5027 116.236L124.138 161.245C124.211 161.287 124.272 161.348 124.314 161.421C124.356 161.494 124.379 161.576 124.379 161.661C124.379 161.745 124.356 161.828 124.314 161.901C124.272 161.974 124.211 162.035 124.138 162.077L84.5033 184.926V184.927Z" fill="#D2D2D2"/>
<path d="M45.2328 125.513L15.21 143.058L38.5042 155.516L68.5126 137.97L45.2328 125.513V125.513Z" fill="#DCDCDC"/>
<path d="M45.2328 107.755L15.21 125.13L38.5042 137.588L68.5126 120.198L45.2328 107.755V107.755Z" fill="#166BB3"/>
<path d="M38.505 137.603L38.334 151.371L68.5144 133.982V120.213L38.505 137.603Z" fill="#2E76BC"/>
<path d="M15.2247 125.13L15.0537 139.071L38.3479 151.371L38.519 137.602L15.2247 125.13V125.13Z" fill="#2F94D1"/>
<path d="M45.2328 91.8478L15.21 109.395L38.5042 121.695L68.5126 104.306L45.2328 91.8478Z" fill="#166BB3"/>
<path d="M38.505 121.695L38.334 135.635L68.5144 118.089V104.32L38.505 121.695Z" fill="#2F94D1"/>
<path d="M15.2247 109.395L15.0537 123.164L38.3479 135.621L38.519 121.682L15.2247 109.395V109.395Z" fill="#35AFE4"/>
<path d="M45.2328 75.941L15.21 93.4877L38.5042 105.946L68.5126 88.399L45.2328 75.941Z" fill="#166BB3"/>
<path d="M38.505 105.945L38.334 119.714L68.5144 102.167V88.3981L38.505 105.945Z" fill="#35AFE4"/>
<path d="M15.2247 93.4868L15.0537 107.256L38.3479 119.714L38.519 105.945L15.2247 93.4868V93.4868Z" fill="#4BC8EF"/>
<path d="M45.2328 60.1909L15.21 77.7375L38.5042 90.1955L68.5271 72.6488L45.2328 60.1909Z" fill="#96D8EC"/>
<path d="M38.505 90.1946L38.334 103.964L68.5144 86.4172V72.6479L38.505 90.1946Z" fill="#4BC8EF"/>
<path d="M15.2247 77.7366L15.0537 91.5203L38.3479 103.978L38.519 90.209L15.2247 77.7366V77.7366Z" fill="#74CFEB"/>
<path d="M17.5205 82.4976V83.6524L26.0459 88.2424V86.9311L17.5205 82.4986V82.4976Z" fill="#B5E3F0"/>
<path d="M67.2163 106.928V108.083L59.0195 112.843V111.532L67.2163 106.928Z" fill="#96D8EC"/>
<path d="M67.2163 109.395V110.549L59.0195 115.138V113.984L67.2163 109.395Z" fill="#96D8EC"/>
<path d="M67.0449 92.504V93.6588L58.5205 98.4198V97.2507L67.0449 92.504Z" fill="#96D8EC"/>
<path d="M89.5434 150.644L59.5205 168.189L82.8147 180.647L112.823 163.101L89.5434 150.644Z" fill="#DCDCDC"/>
<path d="M89.5434 132.886L59.5205 150.261L82.8147 162.719L112.823 145.329L89.5434 132.886V132.886Z" fill="#166BB3"/>
<path d="M82.8156 162.734L82.6445 176.502L112.825 159.113V145.344L82.8156 162.734Z" fill="#2E76BC"/>
<path d="M59.5353 150.261L59.3643 164.202L82.6585 176.502L82.8295 162.733L59.5353 150.261V150.261Z" fill="#2F94D1"/>
<path d="M89.5434 116.979L59.5205 134.526L82.8147 146.826L112.823 129.437L89.5434 116.979V116.979Z" fill="#166BB3"/>
<path d="M82.8156 146.826L82.6445 160.766L112.825 143.22V129.451L82.8156 146.826Z" fill="#2F94D1"/>
<path d="M59.5353 134.526L59.3643 148.295L82.6585 160.752L82.8295 146.813L59.5353 134.526V134.526Z" fill="#35AFE4"/>
<path d="M89.5434 101.072L59.5205 118.619L82.8147 131.077L112.823 113.53L89.5434 101.072V101.072Z" fill="#166BB3"/>
<path d="M82.8156 131.076L82.6445 144.845L112.825 127.299V113.529L82.8156 131.076Z" fill="#35AFE4"/>
<path d="M59.5353 118.618L59.3643 132.387L82.6585 144.845L82.8295 131.076L59.5353 118.618V118.618Z" fill="#4BC8EF"/>
<path d="M89.5434 85.321L59.5205 102.868L82.8147 115.326L112.838 97.779L89.5434 85.321Z" fill="#96D8EC"/>
<path d="M82.8156 115.326L82.6445 129.095L112.825 111.548V97.7791L82.8156 115.326Z" fill="#4BC8EF"/>
<path d="M59.5353 102.868L59.3643 116.651L82.6585 129.109L82.8295 115.34L59.5353 102.868V102.868Z" fill="#74CFEB"/>
<path d="M61.8311 107.629V108.784L70.3564 113.374V112.062L61.8311 107.63V107.629Z" fill="#B5E3F0"/>
<path d="M111.527 132.06V133.214L103.33 137.974V136.663L111.527 132.06Z" fill="#96D8EC"/>
<path d="M111.527 134.526V135.68L103.33 140.27V139.115L111.527 134.526Z" fill="#96D8EC"/>
<path d="M111.355 117.635V118.79L102.831 123.551V122.382L111.355 117.635V117.635Z" fill="#96D8EC"/>
<path d="M43.0854 214.827L13.0625 232.373L36.3567 244.831L66.3652 227.284L43.0854 214.827V214.827Z" fill="#DCDCDC"/>
<path d="M43.0854 197.069L13.0625 214.445L36.3567 226.903L66.3652 209.513L43.0854 197.069V197.069Z" fill="#166BB3"/>
<path d="M36.3576 226.917L36.1865 240.686L66.367 223.297V209.527L36.3576 226.917Z" fill="#2E76BC"/>
<path d="M13.0773 214.445L12.9062 228.385L36.2005 240.686L36.3715 226.916L13.0773 214.445Z" fill="#2F94D1"/>
<path d="M43.0854 181.162L13.0625 198.709L36.3567 211.01L66.3652 193.62L43.0854 181.162Z" fill="#166BB3"/>
<path d="M36.3576 211.01L36.1865 224.95L66.367 207.403V193.635L36.3576 211.01V211.01Z" fill="#2F94D1"/>
<path d="M13.0773 198.709L12.9062 212.478L36.2005 224.936L36.3715 210.996L13.0773 198.709V198.709Z" fill="#35AFE4"/>
<path d="M43.0854 165.256L13.0625 182.802L36.3567 195.26L66.3652 177.714L43.0854 165.256Z" fill="#166BB3"/>
<path d="M36.3576 195.259L36.1865 209.029L66.367 191.482V177.713L36.3576 195.259Z" fill="#35AFE4"/>
<path d="M13.0773 182.801L12.9062 196.571L36.2005 209.029L36.3715 195.259L13.0773 182.801Z" fill="#4BC8EF"/>
<path d="M43.0854 149.505L13.0625 167.052L36.3567 179.51L66.3796 161.963L43.0854 149.505Z" fill="#96D8EC"/>
<path d="M36.3576 179.509L36.1865 193.278L66.367 175.732V161.963L36.3576 179.509Z" fill="#4BC8EF"/>
<path d="M13.0773 167.051L12.9062 180.835L36.2005 193.293L36.3715 179.524L13.0773 167.051Z" fill="#74CFEB"/>
<path d="M15.373 171.812V172.967L23.8984 177.557V176.246L15.373 171.813V171.812Z" fill="#B5E3F0"/>
<path d="M65.0689 196.243V197.398L56.8721 202.158V200.847L65.0689 196.243Z" fill="#96D8EC"/>
<path d="M65.0689 198.709V199.864L56.8721 204.453V203.298L65.0689 198.709Z" fill="#96D8EC"/>
<path d="M64.8975 181.819V182.973L56.373 187.734V186.565L64.8975 181.819V181.819Z" fill="#96D8EC"/>
<path d="M157.221 25.6672C152.935 23.1858 149.035 22.9601 146.232 24.5721L141.945 27.1495C144.749 25.5058 148.649 25.7643 152.935 28.213C161.476 33.1432 168.34 45.0661 168.34 54.8937C168.307 59.7595 166.6 63.2074 163.828 64.7867L168.114 62.1766C170.886 60.5655 172.594 57.1177 172.626 52.2836C172.626 42.5203 165.761 30.5974 157.221 25.6672V25.6672Z" fill="#2E76BC"/>
<path d="M152.936 28.213C161.476 33.1432 168.341 45.0661 168.341 54.862C168.308 64.658 161.379 68.6217 152.839 63.6916C144.298 58.7941 137.401 46.8712 137.434 37.0752C137.466 27.2466 144.395 23.3145 152.936 28.213Z" fill="#2F94D1"/>
<path d="M69.8896 213.059L207.008 132.997C209.991 131.284 211.831 128.106 211.831 124.666L211.948 19.7879" stroke="#D2D2D2" stroke-width="2" stroke-linejoin="round" stroke-dasharray="4 4"/>
<path d="M214.625 2.1231C210.339 -0.35831 206.439 -0.584068 203.635 1.02794L199.349 3.60542C202.152 1.96171 206.052 2.22013 210.339 4.66888C218.879 9.59905 225.743 21.5219 225.743 31.3496C225.711 36.2154 224.003 39.6633 221.231 41.2426L225.518 38.6325C228.29 37.0214 229.997 33.5736 230.03 28.7395C230.03 18.9762 223.165 7.05327 214.625 2.1231V2.1231Z" fill="#74CFEB"/>
<path d="M210.338 4.66793C218.879 9.59809 225.743 21.521 225.743 31.317C225.71 41.1129 218.782 45.0767 210.241 40.1465C201.7 35.249 194.803 23.3261 194.836 13.5301C194.869 3.70149 201.797 -0.229575 210.338 4.66889V4.66793Z" fill="#B5E3F0"/>
<path d="M276.038 84.4209C271.752 81.9395 267.852 81.7137 265.048 83.3257L260.762 85.9032C263.565 84.2595 267.465 84.5179 271.752 86.9667C280.292 91.8968 287.157 103.82 287.157 113.647C287.124 118.513 285.416 121.961 282.644 123.54L286.931 120.93C289.703 119.319 291.41 115.871 291.443 111.037C291.443 101.274 284.578 89.3511 276.038 84.4209V84.4209Z" fill="#1D4A79"/>
<path d="M271.752 86.9667C280.293 91.8969 287.157 103.82 287.157 113.616C287.124 123.412 280.196 127.375 271.655 122.445C263.114 117.548 256.217 105.625 256.25 95.8289C256.283 86.0003 263.211 82.0692 271.752 86.9677V86.9667Z" fill="#166CB3"/>
<path d="M164.684 194.596L134.661 212.141L157.955 224.599L187.964 207.053L164.684 194.596V194.596Z" fill="#DCDCDC"/>
<path d="M164.684 176.838L134.661 194.213L157.955 206.671L187.964 189.281L164.684 176.838V176.838Z" fill="#166BB3"/>
<path d="M157.956 206.686L157.785 220.454L187.966 203.065V189.296L157.956 206.686Z" fill="#2E76BC"/>
<path d="M134.676 194.213L134.505 208.154L157.799 220.454L157.97 206.685L134.676 194.213Z" fill="#2F94D1"/>
<path d="M164.684 160.931L134.661 178.477L157.955 190.778L187.964 173.389L164.684 160.931Z" fill="#166BB3"/>
<path d="M157.956 190.778L157.785 204.718L187.966 187.171V173.403L157.956 190.778V190.778Z" fill="#2F94D1"/>
<path d="M134.676 178.477L134.505 192.247L157.799 204.704L157.97 190.764L134.676 178.477V178.477Z" fill="#35AFE4"/>
<path d="M164.684 145.024L134.661 162.571L157.955 175.029L187.964 157.482L164.684 145.024V145.024Z" fill="#166BB3"/>
<path d="M157.956 175.028L157.785 188.797L187.966 171.25V157.481L157.956 175.028V175.028Z" fill="#35AFE4"/>
<path d="M134.676 162.57L134.505 176.339L157.799 188.797L157.97 175.028L134.676 162.57Z" fill="#4BC8EF"/>
<path d="M164.684 129.273L134.661 146.819L157.955 159.277L187.978 141.731L164.684 129.273V129.273Z" fill="#96D8EC"/>
<path d="M157.956 159.277L157.785 173.047L187.966 155.5V141.731L157.956 159.277Z" fill="#4BC8EF"/>
<path d="M134.676 146.819L134.505 160.603L157.799 173.061L157.97 159.292L134.676 146.819Z" fill="#74CFEB"/>
<path d="M136.972 151.581V152.735L145.497 157.325V156.014L136.972 151.581V151.581Z" fill="#B5E3F0"/>
<path d="M186.668 176.011V177.166L178.471 181.926V180.615L186.668 176.011Z" fill="#96D8EC"/>
<path d="M186.668 178.477V179.632L178.471 184.221V183.067L186.668 178.477Z" fill="#96D8EC"/>
<path d="M186.496 161.587V162.742L177.972 167.503V166.334L186.496 161.587V161.587Z" fill="#96D8EC"/>
<path d="M87.3959 239.958L57.373 257.504L80.6673 269.962L110.676 252.415L87.3959 239.958Z" fill="#DCDCDC"/>
<path d="M87.3959 222.2L57.373 239.576L80.6673 252.034L110.676 234.644L87.3959 222.2V222.2Z" fill="#166BB3"/>
<path d="M80.6681 252.049L80.4971 265.817L110.678 248.428V234.658L80.6681 252.049Z" fill="#2E76BC"/>
<path d="M57.3878 239.576L57.2168 253.516L80.511 265.817L80.682 252.048L57.3878 239.576V239.576Z" fill="#2F94D1"/>
<path d="M87.3959 206.294L57.373 223.84L80.6673 236.141L110.676 218.752L87.3959 206.294V206.294Z" fill="#166BB3"/>
<path d="M80.6681 236.141L80.4971 250.081L110.678 232.534V218.766L80.6681 236.141V236.141Z" fill="#2F94D1"/>
<path d="M57.3878 223.84L57.2168 237.61L80.511 250.067L80.682 236.127L57.3878 223.84V223.84Z" fill="#35AFE4"/>
<path d="M87.3959 190.387L57.373 207.934L80.6673 220.391L110.676 202.845L87.3959 190.387Z" fill="#166BB3"/>
<path d="M80.6681 220.391L80.4971 234.16L110.678 216.613V202.844L80.6681 220.391Z" fill="#35AFE4"/>
<path d="M57.3878 207.933L57.2168 221.702L80.511 234.16L80.682 220.391L57.3878 207.933V207.933Z" fill="#4BC8EF"/>
<path d="M87.3959 174.636L57.373 192.182L80.6673 204.64L110.69 187.094L87.3959 174.636Z" fill="#96D8EC"/>
<path d="M80.6681 204.64L80.4971 218.41L110.678 200.863V187.094L80.6681 204.64V204.64Z" fill="#4BC8EF"/>
<path d="M57.3878 192.182L57.2168 205.966L80.511 218.424L80.682 204.655L57.3878 192.182V192.182Z" fill="#74CFEB"/>
<path d="M59.6826 196.943V198.098L68.208 202.688V201.377L59.6826 196.944V196.943Z" fill="#B5E3F0"/>
<path d="M109.379 221.374V222.529L101.183 227.289V225.978L109.379 221.374Z" fill="#96D8EC"/>
<path d="M109.379 223.84V224.995L101.183 229.584V228.429L109.379 223.84Z" fill="#96D8EC"/>
<path d="M109.208 206.95V208.104L100.684 212.866V211.696L109.208 206.95V206.95Z" fill="#96D8EC"/>
<path d="M238.037 90.9151C238.037 76.4041 229.181 59.4857 218.295 53.202C214.143 50.8051 210.287 50.3017 207.105 51.3959L207.103 51.3911L203.867 52.5824L203.863 52.6093C203.875 52.6054 203.888 52.6025 203.899 52.5987C198.678 54.326 195.243 60.3292 195.243 69.3663C195.243 83.8772 204.099 100.796 214.984 107.079C219.247 109.541 223.195 110.003 226.426 108.793L226.431 108.801L229.669 107.586L229.666 107.578C234.724 105.728 238.036 99.7869 238.036 90.916L238.037 90.9151ZM204.551 52.4114C204.527 52.4171 204.504 52.4248 204.481 52.4306C204.505 52.4248 204.527 52.4171 204.551 52.4114Z" fill="#1D4A79"/>
<path d="M214.984 107.078C204.099 100.795 195.243 83.8763 195.243 69.3653C195.243 54.8544 204.099 48.1604 214.984 54.4432C225.869 60.727 234.726 77.6454 234.726 92.1563C234.726 106.667 225.87 113.361 214.984 107.077V107.078Z" fill="#B5E3F0"/>
<path d="M214.984 107.078C204.099 100.795 195.243 83.8763 195.243 69.3653C195.243 54.8544 204.099 48.1604 214.984 54.4432C225.869 60.727 234.726 77.6454 234.726 92.1563C234.726 106.667 225.87 113.361 214.984 107.077V107.078ZM214.984 56.3655C204.894 50.541 196.684 56.7459 196.684 70.1973C196.684 83.6495 204.894 99.3315 214.984 105.157C225.075 110.982 233.284 104.777 233.284 91.3253C233.284 77.873 225.075 62.1901 214.984 56.3655V56.3655Z" fill="#166DB3"/>
<path d="M217.334 86.2842C219.06 85.5499 219.407 82.4818 218.109 79.4315C216.811 76.3812 214.359 74.5038 212.633 75.2382C210.907 75.9725 210.56 79.0406 211.858 82.0909C213.157 85.1412 215.608 87.0186 217.334 86.2842Z" fill="#166DB3"/>
<path d="M234.483 91.504L234.728 92.1544L234.483 92.5319C230.887 98.0654 224.32 99.0606 216.746 95.3025C218.555 95.9336 220.198 95.8347 221.553 95.1084C226.389 96.1613 230.454 94.8183 233.027 91.1725C230.454 84.566 226.397 78.5436 221.568 74.0073C220.227 71.7343 218.599 69.7563 216.804 68.2884C224.357 73.2829 230.901 81.8358 234.483 91.504V91.504Z" fill="#166DB3"/>
<path d="M221.568 74.0082C226.397 78.5445 230.455 84.567 233.028 91.1735C230.455 94.8193 226.39 96.1623 221.554 95.1094C223.831 93.9066 225.287 90.9516 225.287 86.7054C225.287 82.4679 223.839 77.8365 221.568 74.0092V74.0082Z" fill="#35AFE4"/>
<path d="M221.567 74.0082C223.838 77.8365 225.287 82.4679 225.287 86.7045C225.287 90.9516 223.831 93.9057 221.553 95.1084C219.968 94.7597 218.295 94.1602 216.565 93.286C220.695 94.68 223.845 91.6654 223.845 85.8716C223.845 80.1162 220.724 73.4914 216.623 70.0964C218.338 71.2213 219.997 72.5336 221.567 74.0073V74.0082Z" fill="#35AFE4"/>
<path d="M216.803 68.2884C218.598 69.7563 220.226 71.7343 221.567 74.0073C219.996 72.5336 218.337 71.2213 216.622 70.0964C216.096 69.6583 215.548 69.275 214.986 68.9503C214.381 68.6006 213.782 68.3422 213.205 68.1625L213.198 68.1587C211.497 67.3402 209.853 66.7859 208.282 66.4746C209.616 65.7167 211.237 65.5764 213.025 66.1471C213.84 66.5304 214.661 66.9665 215.489 67.4641C215.929 67.7274 216.369 68.0002 216.801 68.2884H216.803Z" fill="#166DB3"/>
<path d="M221.553 95.1084C220.198 95.8347 218.555 95.9336 216.746 95.3025C216.328 95.0998 215.91 94.8778 215.492 94.6454L215.089 94.4119C214.411 94.0209 213.748 93.6088 213.085 93.1496C211.276 91.6538 209.625 89.6153 208.278 87.2905C209.864 88.8208 211.522 90.1715 213.244 91.3291C213.814 91.8114 214.39 92.2216 214.988 92.5665C215.529 92.8787 216.054 93.115 216.566 93.2851C218.296 94.1583 219.969 94.7587 221.554 95.1075L221.553 95.1084Z" fill="#166DB3"/>
<path d="M216.803 68.2884C216.371 68.0002 215.931 67.7273 215.492 67.4641C214.663 66.9665 213.841 66.5303 213.027 66.147C213.661 66.3497 214.318 66.6418 214.987 67.0289C215.607 67.3863 216.212 67.8128 216.803 68.2884V68.2884Z" fill="#166DB3"/>
<path d="M215.492 94.6463C215.91 94.8778 216.328 95.0997 216.746 95.3034C216.176 95.1093 215.585 94.8356 214.987 94.4897C214.339 94.115 213.705 93.6722 213.085 93.1515C213.748 93.6107 214.411 94.0228 215.088 94.4138L215.492 94.6473V94.6463Z" fill="#166DB3"/>
<path d="M216.624 70.0964C216.241 69.8466 215.86 69.6074 215.471 69.373C214.707 68.9128 213.95 68.5045 213.208 68.1625C213.785 68.3412 214.383 68.6006 214.988 68.9503C215.55 69.275 216.098 69.6583 216.625 70.0964H216.624Z" fill="#166DB3"/>
<path d="M215.47 92.7115C215.838 92.9142 216.205 93.1073 216.566 93.286C216.054 93.116 215.528 92.8787 214.987 92.5674C214.388 92.2225 213.812 91.8123 213.243 91.3301C213.971 91.8267 214.721 92.2888 215.47 92.7115Z" fill="#166DB3"/>
<path d="M213.2 68.1587C209.172 66.9377 206.123 69.9532 206.123 75.6413C206.123 81.3583 209.193 87.9158 213.244 91.3301C211.521 90.1725 209.863 88.8217 208.278 87.2914C206.08 83.5054 204.682 78.9701 204.682 74.8094C204.682 70.6487 206.08 67.7187 208.286 66.4746C209.857 66.7859 211.501 67.3402 213.201 68.1587H213.2Z" fill="#35AFE4"/>
<path d="M213.027 66.147C211.24 65.5764 209.618 65.7167 208.284 66.4746C203.636 65.5687 199.657 66.8848 196.977 70.3625C199.651 76.9315 203.629 82.831 208.278 87.2914C209.626 89.6162 211.276 91.6548 213.085 93.1506C205.748 88.1944 199.305 79.7674 195.513 70.0551L195.246 69.3634L195.513 68.9791C199.297 63.6685 205.719 62.6675 213.027 66.147V66.147Z" fill="#166DB3"/>
<path d="M208.284 66.4747C206.079 67.7187 204.68 70.6497 204.68 74.8094C204.68 78.9701 206.078 83.5045 208.277 87.2915C203.628 82.8301 199.65 76.9306 196.976 70.3625C199.656 66.8849 203.635 65.5687 208.284 66.4747H208.284Z" fill="#35AFE4"/>
<path d="M224.79 108.162L204.229 53.6238L205.443 53.2847L226.003 107.824L224.79 108.162Z" fill="#166DB3"/>
<path d="M208.996 219.726L178.973 237.271L202.267 249.729L232.275 232.183L208.996 219.726V219.726Z" fill="#DCDCDC"/>
<path d="M208.996 201.968L178.973 219.343L202.267 231.801L232.275 214.411L208.996 201.968V201.968Z" fill="#166BB3"/>
<path d="M202.268 231.816L202.097 245.584L232.277 228.195V214.426L202.268 231.816Z" fill="#2E76BC"/>
<path d="M178.987 219.343L178.816 233.284L202.111 245.584L202.282 231.815L178.987 219.343Z" fill="#2F94D1"/>
<path d="M208.996 186.062L178.973 203.609L202.267 215.909L232.275 198.52L208.996 186.062V186.062Z" fill="#166BB3"/>
<path d="M202.268 215.908L202.097 229.848L232.277 212.302V198.533L202.268 215.908Z" fill="#2F94D1"/>
<path d="M178.987 203.608L178.816 217.377L202.111 229.834L202.282 215.895L178.987 203.608V203.608Z" fill="#35AFE4"/>
<path d="M208.996 170.154L178.973 187.701L202.267 200.159L232.275 182.612L208.996 170.154V170.154Z" fill="#166BB3"/>
<path d="M202.268 200.158L202.097 213.927L232.277 196.38V182.611L202.268 200.158V200.158Z" fill="#35AFE4"/>
<path d="M178.987 187.701L178.816 201.47L202.111 213.928L202.282 200.159L178.987 187.701Z" fill="#4BC8EF"/>
<path d="M208.996 154.404L178.973 171.951L202.267 184.409L232.29 166.862L208.996 154.404V154.404Z" fill="#96D8EC"/>
<path d="M202.268 184.408L202.097 198.177L232.277 180.63V166.861L202.268 184.408Z" fill="#4BC8EF"/>
<path d="M178.987 171.951L178.816 185.734L202.111 198.192L202.282 184.423L178.987 171.951Z" fill="#74CFEB"/>
<path d="M181.283 176.711V177.865L189.809 182.456V181.144L181.283 176.712V176.711Z" fill="#B5E3F0"/>
<path d="M230.979 201.142V202.296L222.782 207.056V205.745L230.979 201.142Z" fill="#96D8EC"/>
<path d="M230.979 203.608V204.762L222.782 209.351V208.197L230.979 203.608Z" fill="#96D8EC"/>
<path d="M230.808 186.717V187.872L222.283 192.633V191.464L230.808 186.717V186.717Z" fill="#96D8EC"/>
</g>
<defs>
<linearGradient id="paint0_linear_520_1159" x1="221.717" y1="156.669" x2="221.717" y2="9.26857" gradientUnits="userSpaceOnUse">
<stop stop-color="#2F94D1"/>
<stop offset="0.906" stop-color="#4BC8EF"/>
</linearGradient>
<clipPath id="clip0_520_1159">
<rect width="304" height="277" fill="white"/>
</clipPath>
</defs>
</svg>
