<?xml version="1.0" encoding="UTF-8" standalone="no"?>
<!DOCTYPE svg PUBLIC "-//W3C//DTD SVG 1.1//EN" "http://www.w3.org/Graphics/SVG/1.1/DTD/svg11.dtd">
<!-- Generated by Microsoft Visio, SVG Export CCF diagram.svg Page-1 -->
<svg xmlns="http://www.w3.org/2000/svg" xmlns:xlink="http://www.w3.org/1999/xlink" xmlns:ev="http://www.w3.org/2001/xml-events"
		xmlns:v="http://schemas.microsoft.com/visio/2003/SVGExtensions/" width="7.87402in" height="4.72441in"
		viewBox="0 0 566.929 340.157" xml:space="preserve" color-interpolation-filters="sRGB" class="st19">
	<v:documentProperties v:langID="2057" v:metric="true" v:viewMarkup="false">
		<v:userDefs>
			<v:ud v:nameU="msvNoAutoConnect" v:val="VT0(1):26"/>
		</v:userDefs>
	</v:documentProperties>

	<style type="text/css">
	<![CDATA[
		.st1 {fill:#5d98c2;stroke:none;stroke-linecap:round;stroke-linejoin:round;stroke-width:6.375}
		.st2 {fill:#0083b9;font-family:Arial;font-size:0.916672em}
		.st3 {fill:#5d98c2;font-family:Arial;font-size:0.916672em}
		.st4 {font-size:1em}
		.st5 {fill:#ecf1f6;stroke:#ecf1f6;stroke-linecap:round;stroke-linejoin:round;stroke-width:0.25}
		.st6 {fill:#006c99;stroke:none;stroke-linecap:butt;stroke-width:0.75}
		.st7 {fill:#5d98c2;stroke:#5d98c2;stroke-linecap:round;stroke-linejoin:round;stroke-width:0.25}
		.st8 {stroke:#0083b9;stroke-dasharray:1.66346,1.18819;stroke-linecap:round;stroke-linejoin:round;stroke-width:0.237638}
		.st9 {fill:none;stroke:none;stroke-linecap:round;stroke-linejoin:round;stroke-width:0.75}
		.st10 {fill:#5d98c2;font-family:Arial;font-size:1.00001em}
		.st11 {fill:#ffffff;stroke:#13759a;stroke-linecap:round;stroke-linejoin:round;stroke-width:0.75}
		.st12 {fill:#0083b9;font-family:Arial;font-size:0.583328em}
		.st13 {marker-end:url(#mrkr4-115);stroke:#0083b9;stroke-linecap:round;stroke-linejoin:round;stroke-width:0.237638}
		.st14 {fill:#0083b9;fill-opacity:1;stroke:#0083b9;stroke-opacity:1;stroke-width:0.086174404659928}
		.st15 {fill:#ffffff;stroke:none;stroke-linecap:butt;stroke-width:7.2}
		.st16 {fill:#5d98c2;font-family:Arial;font-size:0.75em}
		.st17 {fill:#0083b9;font-family:Arial;font-size:0.666664em}
		.st18 {fill:#ffffff;stroke:#5d98c2;stroke-linecap:round;stroke-linejoin:round;stroke-width:0.75}
		.st19 {fill:none;fill-rule:evenodd;font-size:12px;overflow:visible;stroke-linecap:square;stroke-miterlimit:3}
	]]>
	</style>

	<defs id="Markers">
		<g id="lend4">
			<path d="M 2 1 L 0 0 L 2 -1 L 2 1 " style="stroke:none"/>
		</g>
		<marker id="mrkr4-115" class="st14" v:arrowType="4" v:arrowSize="2" v:setback="23.2087" refX="-23.208747514911"
				orient="auto" markerUnits="strokeWidth" overflow="visible">
			<use xlink:href="#lend4" transform="scale(-11.604373757455,-11.604373757455) "/>
		</marker>
	</defs>
	<g v:mID="0" v:index="1" v:groupContext="foregroundPage">
		<v:userDefs>
			<v:ud v:nameU="msvThemeOrder" v:val="VT0(0):26"/>
		</v:userDefs>
		<title>Page-1</title>
		<v:pageProperties v:drawingScale="0.0393701" v:pageScale="0.0393701" v:drawingUnits="24" v:shadowOffsetX="8.50394"
				v:shadowOffsetY="-8.50394"/>
		<v:layer v:name="Common Icons" v:index="0"/>
		<v:layer v:name="Connector" v:index="1"/>
		<v:layer v:name="Azure" v:index="2"/>
		<g id="group1031-1" transform="translate(38.7561,-108.362)" v:mID="1031" v:groupContext="group">
			<title>User.12</title>
			<desc>User</desc>
			<g id="shape1032-2" v:mID="1032" v:groupContext="shape">
				<title>Sheet.1032</title>
				<path d="M22.74 340.16 L0 340.16 L0 334.81 C0 334 0.43 333.2 1.14 332.67 C2.7 331.6 4.69 330.66 6.68 330.13 C8.24
							 329.72 9.81 329.46 11.37 329.46 C13.08 329.46 14.64 329.72 16.06 330.13 C18.05 330.66 20.04 331.46 21.6
							 332.67 C22.31 333.2 22.74 334 22.74 334.81 L22.74 340.16 ZM17.06 322.77 A5.68504 5.35063 0 1 1 5.69
							 322.77 A5.68504 5.35063 0 1 1 17.06 322.77 Z" class="st1"/>
			</g>
			<g id="shape1031-4" v:mID="1031" v:groupContext="groupContent">
				<v:textBlock v:margins="rect(4,4,4,4)" v:tabSpace="42.5197"/>
				<v:textRect cx="11.3701" cy="350.759" width="34.29" height="21.2037"/>
				<text x="-0.24" y="354.06" class="st2" v:langID="2057"><v:paragraph v:horizAlign="1"/><v:tabList/>User</text>			</g>
		</g>
		<g id="group1033-6" transform="translate(38.7561,-218.033)" v:mID="1033" v:groupContext="group">
			<title>Users</title>
			<desc>Consortium (members)</desc>
			<g id="shape1034-7" v:mID="1034" v:groupContext="shape">
				<title>Sheet.1034</title>
				<path d="M13.1 331.08 C12.66 331.42 12.43 331.65 12.1 332.11 L0 332.11 L0 326.94 C0 326.14 0.34 325.33 1.01 324.87
							 C2.46 323.84 4.14 323.04 5.94 322.46 C7.28 322 8.74 321.77 10.08 321.77 C11.54 321.77 12.99 322.12 14.22
							 322.46 C14.9 322.58 15.57 322.92 16.24 323.15 L16.24 323.38 C16.24 325.33 17.02 327.06 18.26 328.44
							 C16.46 329.01 14.67 329.93 13.1 331.08 ZM46.03 324.87 C46.71 325.33 47.04 326.14 47.04 326.94 L47.04
							 332.11 L34.83 332.11 C34.61 331.65 34.27 331.42 33.94 331.08 C32.59 330.05 30.91 329.13 28.79 328.44
							 C30.02 327.17 30.8 325.33 30.8 323.38 L30.8 323.27 C31.47 322.92 32.15 322.69 32.82 322.46 C34.16 322
							 35.62 321.77 36.96 321.77 C38.42 321.77 39.87 322.12 41.11 322.46 C42.9 322.92 44.69 323.72 46.03 324.87
							 ZM28.56 323.27 A5.04026 5.17107 0 1 1 18.48 323.27 A5.04026 5.17107 0 1 1 28.56 323.27 ZM33.6 340.16
							 L13.44 340.16 L13.44 334.99 C13.44 334.18 13.78 333.49 14.45 332.92 C15.9 331.88 17.58 330.96 19.38
							 330.5 C20.72 330.05 22.18 329.82 23.52 329.82 C24.98 329.82 26.43 330.16 27.67 330.5 C29.46 330.96 31.25
							 331.77 32.59 332.92 C33.27 333.38 33.6 334.18 33.6 334.99 L33.6 340.16 ZM42 315.22 A5.04026 5.17107
							 0 1 1 31.92 315.22 A5.04026 5.17107 0 1 1 42 315.22 ZM15.12 315.22 A5.04026 5.17107 0 1 1 5.04 315.22
							 A5.04026 5.17107 0 1 1 15.12 315.22 Z" class="st1"/>
			</g>
			<g id="shape1033-9" v:mID="1033" v:groupContext="groupContent">
				<v:textBlock v:margins="rect(4,4,4,4)" v:tabSpace="42.5197"/>
				<v:textRect cx="23.5212" cy="357.359" width="67.31" height="34.4037"/>
				<text x="-4.6" y="354.06" class="st3" v:langID="2057"><v:paragraph v:horizAlign="1"/><v:tabList/>Consortium<v:newlineChar/><tspan
							x="-3.06" dy="1.2em" class="st4">(members)</tspan></text>			</g>
		</g>
		<g id="group1035-12" transform="translate(180.929,-56.6929)" v:mID="1035" v:groupContext="group">
			<title>Sheet.1035</title>
			<g id="group1036-13" transform="translate(0,-17.9974)" v:mID="1036" v:groupContext="group" v:layerMember="0">
				<v:userDefs>
					<v:ud v:nameU="visVersion" v:prompt="" v:val="VT0(17):26"/>
					<v:ud v:nameU="visAltText" v:prompt="" v:val="VT4(Cloud)"/>
					<v:ud v:nameU="visAltDescription" v:prompt="" v:val="VT4(Cloud Icon.)"/>
					<v:ud v:nameU="Font" v:prompt="" v:val="VT0(243):26"/>
				</v:userDefs>
				<title>Cloud.7</title>
				<g id="shape1037-14" v:mID="1037" v:groupContext="shape" v:layerMember="0">
					<title>Sheet.1037</title>
					<path d="M298.74 241.34 C297.52 241.34 295.89 241.34 294.67 241.34 C294.67 241.34 294.67 241.34 294.67 241.34
								 C294.67 221.25 284.89 202.79 268.99 191.31 C252.69 179.83 231.9 176.96 213.16 183.52 C197.67 153.18
								 163.43 137.6 130.83 145.39 C98.22 153.18 74.58 182.7 74.58 216.74 C74.58 216.74 74.58 217.15 74.58
								 217.56 C52.17 213.87 29.75 223.3 15.89 241.34 C2.45 259.79 0 283.98 9.37 304.48 C19.16 324.99 39.53
								 338.52 61.95 339.75 L61.95 340.16 L298.34 340.16 C325.24 340.16 347.24 318.02 347.24 290.95 C347.24
								 263.89 325.64 241.34 298.74 241.34 Z" class="st5"/>
				</g>
			</g>
			<g id="shape1038-16" v:mID="1038" v:groupContext="shape" transform="translate(95.8968,-139.26)">
				<title>Lock</title>
				<v:userDefs>
					<v:ud v:nameU="msvShapeCategories" v:prompt="" v:val="VT4(Icon)"/>
					<v:ud v:nameU="visVersion" v:prompt="" v:val="VT0(15):26"/>
				</v:userDefs>
				<path d="M5.49 335.82 C5.49 336.14 5.29 336.42 5.01 336.54 L5.22 338.21 L4.14 338.21 L4.35 336.54 C4.07 336.42 3.87
							 336.14 3.87 335.82 C3.87 335.38 4.23 335.02 4.68 335.02 C5.13 335.02 5.49 335.38 5.49 335.82 ZM8.64
							 339.09 L8.64 334.13 C8.64 333.94 8.48 333.78 8.28 333.78 L1.08 333.78 C0.88 333.78 0.72 333.94 0.72
							 334.13 L0.72 339.09 C0.72 339.29 0.88 339.45 1.08 339.45 L8.28 339.45 C8.48 339.45 8.64 339.29 8.64
							 339.09 ZM5.76 331.77 C5.73 331.32 5.25 330.94 4.68 330.94 C4.1 330.94 3.63 331.34 3.61 331.84 L3.6 331.84
							 L3.6 333.07 L5.76 333.07 L5.76 331.77 ZM2.16 331.74 C2.16 331.74 2.16 332.37 2.16 333.07 L2.88 333.07
							 C2.88 332.37 2.88 331.74 2.88 331.74 L2.89 331.81 C2.93 330.93 3.72 330.24 4.68 330.24 C5.64 330.24
							 6.43 330.91 6.48 331.74 C6.48 331.74 6.48 332.37 6.48 333.07 L7.2 333.07 C7.2 332.37 7.2 331.74 7.2
							 331.74 C7.13 330.51 6.03 329.53 4.68 329.53 C3.33 329.53 2.23 330.51 2.17 331.77 L2.16 331.74 ZM8.28
							 333.07 C8.88 333.07 9.36 333.55 9.36 334.13 L9.36 339.09 C9.36 339.68 8.88 340.16 8.28 340.16 L1.08
							 340.16 C0.48 340.16 0 339.68 0 339.09 L0 334.13 C0 333.55 0.48 333.07 1.08 333.07 L1.44 333.07 L1.44
							 331.74 L1.45 331.74 C1.53 330.11 2.94 328.82 4.68 328.82 C6.42 328.82 7.83 330.11 7.91 331.74 L7.92
							 331.74 L7.92 333.07 L8.28 333.07 Z" class="st6"/>
			</g>
			<g id="group1039-18" transform="translate(92.126,-115.024)" v:mID="1039" v:groupContext="group" v:layerMember="0">
				<v:userDefs>
					<v:ud v:nameU="visVersion" v:prompt="" v:val="VT0(17):26"/>
					<v:ud v:nameU="visAltText" v:prompt="" v:val="VT4(Database)"/>
					<v:ud v:nameU="visAltDescription" v:prompt="" v:val="VT4(Database Icon.)"/>
					<v:ud v:nameU="Font" v:prompt="" v:val="VT0(243):26"/>
				</v:userDefs>
				<title>Database</title>
				<g id="group1040-19" v:mID="1040" v:groupContext="group" v:layerMember="0">
					<title>Sheet.1040</title>
					<g id="shape1041-20" v:mID="1041" v:groupContext="shape" v:layerMember="0" transform="translate(0,-17.7911)">
						<title>Sheet.1041</title>
						<ellipse cx="8.45079" cy="337.785" rx="8.45079" ry="2.37215" class="st7"/>
					</g>
					<g id="shape1042-22" v:mID="1042" v:groupContext="shape" v:layerMember="0" transform="translate(0,-11.8608)">
						<title>Sheet.1042</title>
						<path d="M14.49 337.79 C14.12 337.79 13.88 337.55 13.88 337.19 C13.88 336.84 14.12 336.6 14.49 336.6 C14.85
									 336.6 15.09 336.84 15.09 337.19 C15.09 337.55 14.85 337.79 14.49 337.79 ZM8.45 335.41 C3.8 335.41
									 0 334.35 0 333.04 L0 337.79 C0 339.09 3.8 340.16 8.45 340.16 C13.1 340.16 16.9 339.09 16.9 337.79
									 L16.9 333.04 C16.9 334.35 13.1 335.41 8.45 335.41 Z" class="st7"/>
					</g>
					<g id="shape1043-24" v:mID="1043" v:groupContext="shape" v:layerMember="0" transform="translate(0,-5.93038)">
						<title>Sheet.1043</title>
						<path d="M14.49 337.79 C14.12 337.79 13.88 337.55 13.88 337.19 C13.88 336.84 14.12 336.6 14.49 336.6 C14.85
									 336.6 15.09 336.84 15.09 337.19 C15.09 337.55 14.85 337.79 14.49 337.79 ZM8.45 335.41 C3.8 335.41
									 0 334.35 0 333.04 L0 337.79 C0 339.09 3.8 340.16 8.45 340.16 C13.1 340.16 16.9 339.09 16.9 337.79
									 L16.9 333.04 C16.9 334.35 13.1 335.41 8.45 335.41 Z" class="st7"/>
					</g>
					<g id="shape1044-26" v:mID="1044" v:groupContext="shape" v:layerMember="0">
						<title>Sheet.1044</title>
						<path d="M14.49 337.79 C14.12 337.79 13.88 337.55 13.88 337.19 C13.88 336.84 14.12 336.6 14.49 336.6 C14.85
									 336.6 15.09 336.84 15.09 337.19 C15.09 337.55 14.85 337.79 14.49 337.79 ZM8.45 335.41 C3.8 335.41
									 0 334.35 0 333.04 L0 337.79 C0 339.09 3.8 340.16 8.45 340.16 C13.1 340.16 16.9 339.09 16.9 337.79
									 L16.9 333.04 C16.9 334.35 13.1 335.41 8.45 335.41 Z" class="st7"/>
					</g>
				</g>
			</g>
			<g id="group1045-28" transform="translate(167.35,-51.2441)" v:mID="1045" v:groupContext="group" v:layerMember="0">
				<v:userDefs>
					<v:ud v:nameU="visVersion" v:prompt="" v:val="VT0(17):26"/>
					<v:ud v:nameU="visAltText" v:prompt="" v:val="VT4(Database)"/>
					<v:ud v:nameU="visAltDescription" v:prompt="" v:val="VT4(Database Icon.)"/>
					<v:ud v:nameU="Font" v:prompt="" v:val="VT0(243):26"/>
				</v:userDefs>
				<title>Database.8</title>
				<g id="group1046-29" v:mID="1046" v:groupContext="group" v:layerMember="0">
					<title>Sheet.1046</title>
					<g id="shape1047-30" v:mID="1047" v:groupContext="shape" v:layerMember="0" transform="translate(0,-17.7911)">
						<title>Sheet.1047</title>
						<ellipse cx="8.45079" cy="337.785" rx="8.45079" ry="2.37215" class="st7"/>
					</g>
					<g id="shape1048-32" v:mID="1048" v:groupContext="shape" v:layerMember="0" transform="translate(0,-11.8608)">
						<title>Sheet.1048</title>
						<path d="M14.49 337.79 C14.12 337.79 13.88 337.55 13.88 337.19 C13.88 336.84 14.12 336.6 14.49 336.6 C14.85
									 336.6 15.09 336.84 15.09 337.19 C15.09 337.55 14.85 337.79 14.49 337.79 ZM8.45 335.41 C3.8 335.41
									 0 334.35 0 333.04 L0 337.79 C0 339.09 3.8 340.16 8.45 340.16 C13.1 340.16 16.9 339.09 16.9 337.79
									 L16.9 333.04 C16.9 334.35 13.1 335.41 8.45 335.41 Z" class="st7"/>
					</g>
					<g id="shape1049-34" v:mID="1049" v:groupContext="shape" v:layerMember="0" transform="translate(0,-5.93038)">
						<title>Sheet.1049</title>
						<path d="M14.49 337.79 C14.12 337.79 13.88 337.55 13.88 337.19 C13.88 336.84 14.12 336.6 14.49 336.6 C14.85
									 336.6 15.09 336.84 15.09 337.19 C15.09 337.55 14.85 337.79 14.49 337.79 ZM8.45 335.41 C3.8 335.41
									 0 334.35 0 333.04 L0 337.79 C0 339.09 3.8 340.16 8.45 340.16 C13.1 340.16 16.9 339.09 16.9 337.79
									 L16.9 333.04 C16.9 334.35 13.1 335.41 8.45 335.41 Z" class="st7"/>
					</g>
					<g id="shape1050-36" v:mID="1050" v:groupContext="shape" v:layerMember="0">
						<title>Sheet.1050</title>
						<path d="M14.49 337.79 C14.12 337.79 13.88 337.55 13.88 337.19 C13.88 336.84 14.12 336.6 14.49 336.6 C14.85
									 336.6 15.09 336.84 15.09 337.19 C15.09 337.55 14.85 337.79 14.49 337.79 ZM8.45 335.41 C3.8 335.41
									 0 334.35 0 333.04 L0 337.79 C0 339.09 3.8 340.16 8.45 340.16 C13.1 340.16 16.9 339.09 16.9 337.79
									 L16.9 333.04 C16.9 334.35 13.1 335.41 8.45 335.41 Z" class="st7"/>
					</g>
				</g>
			</g>
			<g id="group1051-38" transform="translate(231.13,-115.024)" v:mID="1051" v:groupContext="group" v:layerMember="0">
				<v:userDefs>
					<v:ud v:nameU="visVersion" v:prompt="" v:val="VT0(17):26"/>
					<v:ud v:nameU="visAltText" v:prompt="" v:val="VT4(Database)"/>
					<v:ud v:nameU="visAltDescription" v:prompt="" v:val="VT4(Database Icon.)"/>
					<v:ud v:nameU="Font" v:prompt="" v:val="VT0(243):26"/>
				</v:userDefs>
				<title>Database.14</title>
				<g id="group1052-39" v:mID="1052" v:groupContext="group" v:layerMember="0">
					<title>Sheet.1052</title>
					<g id="shape1053-40" v:mID="1053" v:groupContext="shape" v:layerMember="0" transform="translate(0,-17.7911)">
						<title>Sheet.1053</title>
						<ellipse cx="8.45079" cy="337.785" rx="8.45079" ry="2.37215" class="st7"/>
					</g>
					<g id="shape1054-42" v:mID="1054" v:groupContext="shape" v:layerMember="0" transform="translate(0,-11.8608)">
						<title>Sheet.1054</title>
						<path d="M14.49 337.79 C14.12 337.79 13.88 337.55 13.88 337.19 C13.88 336.84 14.12 336.6 14.49 336.6 C14.85
									 336.6 15.09 336.84 15.09 337.19 C15.09 337.55 14.85 337.79 14.49 337.79 ZM8.45 335.41 C3.8 335.41
									 0 334.35 0 333.04 L0 337.79 C0 339.09 3.8 340.16 8.45 340.16 C13.1 340.16 16.9 339.09 16.9 337.79
									 L16.9 333.04 C16.9 334.35 13.1 335.41 8.45 335.41 Z" class="st7"/>
					</g>
					<g id="shape1055-44" v:mID="1055" v:groupContext="shape" v:layerMember="0" transform="translate(0,-5.93038)">
						<title>Sheet.1055</title>
						<path d="M14.49 337.79 C14.12 337.79 13.88 337.55 13.88 337.19 C13.88 336.84 14.12 336.6 14.49 336.6 C14.85
									 336.6 15.09 336.84 15.09 337.19 C15.09 337.55 14.85 337.79 14.49 337.79 ZM8.45 335.41 C3.8 335.41
									 0 334.35 0 333.04 L0 337.79 C0 339.09 3.8 340.16 8.45 340.16 C13.1 340.16 16.9 339.09 16.9 337.79
									 L16.9 333.04 C16.9 334.35 13.1 335.41 8.45 335.41 Z" class="st7"/>
					</g>
					<g id="shape1056-46" v:mID="1056" v:groupContext="shape" v:layerMember="0">
						<title>Sheet.1056</title>
						<path d="M14.49 337.79 C14.12 337.79 13.88 337.55 13.88 337.19 C13.88 336.84 14.12 336.6 14.49 336.6 C14.85
									 336.6 15.09 336.84 15.09 337.19 C15.09 337.55 14.85 337.79 14.49 337.79 ZM8.45 335.41 C3.8 335.41
									 0 334.35 0 333.04 L0 337.79 C0 339.09 3.8 340.16 8.45 340.16 C13.1 340.16 16.9 339.09 16.9 337.79
									 L16.9 333.04 C16.9 334.35 13.1 335.41 8.45 335.41 Z" class="st7"/>
					</g>
				</g>
			</g>
			<g id="shape1057-48" v:mID="1057" v:groupContext="shape" v:layerMember="1" transform="translate(109.028,-119.205)">
				<title>Dynamic connector</title>
				<path d="M0 333.07 L122.1 333.07" class="st8"/>
			</g>
			<g id="shape1058-51" v:mID="1058" v:groupContext="shape" v:layerMember="1" transform="translate(109.028,-119.126)">
				<title>Dynamic connector.21</title>
				<path d="M0 340.16 L58.32 389.61" class="st8"/>
			</g>
			<g id="shape1059-54" v:mID="1059" v:groupContext="shape" v:layerMember="1" transform="translate(185.669,-72.3622)">
				<title>Dynamic connector.22</title>
				<path d="M0 340.16 L45.46 294.68" class="st8"/>
			</g>
			<g id="shape1060-57" v:mID="1060" v:groupContext="shape" transform="translate(234.901,-139.26)">
				<title>Lock.23</title>
				<v:userDefs>
					<v:ud v:nameU="msvShapeCategories" v:prompt="" v:val="VT4(Icon)"/>
					<v:ud v:nameU="visVersion" v:prompt="" v:val="VT0(15):26"/>
				</v:userDefs>
				<path d="M5.49 335.82 C5.49 336.14 5.29 336.42 5.01 336.54 L5.22 338.21 L4.14 338.21 L4.35 336.54 C4.07 336.42 3.87
							 336.14 3.87 335.82 C3.87 335.38 4.23 335.02 4.68 335.02 C5.13 335.02 5.49 335.38 5.49 335.82 ZM8.64
							 339.09 L8.64 334.13 C8.64 333.94 8.48 333.78 8.28 333.78 L1.08 333.78 C0.88 333.78 0.72 333.94 0.72
							 334.13 L0.72 339.09 C0.72 339.29 0.88 339.45 1.08 339.45 L8.28 339.45 C8.48 339.45 8.64 339.29 8.64
							 339.09 ZM5.76 331.77 C5.73 331.32 5.25 330.94 4.68 330.94 C4.1 330.94 3.63 331.34 3.61 331.84 L3.6 331.84
							 L3.6 333.07 L5.76 333.07 L5.76 331.77 ZM2.16 331.74 C2.16 331.74 2.16 332.37 2.16 333.07 L2.88 333.07
							 C2.88 332.37 2.88 331.74 2.88 331.74 L2.89 331.81 C2.93 330.93 3.72 330.24 4.68 330.24 C5.64 330.24
							 6.43 330.91 6.48 331.74 C6.48 331.74 6.48 332.37 6.48 333.07 L7.2 333.07 C7.2 332.37 7.2 331.74 7.2
							 331.74 C7.13 330.51 6.03 329.53 4.68 329.53 C3.33 329.53 2.23 330.51 2.17 331.77 L2.16 331.74 ZM8.28
							 333.07 C8.88 333.07 9.36 333.55 9.36 334.13 L9.36 339.09 C9.36 339.68 8.88 340.16 8.28 340.16 L1.08
							 340.16 C0.48 340.16 0 339.68 0 339.09 L0 334.13 C0 333.55 0.48 333.07 1.08 333.07 L1.44 333.07 L1.44
							 331.74 L1.45 331.74 C1.53 330.11 2.94 328.82 4.68 328.82 C6.42 328.82 7.83 330.11 7.91 331.74 L7.92
							 331.74 L7.92 333.07 L8.28 333.07 Z" class="st6"/>
			</g>
			<g id="shape1061-59" v:mID="1061" v:groupContext="shape" transform="translate(173.04,-25.0236)">
				<title>Lock.24</title>
				<v:userDefs>
					<v:ud v:nameU="msvShapeCategories" v:prompt="" v:val="VT4(Icon)"/>
					<v:ud v:nameU="visVersion" v:prompt="" v:val="VT0(15):26"/>
				</v:userDefs>
				<path d="M5.49 335.82 C5.49 336.14 5.29 336.42 5.01 336.54 L5.22 338.21 L4.14 338.21 L4.35 336.54 C4.07 336.42 3.87
							 336.14 3.87 335.82 C3.87 335.38 4.23 335.02 4.68 335.02 C5.13 335.02 5.49 335.38 5.49 335.82 ZM8.64
							 339.09 L8.64 334.13 C8.64 333.94 8.48 333.78 8.28 333.78 L1.08 333.78 C0.88 333.78 0.72 333.94 0.72
							 334.13 L0.72 339.09 C0.72 339.29 0.88 339.45 1.08 339.45 L8.28 339.45 C8.48 339.45 8.64 339.29 8.64
							 339.09 ZM5.76 331.77 C5.73 331.32 5.25 330.94 4.68 330.94 C4.1 330.94 3.63 331.34 3.61 331.84 L3.6 331.84
							 L3.6 333.07 L5.76 333.07 L5.76 331.77 ZM2.16 331.74 C2.16 331.74 2.16 332.37 2.16 333.07 L2.88 333.07
							 C2.88 332.37 2.88 331.74 2.88 331.74 L2.89 331.81 C2.93 330.93 3.72 330.24 4.68 330.24 C5.64 330.24
							 6.43 330.91 6.48 331.74 C6.48 331.74 6.48 332.37 6.48 333.07 L7.2 333.07 C7.2 332.37 7.2 331.74 7.2
							 331.74 C7.13 330.51 6.03 329.53 4.68 329.53 C3.33 329.53 2.23 330.51 2.17 331.77 L2.16 331.74 ZM8.28
							 333.07 C8.88 333.07 9.36 333.55 9.36 334.13 L9.36 339.09 C9.36 339.68 8.88 340.16 8.28 340.16 L1.08
							 340.16 C0.48 340.16 0 339.68 0 339.09 L0 334.13 C0 333.55 0.48 333.07 1.08 333.07 L1.44 333.07 L1.44
							 331.74 L1.45 331.74 C1.53 330.11 2.94 328.82 4.68 328.82 C6.42 328.82 7.83 330.11 7.91 331.74 L7.92
							 331.74 L7.92 333.07 L8.28 333.07 Z" class="st6"/>
			</g>
			<g id="shape1062-61" v:mID="1062" v:groupContext="shape" transform="translate(53.9496,-116.291)">
				<title>Sheet.1062</title>
				<desc>Node</desc>
				<v:textBlock v:margins="rect(4,4,4,4)" v:tabSpace="42.5197"/>
				<v:textRect cx="18.5528" cy="330.157" width="37.11" height="20"/>
				<rect x="0" y="320.157" width="37.1055" height="20" class="st9"/>
				<text x="5.4" y="333.46" class="st2" v:langID="2057"><v:paragraph v:horizAlign="1"/><v:tabList/>Node</text>			</g>
			<g id="shape1063-64" v:mID="1063" v:groupContext="shape" transform="translate(247.969,-116.291)">
				<title>Sheet.1063</title>
				<desc>Node</desc>
				<v:textBlock v:margins="rect(4,4,4,4)" v:tabSpace="42.5197"/>
				<v:textRect cx="18.5528" cy="330.157" width="37.11" height="20"/>
				<rect x="0" y="320.157" width="37.1055" height="20" class="st9"/>
				<text x="5.4" y="333.46" class="st3" v:langID="2057"><v:paragraph v:horizAlign="1"/><v:tabList/>Node</text>			</g>
			<g id="shape1064-67" v:mID="1064" v:groupContext="shape" transform="translate(158.613,-31.2598)">
				<title>Sheet.1064</title>
				<desc>Node</desc>
				<v:textBlock v:margins="rect(4,4,4,4)" v:tabSpace="42.5197"/>
				<v:textRect cx="18.5528" cy="330.157" width="37.11" height="20"/>
				<rect x="0" y="320.157" width="37.1055" height="20" class="st9"/>
				<text x="5.4" y="333.46" class="st3" v:langID="2057"><v:paragraph v:horizAlign="1"/><v:tabList/>Node</text>			</g>
			<g id="shape1065-70" v:mID="1065" v:groupContext="shape" transform="translate(100.992,6.21524)">
				<title>Sheet.1065</title>
				<desc>CCF Network</desc>
				<v:textBlock v:margins="rect(4,4,4,4)" v:tabSpace="42.5197"/>
				<v:textRect cx="76" cy="330.157" width="152" height="20"/>
				<rect x="0" y="320.157" width="152" height="20" class="st9"/>
				<text x="40" y="333.76" class="st10" v:langID="2057"><v:paragraph v:horizAlign="1"/><v:tabList/>CCF Network</text>			</g>
			<g id="group1066-73" transform="translate(69.0083,-56.2664)" v:mID="1066" v:groupContext="group">
				<title>User.57</title>
				<desc>Operator</desc>
				<g id="shape1067-74" v:mID="1067" v:groupContext="shape">
					<title>Sheet.1067</title>
					<path d="M22.74 340.16 L0 340.16 L0 334.58 C0 333.75 0.43 332.91 1.14 332.35 C2.7 331.24 4.69 330.26 6.68 329.71
								 C8.24 329.29 9.81 329.01 11.37 329.01 C13.08 329.01 14.64 329.29 16.06 329.71 C18.05 330.26 20.04
								 331.1 21.6 332.35 C22.31 332.91 22.74 333.75 22.74 334.58 L22.74 340.16 ZM17.06 322.04 A5.68504
								 5.57357 0 1 1 5.69 322.04 A5.68504 5.57357 0 1 1 17.06 322.04 Z" class="st1"/>
				</g>
				<g id="shape1066-76" v:mID="1066" v:groupContext="groupContent">
					<v:textBlock v:margins="rect(4,4,4,4)" v:tabSpace="42.5197"/>
					<v:textRect cx="11.3701" cy="350.759" width="54.47" height="21.2037"/>
					<text x="-10.33" y="354.06" class="st3" v:langID="2057"><v:paragraph v:horizAlign="1"/><v:tabList/>Operator</text>				</g>
			</g>
			<g id="group1068-78" transform="translate(184.664,-135.291)" v:mID="1068" v:groupContext="group">
				<title>Sheet.1068</title>
				<g id="shape1069-79" v:mID="1069" v:groupContext="shape">
					<title>Rectangle</title>
					<v:userDefs>
						<v:ud v:nameU="visVersion" v:val="VT0(15):26"/>
					</v:userDefs>
					<rect x="0" y="328.819" width="12.3685" height="11.3386" class="st11"/>
				</g>
				<g id="shape1070-81" v:mID="1070" v:groupContext="shape" transform="translate(12.3685,-5.68434E-14)">
					<title>Rectangle.62</title>
					<v:userDefs>
						<v:ud v:nameU="visVersion" v:val="VT0(15):26"/>
					</v:userDefs>
					<rect x="0" y="328.819" width="12.3685" height="11.3386" class="st11"/>
				</g>
				<g id="shape1071-83" v:mID="1071" v:groupContext="shape" transform="translate(24.737,0)">
					<title>Rectangle.63</title>
					<v:userDefs>
						<v:ud v:nameU="visVersion" v:val="VT0(15):26"/>
					</v:userDefs>
					<rect x="0" y="328.819" width="12.3685" height="11.3386" class="st11"/>
				</g>
			</g>
			<g id="group1072-85" transform="translate(192.628,-56.8425)" v:mID="1072" v:groupContext="group">
				<title>Sheet.1072</title>
				<g id="shape1073-86" v:mID="1073" v:groupContext="shape">
					<title>Rectangle</title>
					<v:userDefs>
						<v:ud v:nameU="visVersion" v:val="VT0(15):26"/>
					</v:userDefs>
					<rect x="0" y="328.819" width="12.3685" height="11.3386" class="st11"/>
				</g>
				<g id="shape1074-88" v:mID="1074" v:groupContext="shape" transform="translate(12.3685,0)">
					<title>Rectangle.62</title>
					<v:userDefs>
						<v:ud v:nameU="visVersion" v:val="VT0(15):26"/>
					</v:userDefs>
					<rect x="0" y="328.819" width="12.3685" height="11.3386" class="st11"/>
				</g>
				<g id="shape1075-90" v:mID="1075" v:groupContext="shape" transform="translate(24.737,0)">
					<title>Rectangle.63</title>
					<v:userDefs>
						<v:ud v:nameU="visVersion" v:val="VT0(15):26"/>
					</v:userDefs>
					<rect x="0" y="328.819" width="12.3685" height="11.3386" class="st11"/>
				</g>
			</g>
			<g id="shape1076-92" v:mID="1076" v:groupContext="shape" transform="translate(212.41,-151.732)">
				<title>Lock.86</title>
				<v:userDefs>
					<v:ud v:nameU="msvShapeCategories" v:prompt="" v:val="VT4(Icon)"/>
					<v:ud v:nameU="visVersion" v:prompt="" v:val="VT0(15):26"/>
				</v:userDefs>
				<path d="M5.49 335.82 C5.49 336.14 5.29 336.42 5.01 336.54 L5.22 338.21 L4.14 338.21 L4.35 336.54 C4.07 336.42 3.87
							 336.14 3.87 335.82 C3.87 335.38 4.23 335.02 4.68 335.02 C5.13 335.02 5.49 335.38 5.49 335.82 ZM8.64
							 339.09 L8.64 334.13 C8.64 333.94 8.48 333.78 8.28 333.78 L1.08 333.78 C0.88 333.78 0.72 333.94 0.72
							 334.13 L0.72 339.09 C0.72 339.29 0.88 339.45 1.08 339.45 L8.28 339.45 C8.48 339.45 8.64 339.29 8.64
							 339.09 ZM5.76 331.77 C5.73 331.32 5.25 330.94 4.68 330.94 C4.1 330.94 3.63 331.34 3.61 331.84 L3.6 331.84
							 L3.6 333.07 L5.76 333.07 L5.76 331.77 ZM2.16 331.74 C2.16 331.74 2.16 332.37 2.16 333.07 L2.88 333.07
							 C2.88 332.37 2.88 331.74 2.88 331.74 L2.89 331.81 C2.93 330.93 3.72 330.24 4.68 330.24 C5.64 330.24
							 6.43 330.91 6.48 331.74 C6.48 331.74 6.48 332.37 6.48 333.07 L7.2 333.07 C7.2 332.37 7.2 331.74 7.2
							 331.74 C7.13 330.51 6.03 329.53 4.68 329.53 C3.33 329.53 2.23 330.51 2.17 331.77 L2.16 331.74 ZM8.28
							 333.07 C8.88 333.07 9.36 333.55 9.36 334.13 L9.36 339.09 C9.36 339.68 8.88 340.16 8.28 340.16 L1.08
							 340.16 C0.48 340.16 0 339.68 0 339.09 L0 334.13 C0 333.55 0.48 333.07 1.08 333.07 L1.44 333.07 L1.44
							 331.74 L1.45 331.74 C1.53 330.11 2.94 328.82 4.68 328.82 C6.42 328.82 7.83 330.11 7.91 331.74 L7.92
							 331.74 L7.92 333.07 L8.28 333.07 Z" class="st6"/>
			</g>
			<g id="shape1077-94" v:mID="1077" v:groupContext="shape" transform="translate(219.685,-41.2598)">
				<title>Lock.87</title>
				<v:userDefs>
					<v:ud v:nameU="msvShapeCategories" v:prompt="" v:val="VT4(Icon)"/>
					<v:ud v:nameU="visVersion" v:prompt="" v:val="VT0(15):26"/>
				</v:userDefs>
				<path d="M5.49 335.82 C5.49 336.14 5.29 336.42 5.01 336.54 L5.22 338.21 L4.14 338.21 L4.35 336.54 C4.07 336.42 3.87
							 336.14 3.87 335.82 C3.87 335.38 4.23 335.02 4.68 335.02 C5.13 335.02 5.49 335.38 5.49 335.82 ZM8.64
							 339.09 L8.64 334.13 C8.64 333.94 8.48 333.78 8.28 333.78 L1.08 333.78 C0.88 333.78 0.72 333.94 0.72
							 334.13 L0.72 339.09 C0.72 339.29 0.88 339.45 1.08 339.45 L8.28 339.45 C8.48 339.45 8.64 339.29 8.64
							 339.09 ZM5.76 331.77 C5.73 331.32 5.25 330.94 4.68 330.94 C4.1 330.94 3.63 331.34 3.61 331.84 L3.6 331.84
							 L3.6 333.07 L5.76 333.07 L5.76 331.77 ZM2.16 331.74 C2.16 331.74 2.16 332.37 2.16 333.07 L2.88 333.07
							 C2.88 332.37 2.88 331.74 2.88 331.74 L2.89 331.81 C2.93 330.93 3.72 330.24 4.68 330.24 C5.64 330.24
							 6.43 330.91 6.48 331.74 C6.48 331.74 6.48 332.37 6.48 333.07 L7.2 333.07 C7.2 332.37 7.2 331.74 7.2
							 331.74 C7.13 330.51 6.03 329.53 4.68 329.53 C3.33 329.53 2.23 330.51 2.17 331.77 L2.16 331.74 ZM8.28
							 333.07 C8.88 333.07 9.36 333.55 9.36 334.13 L9.36 339.09 C9.36 339.68 8.88 340.16 8.28 340.16 L1.08
							 340.16 C0.48 340.16 0 339.68 0 339.09 L0 334.13 C0 333.55 0.48 333.07 1.08 333.07 L1.44 333.07 L1.44
							 331.74 L1.45 331.74 C1.53 330.11 2.94 328.82 4.68 328.82 C6.42 328.82 7.83 330.11 7.91 331.74 L7.92
							 331.74 L7.92 333.07 L8.28 333.07 Z" class="st6"/>
			</g>
		</g>
		<g id="group1078-96" transform="translate(275.321,-196.236)" v:mID="1078" v:groupContext="group">
			<title>Sheet.1078</title>
			<g id="group1079-97" transform="translate(-5.19584E-14,0.283455)" v:mID="1079" v:groupContext="group">
				<title>Sheet.1079</title>
				<g id="shape1080-98" v:mID="1080" v:groupContext="shape">
					<title>Rectangle</title>
					<v:userDefs>
						<v:ud v:nameU="visVersion" v:val="VT0(15):26"/>
					</v:userDefs>
					<rect x="0" y="328.819" width="12.3685" height="11.3386" class="st11"/>
				</g>
				<g id="shape1081-100" v:mID="1081" v:groupContext="shape" transform="translate(12.3685,0)">
					<title>Rectangle.62</title>
					<v:userDefs>
						<v:ud v:nameU="visVersion" v:val="VT0(15):26"/>
					</v:userDefs>
					<rect x="0" y="328.819" width="12.3685" height="11.3386" class="st11"/>
				</g>
				<g id="shape1082-102" v:mID="1082" v:groupContext="shape" transform="translate(24.737,0)">
					<title>Rectangle.63</title>
					<v:userDefs>
						<v:ud v:nameU="visVersion" v:val="VT0(15):26"/>
					</v:userDefs>
					<rect x="0" y="328.819" width="12.3685" height="11.3386" class="st11"/>
				</g>
			</g>
			<g id="shape1083-104" v:mID="1083" v:groupContext="shape" transform="translate(27.0984,-13.8898)">
				<title>Lock.85</title>
				<v:userDefs>
					<v:ud v:nameU="msvShapeCategories" v:prompt="" v:val="VT4(Icon)"/>
					<v:ud v:nameU="visVersion" v:prompt="" v:val="VT0(15):26"/>
				</v:userDefs>
				<path d="M5.49 335.82 C5.49 336.14 5.29 336.42 5.01 336.54 L5.22 338.21 L4.14 338.21 L4.35 336.54 C4.07 336.42 3.87
							 336.14 3.87 335.82 C3.87 335.38 4.23 335.02 4.68 335.02 C5.13 335.02 5.49 335.38 5.49 335.82 ZM8.64
							 339.09 L8.64 334.13 C8.64 333.94 8.48 333.78 8.28 333.78 L1.08 333.78 C0.88 333.78 0.72 333.94 0.72
							 334.13 L0.72 339.09 C0.72 339.29 0.88 339.45 1.08 339.45 L8.28 339.45 C8.48 339.45 8.64 339.29 8.64
							 339.09 ZM5.76 331.77 C5.73 331.32 5.25 330.94 4.68 330.94 C4.1 330.94 3.63 331.34 3.61 331.84 L3.6 331.84
							 L3.6 333.07 L5.76 333.07 L5.76 331.77 ZM2.16 331.74 C2.16 331.74 2.16 332.37 2.16 333.07 L2.88 333.07
							 C2.88 332.37 2.88 331.74 2.88 331.74 L2.89 331.81 C2.93 330.93 3.72 330.24 4.68 330.24 C5.64 330.24
							 6.43 330.91 6.48 331.74 C6.48 331.74 6.48 332.37 6.48 333.07 L7.2 333.07 C7.2 332.37 7.2 331.74 7.2
							 331.74 C7.13 330.51 6.03 329.53 4.68 329.53 C3.33 329.53 2.23 330.51 2.17 331.77 L2.16 331.74 ZM8.28
							 333.07 C8.88 333.07 9.36 333.55 9.36 334.13 L9.36 339.09 C9.36 339.68 8.88 340.16 8.28 340.16 L1.08
							 340.16 C0.48 340.16 0 339.68 0 339.09 L0 334.13 C0 333.55 0.48 333.07 1.08 333.07 L1.44 333.07 L1.44
							 331.74 L1.45 331.74 C1.53 330.11 2.94 328.82 4.68 328.82 C6.42 328.82 7.83 330.11 7.91 331.74 L7.92
							 331.74 L7.92 333.07 L8.28 333.07 Z" class="st6"/>
			</g>
		</g>
		<g id="shape1084-106" v:mID="1084" v:groupContext="shape" transform="translate(267.496,-223.087)">
			<title>Sheet.1084</title>
			<desc>Replicated Encrypted Ledger</desc>
			<v:textBlock v:margins="rect(4,4,4,4)" v:tabSpace="42.5197"/>
			<v:textRect cx="32.0472" cy="330.157" width="64.1" height="20"/>
			<rect x="0" y="320.157" width="64.0945" height="20" class="st9"/>
			<text x="15.51" y="328.06" class="st12" v:langID="2057"><v:paragraph v:horizAlign="1"/><v:tabList/>Replicated <tspan
						x="4.42" dy="1.2em" class="st4">Encrypted Ledger</tspan></text>		</g>
		<g id="shape1085-110" v:mID="1085" v:groupContext="shape" v:layerMember="1" transform="translate(85.0711,-226)">
			<title>Dynamic connector</title>
			<desc>Governance Transactions</desc>
			<v:textBlock v:margins="rect(4,4,4,4)" v:tabSpace="42.5197"/>
			<v:textRect cx="89.6825" cy="333.071" width="123.56" height="18.8036"/>
			<path d="M0 333.07 L173.85 333.07" class="st13"/>
			<rect v:rectContext="textBkgnd" x="35.6561" y="327.671" width="108.053" height="10.7998" class="st15"/>
			<text x="40.66" y="335.77" class="st16" v:langID="2057"><v:paragraph v:horizAlign="1"/><v:tabList/>Governance Transactions    </text>		</g>
		<g id="shape1086-118" v:mID="1086" v:groupContext="shape" v:layerMember="1" transform="translate(61.4962,-112.646)">
			<title>Dynamic connector.100</title>
			<desc>Business Transactions</desc>
			<v:textBlock v:margins="rect(4,4,4,4)" v:tabSpace="42.5197"/>
			<v:textRect cx="59.7163" cy="333.071" width="99.6" height="17.6036"/>
			<path d="M0 333.07 L113.92 333.07" class="st13"/>
			<rect v:rectContext="textBkgnd" x="17.2535" y="328.271" width="84.9257" height="9.59985" class="st15"/>
			<text x="21.7" y="335.47" class="st17" v:langID="2057"><v:paragraph v:horizAlign="1"/><v:tabList/>Business Transactions    </text>		</g>
		<g id="shape1087-125" v:mID="1087" v:groupContext="shape" v:layerMember="1" transform="translate(260.094,-136.647)">
			<title>Dynamic connector.1000</title>
			<path d="M1.21 340.16 L1.21 301.53 L7.45 301.53" class="st13"/>
		</g>
		<g id="shape1088-130" v:mID="1088" v:groupContext="shape" transform="translate(221.591,-150.803)">
			<title>Sheet.1088</title>
			<desc>start</desc>
			<v:textBlock v:margins="rect(4,4,4,4)" v:tabSpace="42.5197"/>
			<v:textRect cx="18.5528" cy="330.157" width="37.11" height="20"/>
			<rect x="0" y="320.157" width="37.1055" height="20" class="st9"/>
			<text x="10.77" y="332.56" class="st17" v:langID="1033"><v:paragraph v:horizAlign="1"/><v:tabList/>start</text>		</g>
		<g id="shape1089-133" v:mID="1089" v:groupContext="shape" transform="translate(299.544,-108.362)">
			<title>Sheet.1089</title>
			<desc>join</desc>
			<v:textBlock v:margins="rect(4,4,4,4)" v:tabSpace="42.5197"/>
			<v:textRect cx="11.3701" cy="330.157" width="22.75" height="20"/>
			<rect x="0" y="320.157" width="22.7402" height="20" class="st9"/>
			<text x="5.14" y="332.56" class="st17" v:langID="1033"><v:paragraph v:horizAlign="1"/><v:tabList/>join</text>		</g>
		<g id="shape1090-136" v:mID="1090" v:groupContext="shape" v:layerMember="1" transform="translate(281.335,-117.626)">
			<title>Dynamic connector.1004</title>
			<path d="M0 333.07 L61.43 333.07" class="st13"/>
		</g>
		<g id="group1091-141" transform="translate(263.89,-184.047)" v:mID="1091" v:groupContext="group" v:layerMember="2">
			<title>Gears.1005</title>
			<g id="group1092-142" transform="translate(-3.93685E-13,-6.35147)" v:mID="1092" v:groupContext="group"
					v:layerMember="2">
				<title>Sheet.1092</title>
				<g id="shape1093-143" v:mID="1093" v:groupContext="shape" v:layerMember="2">
					<title>Sheet.1093</title>
					<path d="M3.67 337.5 C3.02 337.5 2.5 336.94 2.5 336.25 C2.5 335.56 3.02 335 3.67 335 C4.3 335 4.82 335.56 4.82
								 336.25 C4.83 336.94 4.3 337.5 3.67 337.5 ZM5.93 333.16 L4.99 333.67 L4.42 333.42 L4.05 332.34 L3.23
								 332.34 L2.9 333.42 L2.32 333.67 L1.35 333.18 L0.77 333.81 L1.25 334.82 L1.01 335.43 L0 335.83 L0
								 336.71 L1 337.06 L1.25 337.68 L0.79 338.71 L1.38 339.34 L2.32 338.83 L2.9 339.08 L3.26 340.16 L4.09
								 340.16 L4.42 339.08 L4.99 338.83 L5.96 339.32 L6.54 338.69 L6.07 337.68 L6.31 337.06 L7.31 336.67
								 L7.31 335.78 L6.31 335.43 L6.07 334.82 L6.53 333.79 L5.93 333.16 Z" class="st18"/>
				</g>
			</g>
			<g id="group1094-145" transform="translate(5.42729,5.68434E-14)" v:mID="1094" v:groupContext="group" v:layerMember="2">
				<title>Sheet.1094</title>
				<g id="shape1095-146" v:mID="1095" v:groupContext="shape" v:layerMember="2">
					<title>Sheet.1095</title>
					<path d="M5.18 336.41 C4.26 336.41 3.52 335.61 3.52 334.64 C3.52 333.66 4.27 332.88 5.18 332.88 C6.08 332.88
								 6.81 333.66 6.81 334.64 C6.81 335.61 6.08 336.41 5.18 336.41 ZM8.38 330.27 L7.05 331 L6.23 330.64
								 L5.72 329.11 L4.56 329.11 L4.1 330.64 L3.28 331 L1.91 330.31 L1.08 331.2 L1.76 332.62 L1.43 333.49
								 L0 334.04 L0 335.29 L1.42 335.78 L1.76 336.66 L1.11 338.11 L1.95 339.01 L3.28 338.28 L4.09 338.64
								 L4.6 340.16 L5.78 340.16 L6.24 338.64 L7.04 338.28 L8.41 338.97 L9.24 338.08 L8.57 336.66 L8.9 335.78
								 L10.32 335.24 L10.32 333.98 L8.9 333.49 L8.57 332.62 L9.22 331.17 L8.38 330.27 Z" class="st18"/>
				</g>
			</g>
		</g>
		<g id="group1096-148" transform="translate(347.732,-124.236)" v:mID="1096" v:groupContext="group" v:layerMember="2">
			<title>Gears.1010</title>
			<g id="group1097-149" transform="translate(-3.93685E-13,-6.35147)" v:mID="1097" v:groupContext="group"
					v:layerMember="2">
				<title>Sheet.1097</title>
				<g id="shape1098-150" v:mID="1098" v:groupContext="shape" v:layerMember="2">
					<title>Sheet.1098</title>
					<path d="M3.67 337.5 C3.02 337.5 2.5 336.94 2.5 336.25 C2.5 335.56 3.02 335 3.67 335 C4.3 335 4.82 335.56 4.82
								 336.25 C4.83 336.94 4.3 337.5 3.67 337.5 ZM5.93 333.16 L4.99 333.67 L4.42 333.42 L4.05 332.34 L3.23
								 332.34 L2.9 333.42 L2.32 333.67 L1.35 333.18 L0.77 333.81 L1.25 334.82 L1.01 335.43 L0 335.83 L0
								 336.71 L1 337.06 L1.25 337.68 L0.79 338.71 L1.38 339.34 L2.32 338.83 L2.9 339.08 L3.26 340.16 L4.09
								 340.16 L4.42 339.08 L4.99 338.83 L5.96 339.32 L6.54 338.69 L6.07 337.68 L6.31 337.06 L7.31 336.67
								 L7.31 335.78 L6.31 335.43 L6.07 334.82 L6.53 333.79 L5.93 333.16 Z" class="st18"/>
				</g>
			</g>
			<g id="group1099-152" transform="translate(5.42729,5.68434E-14)" v:mID="1099" v:groupContext="group" v:layerMember="2">
				<title>Sheet.1099</title>
				<g id="shape1100-153" v:mID="1100" v:groupContext="shape" v:layerMember="2">
					<title>Sheet.1100</title>
					<path d="M5.18 336.41 C4.26 336.41 3.52 335.61 3.52 334.64 C3.52 333.66 4.27 332.88 5.18 332.88 C6.08 332.88
								 6.81 333.66 6.81 334.64 C6.81 335.61 6.08 336.41 5.18 336.41 ZM8.38 330.27 L7.05 331 L6.23 330.64
								 L5.72 329.11 L4.56 329.11 L4.1 330.64 L3.28 331 L1.91 330.31 L1.08 331.2 L1.76 332.62 L1.43 333.49
								 L0 334.04 L0 335.29 L1.42 335.78 L1.76 336.66 L1.11 338.11 L1.95 339.01 L3.28 338.28 L4.09 338.64
								 L4.6 340.16 L5.78 340.16 L6.24 338.64 L7.04 338.28 L8.41 338.97 L9.24 338.08 L8.57 336.66 L8.9 335.78
								 L10.32 335.24 L10.32 333.98 L8.9 333.49 L8.57 332.62 L9.22 331.17 L8.38 330.27 Z" class="st18"/>
				</g>
			</g>
		</g>
		<g id="group1101-155" transform="translate(404.551,-184.898)" v:mID="1101" v:groupContext="group" v:layerMember="2">
			<title>Gears.1015</title>
			<g id="group1102-156" transform="translate(-3.93685E-13,-6.35147)" v:mID="1102" v:groupContext="group"
					v:layerMember="2">
				<title>Sheet.1102</title>
				<g id="shape1103-157" v:mID="1103" v:groupContext="shape" v:layerMember="2">
					<title>Sheet.1103</title>
					<path d="M3.67 337.5 C3.02 337.5 2.5 336.94 2.5 336.25 C2.5 335.56 3.02 335 3.67 335 C4.3 335 4.82 335.56 4.82
								 336.25 C4.83 336.94 4.3 337.5 3.67 337.5 ZM5.93 333.16 L4.99 333.67 L4.42 333.42 L4.05 332.34 L3.23
								 332.34 L2.9 333.42 L2.32 333.67 L1.35 333.18 L0.77 333.81 L1.25 334.82 L1.01 335.43 L0 335.83 L0
								 336.71 L1 337.06 L1.25 337.68 L0.79 338.71 L1.38 339.34 L2.32 338.83 L2.9 339.08 L3.26 340.16 L4.09
								 340.16 L4.42 339.08 L4.99 338.83 L5.96 339.32 L6.54 338.69 L6.07 337.68 L6.31 337.06 L7.31 336.67
								 L7.31 335.78 L6.31 335.43 L6.07 334.82 L6.53 333.79 L5.93 333.16 Z" class="st18"/>
				</g>
			</g>
			<g id="group1104-159" transform="translate(5.42729,5.68434E-14)" v:mID="1104" v:groupContext="group" v:layerMember="2">
				<title>Sheet.1104</title>
				<g id="shape1105-160" v:mID="1105" v:groupContext="shape" v:layerMember="2">
					<title>Sheet.1105</title>
					<path d="M5.18 336.41 C4.26 336.41 3.52 335.61 3.52 334.64 C3.52 333.66 4.27 332.88 5.18 332.88 C6.08 332.88
								 6.81 333.66 6.81 334.64 C6.81 335.61 6.08 336.41 5.18 336.41 ZM8.38 330.27 L7.05 331 L6.23 330.64
								 L5.72 329.11 L4.56 329.11 L4.1 330.64 L3.28 331 L1.91 330.31 L1.08 331.2 L1.76 332.62 L1.43 333.49
								 L0 334.04 L0 335.29 L1.42 335.78 L1.76 336.66 L1.11 338.11 L1.95 339.01 L3.28 338.28 L4.09 338.64
								 L4.6 340.16 L5.78 340.16 L6.24 338.64 L7.04 338.28 L8.41 338.97 L9.24 338.08 L8.57 336.66 L8.9 335.78
								 L10.32 335.24 L10.32 333.98 L8.9 333.49 L8.57 332.62 L9.22 331.17 L8.38 330.27 Z" class="st18"/>
				</g>
			</g>
		</g>
		<g id="shape1106-162" v:mID="1106" v:groupContext="shape" transform="translate(277.289,-158.252)">
			<title>Lock.24</title>
			<v:userDefs>
				<v:ud v:nameU="msvShapeCategories" v:prompt="" v:val="VT4(Icon)"/>
				<v:ud v:nameU="visVersion" v:prompt="" v:val="VT0(15):26"/>
			</v:userDefs>
			<path d="M5.49 335.82 C5.49 336.14 5.29 336.42 5.01 336.54 L5.22 338.21 L4.14 338.21 L4.35 336.54 C4.07 336.42 3.87 336.14
						 3.87 335.82 C3.87 335.38 4.23 335.02 4.68 335.02 C5.13 335.02 5.49 335.38 5.49 335.82 ZM8.64 339.09 L8.64
						 334.13 C8.64 333.94 8.48 333.78 8.28 333.78 L1.08 333.78 C0.88 333.78 0.72 333.94 0.72 334.13 L0.72 339.09
						 C0.72 339.29 0.88 339.45 1.08 339.45 L8.28 339.45 C8.48 339.45 8.64 339.29 8.64 339.09 ZM5.76 331.77 C5.73
						 331.32 5.25 330.94 4.68 330.94 C4.1 330.94 3.63 331.34 3.61 331.84 L3.6 331.84 L3.6 333.07 L5.76 333.07
						 L5.76 331.77 ZM2.16 331.74 C2.16 331.74 2.16 332.37 2.16 333.07 L2.88 333.07 C2.88 332.37 2.88 331.74 2.88
						 331.74 L2.89 331.81 C2.93 330.93 3.72 330.24 4.68 330.24 C5.64 330.24 6.43 330.91 6.48 331.74 C6.48 331.74
						 6.48 332.37 6.48 333.07 L7.2 333.07 C7.2 332.37 7.2 331.74 7.2 331.74 C7.13 330.51 6.03 329.53 4.68 329.53
						 C3.33 329.53 2.23 330.51 2.17 331.77 L2.16 331.74 ZM8.28 333.07 C8.88 333.07 9.36 333.55 9.36 334.13 L9.36
						 339.09 C9.36 339.68 8.88 340.16 8.28 340.16 L1.08 340.16 C0.48 340.16 0 339.68 0 339.09 L0 334.13 C0 333.55
						 0.48 333.07 1.08 333.07 L1.44 333.07 L1.44 331.74 L1.45 331.74 C1.53 330.11 2.94 328.82 4.68 328.82 C6.42
						 328.82 7.83 330.11 7.91 331.74 L7.92 331.74 L7.92 333.07 L8.28 333.07 Z" class="st6"/>
		</g>
	</g>
</svg>
