<svg width="605" height="605" xmlns="http://www.w3.org/2000/svg" xmlns:xlink="http://www.w3.org/1999/xlink" overflow="hidden"><defs><clipPath id="clip0"><rect x="0" y="0" width="605" height="605"/></clipPath></defs><g clip-path="url(#clip0)"><rect x="0" y="0" width="605" height="605" fill="#FFFFFF"/><path d="M116.5 305.5C116.5 290.036 128.812 277.5 144 277.5 159.188 277.5 171.5 290.036 171.5 305.5 171.5 320.964 159.188 333.5 144 333.5 128.812 333.5 116.5 320.964 116.5 305.5Z" stroke="#2F528F" stroke-width="1.33407" stroke-miterlimit="8" fill="#4472C4" fill-rule="evenodd"/><text fill="#FFFFFF" font-family="Calibri,Calibri_MSFontService,sans-serif" font-weight="400" font-size="16" transform="translate(134.944 311)">H1</text><path d="M178.5 305.5C178.5 290.036 191.036 277.5 206.5 277.5 221.964 277.5 234.5 290.036 234.5 305.5 234.5 320.964 221.964 333.5 206.5 333.5 191.036 333.5 178.5 320.964 178.5 305.5Z" stroke="#2F528F" stroke-width="1.33407" stroke-miterlimit="8" fill="#4472C4" fill-rule="evenodd"/><text fill="#FFFFFF" font-family="Calibri,Calibri_MSFontService,sans-serif" font-weight="400" font-size="16" transform="translate(197.389 311)">H2</text><path d="M241.5 305.5C241.5 290.036 253.812 277.5 269 277.5 284.188 277.5 296.5 290.036 296.5 305.5 296.5 320.964 284.188 333.5 269 333.5 253.812 333.5 241.5 320.964 241.5 305.5Z" stroke="#2F528F" stroke-width="1.33407" stroke-miterlimit="8" fill="#4472C4" fill-rule="evenodd"/><text fill="#FFFFFF" font-family="Calibri,Calibri_MSFontService,sans-serif" font-weight="400" font-size="16" transform="translate(259.834 311)">H3</text><path d="M303.5 305.5C303.5 290.036 316.036 277.5 331.5 277.5 346.964 277.5 359.5 290.036 359.5 305.5 359.5 320.964 346.964 333.5 331.5 333.5 316.036 333.5 303.5 320.964 303.5 305.5Z" stroke="#2F528F" stroke-width="1.33407" stroke-miterlimit="8" fill="#4472C4" fill-rule="evenodd"/><text fill="#FFFFFF" font-family="Calibri,Calibri_MSFontService,sans-serif" font-weight="400" font-size="16" transform="translate(322.279 311)">H4</text><path d="M151.5 237.5C151.5 222.036 163.812 209.5 179 209.5 194.188 209.5 206.5 222.036 206.5 237.5 206.5 252.964 194.188 265.5 179 265.5 163.812 265.5 151.5 252.964 151.5 237.5Z" stroke="#2F528F" stroke-width="1.33407" stroke-miterlimit="8" fill="#4472C4" fill-rule="evenodd"/><text fill="#FFFFFF" font-family="Calibri,Calibri_MSFontService,sans-serif" font-weight="400" font-size="12" transform="translate(168.827 241)">H12</text><path d="M269.5 237.5C269.5 222.036 281.812 209.5 297 209.5 312.188 209.5 324.5 222.036 324.5 237.5 324.5 252.964 312.188 265.5 297 265.5 281.812 265.5 269.5 252.964 269.5 237.5Z" stroke="#2F528F" stroke-width="1.33407" stroke-miterlimit="8" fill="#4472C4" fill-rule="evenodd"/><text fill="#FFFFFF" font-family="Calibri,Calibri_MSFontService,sans-serif" font-weight="400" font-size="12" transform="translate(286.561 241)">H34</text><path d="M0 0 15.2522 20.865" stroke="#4472C4" stroke-width="0.667034" stroke-miterlimit="8" fill="none" fill-rule="evenodd" transform="matrix(1 0 0 -1 144.5 277.365)"/><path d="M206.597 277.365 198.5 256.5" stroke="#4472C4" stroke-width="0.667034" stroke-miterlimit="8" fill="none" fill-rule="evenodd"/><path d="M0 0 8.09664 20.865" stroke="#4472C4" stroke-width="0.667034" stroke-miterlimit="8" fill="none" fill-rule="evenodd" transform="matrix(1 0 0 -1 269.5 277.365)"/><path d="M331.752 277.365 316.5 256.5" stroke="#4472C4" stroke-width="0.667034" stroke-miterlimit="8" fill="none" fill-rule="evenodd"/><path d="M0 0 48.0483 29.3576" stroke="#4472C4" stroke-width="0.667034" stroke-miterlimit="8" fill="none" fill-rule="evenodd" transform="matrix(1 0 0 -1 178.5 209.858)"/><path d="M366.5 305.5C366.5 290.036 378.812 277.5 394 277.5 409.188 277.5 421.5 290.036 421.5 305.5 421.5 320.964 409.188 333.5 394 333.5 378.812 333.5 366.5 320.964 366.5 305.5Z" stroke="#2F5597" stroke-width="1.33407" stroke-miterlimit="8" fill="#4472C4" fill-rule="evenodd"/><text fill="#FFFFFF" font-family="Calibri,Calibri_MSFontService,sans-serif" font-weight="400" font-size="16" transform="translate(384.724 311)">H5</text><path d="M116.5 436C116.5 420.812 128.812 408.5 144 408.5 159.188 408.5 171.5 420.812 171.5 436 171.5 451.188 159.188 463.5 144 463.5 128.812 463.5 116.5 451.188 116.5 436Z" stroke="#2F528F" stroke-width="1.33407" stroke-miterlimit="8" fill="#4472C4" fill-rule="evenodd" fill-opacity="0.6"/><text fill="#FFFFFF" font-family="Calibri,Calibri_MSFontService,sans-serif" font-weight="400" font-size="16" transform="translate(136.051 432)">Tx<tspan font-size="16" x="3.33517" y="18">1</tspan></text><path d="M178.5 436C178.5 420.812 191.036 408.5 206.5 408.5 221.964 408.5 234.5 420.812 234.5 436 234.5 451.188 221.964 463.5 206.5 463.5 191.036 463.5 178.5 451.188 178.5 436Z" stroke="#2F528F" stroke-width="1.33407" stroke-miterlimit="8" fill="#4472C4" fill-rule="evenodd" fill-opacity="0.6"/><text fill="#FFFFFF" font-family="Calibri,Calibri_MSFontService,sans-serif" font-weight="400" font-size="16" transform="translate(198.89 432)">Tx<tspan font-size="16" x="3.33517" y="18">2</tspan></text><path d="M242.5 436C242.5 420.812 254.812 408.5 270 408.5 285.188 408.5 297.5 420.812 297.5 436 297.5 451.188 285.188 463.5 270 463.5 254.812 463.5 242.5 451.188 242.5 436Z" stroke="#2F528F" stroke-width="1.33407" stroke-miterlimit="8" fill="#4472C4" fill-rule="evenodd" fill-opacity="0.6"/><text fill="#FFFFFF" font-family="Calibri,Calibri_MSFontService,sans-serif" font-weight="400" font-size="16" transform="translate(262.122 432)">Tx<tspan font-size="16" x="3.33517" y="18">3</tspan></text><path d="M303.5 436.5C303.5 421.036 316.036 408.5 331.5 408.5 346.964 408.5 359.5 421.036 359.5 436.5 359.5 451.964 346.964 464.5 331.5 464.5 316.036 464.5 303.5 451.964 303.5 436.5Z" stroke="#2F528F" stroke-width="1.33407" stroke-miterlimit="8" fill="#4472C4" fill-rule="evenodd" fill-opacity="0.6"/><text fill="#FFFFFF" font-family="Calibri,Calibri_MSFontService,sans-serif" font-weight="400" font-size="16" transform="translate(323.779 432)">Tx<tspan font-size="16" x="3.33514" y="18">4</tspan></text><rect x="84" y="395" width="424" height="149" stroke="#4472C4" stroke-width="4.0022" stroke-miterlimit="8" fill="none"/><text fill="#2F5597" font-family="Calibri,Calibri_MSFontService,sans-serif" font-weight="700" font-size="31" transform="translate(98.4788 524)">Ledger</text><path d="M0 0 0.393393 75.4971" stroke="#4472C4" stroke-width="0.667034" stroke-miterlimit="8" stroke-dasharray="2.66814 2.0011" fill="none" fill-rule="evenodd" transform="matrix(-1 0 0 1 143.893 333.5)"/><path d="M206.5 333.5 206.5 408.997" stroke="#4472C4" stroke-width="0.667034" stroke-miterlimit="8" stroke-dasharray="2.66814 2.0011" fill="none" fill-rule="evenodd"/><path d="M269.5 333.5 270.287 408.997" stroke="#4472C4" stroke-width="0.667034" stroke-miterlimit="8" stroke-dasharray="2.66814 2.0011" fill="none" fill-rule="evenodd"/><path d="M331.5 333.5 331.5 409.327" stroke="#4472C4" stroke-width="0.667034" stroke-miterlimit="8" stroke-dasharray="2.66814 2.0011" fill="none" fill-rule="evenodd"/><path d="M366.5 436C366.5 420.812 379.036 408.5 394.5 408.5 409.964 408.5 422.5 420.812 422.5 436 422.5 451.188 409.964 463.5 394.5 463.5 379.036 463.5 366.5 451.188 366.5 436Z" stroke="#2F528F" stroke-width="1.33407" stroke-miterlimit="8" fill="#4472C4" fill-rule="evenodd" fill-opacity="0.6"/><text fill="#FFFFFF" font-family="Calibri,Calibri_MSFontService,sans-serif" font-weight="400" font-size="16" transform="translate(386.774 432)">Tx<tspan font-size="16" x="3.33517" y="18">5</tspan></text><path d="M393.5 333.5 394.049 408.997" stroke="#4472C4" stroke-width="0.667034" stroke-miterlimit="8" stroke-dasharray="2.66814 2.0011" fill="none" fill-rule="evenodd"/><path d="M218.5 161C218.5 145.812 231.036 133.5 246.5 133.5 261.964 133.5 274.5 145.812 274.5 161 274.5 176.188 261.964 188.5 246.5 188.5 231.036 188.5 218.5 176.188 218.5 161Z" stroke="#2F528F" stroke-width="1.33407" stroke-miterlimit="8" fill="#4472C4" fill-rule="evenodd"/><text fill="#FFFFFF" font-family="Calibri,Calibri_MSFontService,sans-serif" font-weight="400" font-size="6" transform="translate(237.424 162)">H1234</text><path d="M297.09 209.858 266.5 180.5" stroke="#4472C4" stroke-width="0.667034" stroke-miterlimit="8" fill="none" fill-rule="evenodd"/><path d="M293.5 88C293.5 72.8122 305.812 60.5 321 60.5 336.188 60.5 348.5 72.8122 348.5 88 348.5 103.188 336.188 115.5 321 115.5 305.812 115.5 293.5 103.188 293.5 88Z" stroke="#ED7D31" stroke-width="1.33407" stroke-miterlimit="8" fill="#ED7D31" fill-rule="evenodd"/><text fill="#FFFFFF" font-family="Calibri,Calibri_MSFontService,sans-serif" font-weight="400" font-size="9" transform="translate(311.327 85)">Root <tspan font-size="9" x="1.66757" y="11">at 5</tspan></text><path d="M0 0 35.0576 34.0298" stroke="#4472C4" stroke-width="0.667034" stroke-miterlimit="8" fill="none" fill-rule="evenodd" transform="matrix(1 0 0 -1 266.5 141.53)"/><path d="M394.182 278.041 340.5 107.5" stroke="#4472C4" stroke-width="0.667034" stroke-miterlimit="8" fill="none" fill-rule="evenodd"/><path d="M429.5 436C429.5 420.812 441.812 408.5 457 408.5 472.188 408.5 484.5 420.812 484.5 436 484.5 451.188 472.188 463.5 457 463.5 441.812 463.5 429.5 451.188 429.5 436Z" stroke="#507E32" stroke-width="1.33407" stroke-miterlimit="8" fill="#70AD47" fill-rule="evenodd" fill-opacity="0.6"/><text fill="#FFFFFF" font-family="Calibri,Calibri_MSFontService,sans-serif" font-weight="400" font-size="16" transform="translate(447.468 432)">Sig <tspan font-size="16" x="5.08948" y="18">6</tspan></text><path d="M0-0.667034 5.33627-0.667034 5.33627 0.667034 0 0.667034ZM9.33848-0.667034 14.6748-0.667034 14.6748 0.667034 9.33848 0.667034ZM18.677-0.667034 24.0132-0.667034 24.0132 0.667034 18.677 0.667034ZM28.0154-0.667034 33.3517-0.667034 33.3517 0.667034 28.0154 0.667034ZM37.3539-0.667034 42.6902-0.667034 42.6902 0.667034 37.3539 0.667034ZM46.6924-0.667034 52.0287-0.667034 52.0287 0.667034 46.6924 0.667034ZM56.0309-0.667034 61.3671-0.667034 61.3671 0.667034 56.0309 0.667034ZM65.3693-0.667034 70.7056-0.667034 70.7056 0.667034 65.3693 0.667034ZM74.7078-0.667034 80.0441-0.667034 80.0441 0.667034 74.7078 0.667034ZM84.0463-0.667034 89.3826-0.667034 89.3826 0.667034 84.0463 0.667034ZM93.3848-0.667034 98.7211-0.667034 98.7211 0.667034 93.3848 0.667034ZM102.723-0.667034 108.06-0.667034 108.06 0.667034 102.723 0.667034ZM112.062-0.667034 117.398-0.667034 117.398 0.667034 112.062 0.667034ZM121.4-0.667034 126.736-0.667034 126.736 0.667034 121.4 0.667034ZM130.739-0.667034 136.075-0.667034 136.075 0.667034 130.739 0.667034ZM140.077-0.667034 145.413-0.667034 145.413 0.667034 140.077 0.667034ZM149.416-0.667034 154.752-0.667034 154.752 0.667034 149.416 0.667034ZM158.754-0.667034 164.09-0.667034 164.09 0.667034 158.754 0.667034ZM168.093-0.667034 173.429-0.667034 173.429 0.667034 168.093 0.667034ZM177.431-0.667034 182.767-0.667034 182.767 0.667034 177.431 0.667034ZM186.77-0.667034 192.106-0.667034 192.106 0.667034 186.77 0.667034ZM196.108-0.667034 201.444-0.667034 201.444 0.667034 196.108 0.667034ZM205.447-0.667034 210.783-0.667034 210.783 0.667034 205.447 0.667034ZM214.785-0.667034 220.121-0.667034 220.121 0.667034 214.785 0.667034ZM224.123-0.667034 229.46-0.667034 229.46 0.667034 224.123 0.667034ZM233.462-0.667034 238.798-0.667034 238.798 0.667034 233.462 0.667034ZM242.8-0.667034 248.137-0.667034 248.137 0.667034 242.8 0.667034ZM252.139-0.667034 257.475-0.667034 257.475 0.667034 252.139 0.667034ZM261.477-0.667034 266.814-0.667034 266.814 0.667034 261.477 0.667034ZM270.816-0.667034 276.152-0.667034 276.152 0.667034 270.816 0.667034ZM280.154-0.667034 285.491-0.667034 285.491 0.667034 280.154 0.667034ZM289.493-0.667034 294.829-0.667034 294.829 0.667034 289.493 0.667034ZM298.831-0.667034 304.168-0.667034 304.168 0.667034 298.831 0.667034ZM308.17-0.667034 313.506-0.667034 313.506 0.667034 308.17 0.667034ZM317.508-0.667034 321.543-0.667034 321.543 1.96864 320.209 1.96864 320.209 0 320.876 0.667034 317.508 0.667034ZM321.543 5.97085 321.543 11.3071 320.209 11.3071 320.209 5.97085ZM321.543 15.3093 321.543 20.6456 320.209 20.6456 320.209 15.3093ZM321.543 24.6478 321.543 29.9841 320.209 29.9841 320.209 24.6478ZM321.543 33.9863 321.543 39.3226 320.209 39.3226 320.209 33.9863ZM321.543 43.3248 321.543 48.661 320.209 48.661 320.209 43.3248ZM321.543 52.6632 321.543 57.9995 320.209 57.9995 320.209 52.6632ZM321.543 62.0017 321.543 67.338 320.209 67.338 320.209 62.0017ZM321.543 71.3402 321.543 76.6765 320.209 76.6765 320.209 71.3402ZM321.543 80.6787 321.543 86.015 320.209 86.015 320.209 80.6787ZM321.543 90.0172 321.543 95.3534 320.209 95.3534 320.209 90.0172ZM321.543 99.3556 321.543 101.909 320.209 101.909 320.209 99.3556ZM324.878 100.575 320.876 108.579 316.874 100.575Z" fill="#4472C4" transform="matrix(-1.83697e-16 -1 -1 1.83697e-16 457.079 408.376)"/><text fill="#4472C4" font-family="Calibri,Calibri_MSFontService,sans-serif" font-weight="400" font-size="21" transform="translate(407.201 73)">signs</text></g></svg>