<?xml version="1.0" encoding="UTF-8" standalone="no"?>
<!DOCTYPE svg PUBLIC "-//W3C//DTD SVG 1.1//EN" "http://www.w3.org/Graphics/SVG/1.1/DTD/svg11.dtd">
<!-- Generated by Microsoft Visio, SVG Export CCF diagram.svg Page-1 -->
<svg xmlns="http://www.w3.org/2000/svg" xmlns:xlink="http://www.w3.org/1999/xlink" xmlns:ev="http://www.w3.org/2001/xml-events"
		xmlns:v="http://schemas.microsoft.com/visio/2003/SVGExtensions/" width="7.32283in" height="3.30709in"
		viewBox="0 0 527.244 238.11" xml:space="preserve" color-interpolation-filters="sRGB" class="st20">
	<v:documentProperties v:langID="2057" v:metric="true" v:viewMarkup="false">
		<v:userDefs>
			<v:ud v:nameU="msvNoAutoConnect" v:val="VT0(1):26"/>
		</v:userDefs>
	</v:documentProperties>

	<style type="text/css">
	<![CDATA[
		.st1 {fill:#5d98c2;stroke:none;stroke-linecap:round;stroke-linejoin:round;stroke-width:6.375}
		.st2 {fill:#0083b9;font-family:Arial;font-size:0.916672em}
		.st3 {fill:#5d98c2;font-family:Arial;font-size:0.916672em}
		.st4 {font-size:1em}
		.st5 {fill:#ecf1f6;stroke:#ecf1f6;stroke-linecap:round;stroke-linejoin:round;stroke-width:0.25}
		.st6 {fill:#006c99;stroke:none;stroke-linecap:butt;stroke-width:0.75}
		.st7 {fill:#5d98c2;stroke:#5d98c2;stroke-linecap:round;stroke-linejoin:round;stroke-width:0.25}
		.st8 {stroke:#0083b9;stroke-dasharray:1.66346,1.18819;stroke-linecap:round;stroke-linejoin:round;stroke-width:0.237638}
		.st9 {fill:none;stroke:none;stroke-linecap:round;stroke-linejoin:round;stroke-width:0.75}
		.st10 {fill:#5d98c2;font-family:Arial;font-size:1.00001em}
		.st11 {fill:#ffffff;stroke:#13759a;stroke-linecap:round;stroke-linejoin:round;stroke-width:0.75}
		.st12 {fill:#0083b9;font-family:Arial;font-size:0.499992em}
		.st13 {marker-end:url(#mrkr4-115);stroke:#0083b9;stroke-linecap:round;stroke-linejoin:round;stroke-width:0.237638}
		.st14 {fill:#0083b9;fill-opacity:1;stroke:#0083b9;stroke-opacity:1;stroke-width:0.086174404659928}
		.st15 {fill:#ffffff;stroke:none;stroke-linecap:butt;stroke-width:7.2}
		.st16 {fill:#5d98c2;font-family:Arial;font-size:0.75em}
		.st17 {fill:#ffffff;stroke:none;stroke-linecap:butt}
		.st18 {fill:#0083b9;font-family:Arial;font-size:0.666664em}
		.st19 {fill:#ffffff;stroke:#5d98c2;stroke-linecap:round;stroke-linejoin:round;stroke-width:0.75}
		.st20 {fill:none;fill-rule:evenodd;font-size:12px;overflow:visible;stroke-linecap:square;stroke-miterlimit:3}
	]]>
	</style>

	<defs id="Markers">
		<g id="lend4">
			<path d="M 2 1 L 0 0 L 2 -1 L 2 1 " style="stroke:none"/>
		</g>
		<marker id="mrkr4-115" class="st14" v:arrowType="4" v:arrowSize="2" v:setback="23.2087" refX="-23.208747514911"
				orient="auto" markerUnits="strokeWidth" overflow="visible">
			<use xlink:href="#lend4" transform="scale(-11.604373757455,-11.604373757455) "/>
		</marker>
	</defs>
	<g v:mID="0" v:index="1" v:groupContext="foregroundPage">
		<v:userDefs>
			<v:ud v:nameU="msvThemeOrder" v:val="VT0(0):26"/>
		</v:userDefs>
		<title>Page-1</title>
		<v:pageProperties v:drawingScale="0.0393701" v:pageScale="0.0393701" v:drawingUnits="24" v:shadowOffsetX="8.50394"
				v:shadowOffsetY="-8.50394"/>
		<v:layer v:name="Common Icons" v:index="0"/>
		<v:layer v:name="Connector" v:index="1"/>
		<v:layer v:name="Azure" v:index="2"/>
		<g id="group1031-1" transform="translate(19.8271,-69.6693)" v:mID="1031" v:groupContext="group">
			<title>User.12</title>
			<desc>User</desc>
			<g id="shape1032-2" v:mID="1032" v:groupContext="shape">
				<title>Sheet.1032</title>
				<path d="M22.74 238.11 L0 238.11 L0 232.76 C0 231.96 0.43 231.15 1.14 230.62 C2.7 229.55 4.69 228.61 6.68 228.08
							 C8.24 227.68 9.81 227.41 11.37 227.41 C13.08 227.41 14.64 227.68 16.06 228.08 C18.05 228.61 20.04 229.42
							 21.6 230.62 C22.31 231.15 22.74 231.96 22.74 232.76 L22.74 238.11 ZM17.06 220.72 A5.68504 5.35063 0
							 1 1 5.69 220.72 A5.68504 5.35063 0 1 1 17.06 220.72 Z" class="st1"/>
			</g>
			<g id="shape1031-4" v:mID="1031" v:groupContext="groupContent">
				<v:textBlock v:margins="rect(4,4,4,4)" v:tabSpace="42.5197"/>
				<v:textRect cx="11.3701" cy="248.712" width="34.29" height="21.2037"/>
				<text x="-0.24" y="252.01" class="st2" v:langID="2057"><v:paragraph v:horizAlign="1"/><v:tabList/>User</text>			</g>
		</g>
		<g id="group1033-6" transform="translate(19.8271,-179.34)" v:mID="1033" v:groupContext="group">
			<title>Users</title>
			<desc>Consortium (members)</desc>
			<g id="shape1034-7" v:mID="1034" v:groupContext="shape">
				<title>Sheet.1034</title>
				<path d="M13.1 229.03 C12.66 229.38 12.43 229.61 12.1 230.07 L0 230.07 L0 224.9 C0 224.09 0.34 223.29 1.01 222.83
							 C2.46 221.79 4.14 220.99 5.94 220.41 C7.28 219.95 8.74 219.72 10.08 219.72 C11.54 219.72 12.99 220.07
							 14.22 220.41 C14.9 220.53 15.57 220.87 16.24 221.1 L16.24 221.33 C16.24 223.29 17.02 225.01 18.26 226.39
							 C16.46 226.96 14.67 227.88 13.1 229.03 ZM46.03 222.83 C46.71 223.29 47.04 224.09 47.04 224.9 L47.04
							 230.07 L34.83 230.07 C34.61 229.61 34.27 229.38 33.94 229.03 C32.59 228 30.91 227.08 28.79 226.39 C30.02
							 225.13 30.8 223.29 30.8 221.33 L30.8 221.22 C31.47 220.87 32.15 220.64 32.82 220.41 C34.16 219.95 35.62
							 219.72 36.96 219.72 C38.42 219.72 39.87 220.07 41.11 220.41 C42.9 220.87 44.69 221.68 46.03 222.83 ZM28.56
							 221.22 A5.04026 5.17107 0 1 1 18.48 221.22 A5.04026 5.17107 0 1 1 28.56 221.22 ZM33.6 238.11 L13.44
							 238.11 L13.44 232.94 C13.44 232.13 13.78 231.45 14.45 230.87 C15.9 229.84 17.58 228.92 19.38 228.46
							 C20.72 228 22.18 227.77 23.52 227.77 C24.98 227.77 26.43 228.11 27.67 228.46 C29.46 228.92 31.25 229.72
							 32.59 230.87 C33.27 231.33 33.6 232.13 33.6 232.94 L33.6 238.11 ZM42 213.17 A5.04026 5.17107 0 1 1 31.92
							 213.17 A5.04026 5.17107 0 1 1 42 213.17 ZM15.12 213.17 A5.04026 5.17107 0 1 1 5.04 213.17 A5.04026 5.17107
							 0 1 1 15.12 213.17 Z" class="st1"/>
			</g>
			<g id="shape1033-9" v:mID="1033" v:groupContext="groupContent">
				<v:textBlock v:margins="rect(4,4,4,4)" v:tabSpace="42.5197"/>
				<v:textRect cx="23.5212" cy="255.312" width="67.31" height="34.4037"/>
				<text x="-4.6" y="252.01" class="st3" v:langID="2057"><v:paragraph v:horizAlign="1"/><v:tabList/>Consortium<v:newlineChar/><tspan
							x="-3.06" dy="1.2em" class="st4">(members)</tspan></text>			</g>
		</g>
		<g id="group1035-12" transform="translate(162,-18)" v:mID="1035" v:groupContext="group">
			<title>Sheet.1035</title>
			<g id="group1036-13" transform="translate(0,-17.9974)" v:mID="1036" v:groupContext="group" v:layerMember="0">
				<v:userDefs>
					<v:ud v:nameU="visVersion" v:prompt="" v:val="VT0(17):26"/>
					<v:ud v:nameU="visAltText" v:prompt="" v:val="VT4(Cloud)"/>
					<v:ud v:nameU="visAltDescription" v:prompt="" v:val="VT4(Cloud Icon.)"/>
					<v:ud v:nameU="Font" v:prompt="" v:val="VT0(243):26"/>
				</v:userDefs>
				<title>Cloud.7</title>
				<g id="shape1037-14" v:mID="1037" v:groupContext="shape" v:layerMember="0">
					<title>Sheet.1037</title>
					<path d="M298.74 139.29 C297.52 139.29 295.89 139.29 294.67 139.29 C294.67 139.29 294.67 139.29 294.67 139.29
								 C294.67 119.2 284.89 100.75 268.99 89.27 C252.69 77.79 231.9 74.91 213.16 81.48 C197.67 51.13 163.43
								 35.55 130.83 43.34 C98.22 51.13 74.58 80.66 74.58 114.69 C74.58 114.69 74.58 115.1 74.58 115.51
								 C52.17 111.82 29.75 121.25 15.89 139.29 C2.45 157.74 0 181.93 9.37 202.44 C19.16 222.94 39.53 236.47
								 61.95 237.7 L61.95 238.11 L298.34 238.11 C325.24 238.11 347.24 215.97 347.24 188.91 C347.24 161.84
								 325.64 139.29 298.74 139.29 Z" class="st5"/>
				</g>
			</g>
			<g id="shape1038-16" v:mID="1038" v:groupContext="shape" transform="translate(95.8968,-139.26)">
				<title>Lock</title>
				<v:userDefs>
					<v:ud v:nameU="msvShapeCategories" v:prompt="" v:val="VT4(Icon)"/>
					<v:ud v:nameU="visVersion" v:prompt="" v:val="VT0(15):26"/>
				</v:userDefs>
				<path d="M5.49 233.77 C5.49 234.09 5.29 234.37 5.01 234.5 L5.22 236.16 L4.14 236.16 L4.35 234.5 C4.07 234.37 3.87
							 234.09 3.87 233.77 C3.87 233.33 4.23 232.97 4.68 232.97 C5.13 232.97 5.49 233.33 5.49 233.77 ZM8.64
							 237.05 L8.64 232.09 C8.64 231.89 8.48 231.73 8.28 231.73 L1.08 231.73 C0.88 231.73 0.72 231.89 0.72
							 232.09 L0.72 237.05 C0.72 237.24 0.88 237.4 1.08 237.4 L8.28 237.4 C8.48 237.4 8.64 237.24 8.64 237.05
							 ZM5.76 229.73 C5.73 229.27 5.25 228.9 4.68 228.9 C4.1 228.9 3.63 229.29 3.61 229.79 L3.6 229.79 L3.6
							 231.02 L5.76 231.02 L5.76 229.73 ZM2.16 229.69 C2.16 229.69 2.16 230.32 2.16 231.02 L2.88 231.02 C2.88
							 230.33 2.88 229.69 2.88 229.69 L2.89 229.76 C2.93 228.88 3.72 228.19 4.68 228.19 C5.64 228.19 6.43 228.87
							 6.48 229.69 C6.48 229.69 6.48 230.33 6.48 231.02 L7.2 231.02 C7.2 230.32 7.2 229.69 7.2 229.69 C7.13
							 228.47 6.03 227.48 4.68 227.48 C3.33 227.48 2.23 228.47 2.17 229.72 L2.16 229.69 ZM8.28 231.02 C8.88
							 231.02 9.36 231.5 9.36 232.09 L9.36 237.05 C9.36 237.63 8.88 238.11 8.28 238.11 L1.08 238.11 C0.48 238.11
							 0 237.63 0 237.05 L0 232.09 C0 231.5 0.48 231.02 1.08 231.02 L1.44 231.02 L1.44 229.69 L1.45 229.69
							 C1.53 228.07 2.94 226.77 4.68 226.77 C6.42 226.77 7.83 228.07 7.91 229.69 L7.92 229.69 L7.92 231.02
							 L8.28 231.02 Z" class="st6"/>
			</g>
			<g id="group1039-18" transform="translate(92.126,-115.024)" v:mID="1039" v:groupContext="group" v:layerMember="0">
				<v:userDefs>
					<v:ud v:nameU="visVersion" v:prompt="" v:val="VT0(17):26"/>
					<v:ud v:nameU="visAltText" v:prompt="" v:val="VT4(Database)"/>
					<v:ud v:nameU="visAltDescription" v:prompt="" v:val="VT4(Database Icon.)"/>
					<v:ud v:nameU="Font" v:prompt="" v:val="VT0(243):26"/>
				</v:userDefs>
				<title>Database</title>
				<g id="group1040-19" v:mID="1040" v:groupContext="group" v:layerMember="0">
					<title>Sheet.1040</title>
					<g id="shape1041-20" v:mID="1041" v:groupContext="shape" v:layerMember="0" transform="translate(0,-17.7911)">
						<title>Sheet.1041</title>
						<ellipse cx="8.45079" cy="235.738" rx="8.45079" ry="2.37215" class="st7"/>
					</g>
					<g id="shape1042-22" v:mID="1042" v:groupContext="shape" v:layerMember="0" transform="translate(0,-11.8608)">
						<title>Sheet.1042</title>
						<path d="M14.49 235.74 C14.12 235.74 13.88 235.5 13.88 235.15 C13.88 234.79 14.12 234.55 14.49 234.55 C14.85
									 234.55 15.09 234.79 15.09 235.15 C15.09 235.5 14.85 235.74 14.49 235.74 ZM8.45 233.37 C3.8 233.37
									 0 232.3 0 230.99 L0 235.74 C0 237.04 3.8 238.11 8.45 238.11 C13.1 238.11 16.9 237.04 16.9 235.74
									 L16.9 230.99 C16.9 232.3 13.1 233.37 8.45 233.37 Z" class="st7"/>
					</g>
					<g id="shape1043-24" v:mID="1043" v:groupContext="shape" v:layerMember="0" transform="translate(0,-5.93038)">
						<title>Sheet.1043</title>
						<path d="M14.49 235.74 C14.12 235.74 13.88 235.5 13.88 235.15 C13.88 234.79 14.12 234.55 14.49 234.55 C14.85
									 234.55 15.09 234.79 15.09 235.15 C15.09 235.5 14.85 235.74 14.49 235.74 ZM8.45 233.37 C3.8 233.37
									 0 232.3 0 230.99 L0 235.74 C0 237.04 3.8 238.11 8.45 238.11 C13.1 238.11 16.9 237.04 16.9 235.74
									 L16.9 230.99 C16.9 232.3 13.1 233.37 8.45 233.37 Z" class="st7"/>
					</g>
					<g id="shape1044-26" v:mID="1044" v:groupContext="shape" v:layerMember="0">
						<title>Sheet.1044</title>
						<path d="M14.49 235.74 C14.12 235.74 13.88 235.5 13.88 235.15 C13.88 234.79 14.12 234.55 14.49 234.55 C14.85
									 234.55 15.09 234.79 15.09 235.15 C15.09 235.5 14.85 235.74 14.49 235.74 ZM8.45 233.37 C3.8 233.37
									 0 232.3 0 230.99 L0 235.74 C0 237.04 3.8 238.11 8.45 238.11 C13.1 238.11 16.9 237.04 16.9 235.74
									 L16.9 230.99 C16.9 232.3 13.1 233.37 8.45 233.37 Z" class="st7"/>
					</g>
				</g>
			</g>
			<g id="group1045-28" transform="translate(167.35,-51.2441)" v:mID="1045" v:groupContext="group" v:layerMember="0">
				<v:userDefs>
					<v:ud v:nameU="visVersion" v:prompt="" v:val="VT0(17):26"/>
					<v:ud v:nameU="visAltText" v:prompt="" v:val="VT4(Database)"/>
					<v:ud v:nameU="visAltDescription" v:prompt="" v:val="VT4(Database Icon.)"/>
					<v:ud v:nameU="Font" v:prompt="" v:val="VT0(243):26"/>
				</v:userDefs>
				<title>Database.8</title>
				<g id="group1046-29" v:mID="1046" v:groupContext="group" v:layerMember="0">
					<title>Sheet.1046</title>
					<g id="shape1047-30" v:mID="1047" v:groupContext="shape" v:layerMember="0" transform="translate(0,-17.7911)">
						<title>Sheet.1047</title>
						<ellipse cx="8.45079" cy="235.738" rx="8.45079" ry="2.37215" class="st7"/>
					</g>
					<g id="shape1048-32" v:mID="1048" v:groupContext="shape" v:layerMember="0" transform="translate(0,-11.8608)">
						<title>Sheet.1048</title>
						<path d="M14.49 235.74 C14.12 235.74 13.88 235.5 13.88 235.15 C13.88 234.79 14.12 234.55 14.49 234.55 C14.85
									 234.55 15.09 234.79 15.09 235.15 C15.09 235.5 14.85 235.74 14.49 235.74 ZM8.45 233.37 C3.8 233.37
									 0 232.3 0 230.99 L0 235.74 C0 237.04 3.8 238.11 8.45 238.11 C13.1 238.11 16.9 237.04 16.9 235.74
									 L16.9 230.99 C16.9 232.3 13.1 233.37 8.45 233.37 Z" class="st7"/>
					</g>
					<g id="shape1049-34" v:mID="1049" v:groupContext="shape" v:layerMember="0" transform="translate(0,-5.93038)">
						<title>Sheet.1049</title>
						<path d="M14.49 235.74 C14.12 235.74 13.88 235.5 13.88 235.15 C13.88 234.79 14.12 234.55 14.49 234.55 C14.85
									 234.55 15.09 234.79 15.09 235.15 C15.09 235.5 14.85 235.74 14.49 235.74 ZM8.45 233.37 C3.8 233.37
									 0 232.3 0 230.99 L0 235.74 C0 237.04 3.8 238.11 8.45 238.11 C13.1 238.11 16.9 237.04 16.9 235.74
									 L16.9 230.99 C16.9 232.3 13.1 233.37 8.45 233.37 Z" class="st7"/>
					</g>
					<g id="shape1050-36" v:mID="1050" v:groupContext="shape" v:layerMember="0">
						<title>Sheet.1050</title>
						<path d="M14.49 235.74 C14.12 235.74 13.88 235.5 13.88 235.15 C13.88 234.79 14.12 234.55 14.49 234.55 C14.85
									 234.55 15.09 234.79 15.09 235.15 C15.09 235.5 14.85 235.74 14.49 235.74 ZM8.45 233.37 C3.8 233.37
									 0 232.3 0 230.99 L0 235.74 C0 237.04 3.8 238.11 8.45 238.11 C13.1 238.11 16.9 237.04 16.9 235.74
									 L16.9 230.99 C16.9 232.3 13.1 233.37 8.45 233.37 Z" class="st7"/>
					</g>
				</g>
			</g>
			<g id="group1051-38" transform="translate(231.13,-115.024)" v:mID="1051" v:groupContext="group" v:layerMember="0">
				<v:userDefs>
					<v:ud v:nameU="visVersion" v:prompt="" v:val="VT0(17):26"/>
					<v:ud v:nameU="visAltText" v:prompt="" v:val="VT4(Database)"/>
					<v:ud v:nameU="visAltDescription" v:prompt="" v:val="VT4(Database Icon.)"/>
					<v:ud v:nameU="Font" v:prompt="" v:val="VT0(243):26"/>
				</v:userDefs>
				<title>Database.14</title>
				<g id="group1052-39" v:mID="1052" v:groupContext="group" v:layerMember="0">
					<title>Sheet.1052</title>
					<g id="shape1053-40" v:mID="1053" v:groupContext="shape" v:layerMember="0" transform="translate(0,-17.7911)">
						<title>Sheet.1053</title>
						<ellipse cx="8.45079" cy="235.738" rx="8.45079" ry="2.37215" class="st7"/>
					</g>
					<g id="shape1054-42" v:mID="1054" v:groupContext="shape" v:layerMember="0" transform="translate(0,-11.8608)">
						<title>Sheet.1054</title>
						<path d="M14.49 235.74 C14.12 235.74 13.88 235.5 13.88 235.15 C13.88 234.79 14.12 234.55 14.49 234.55 C14.85
									 234.55 15.09 234.79 15.09 235.15 C15.09 235.5 14.85 235.74 14.49 235.74 ZM8.45 233.37 C3.8 233.37
									 0 232.3 0 230.99 L0 235.74 C0 237.04 3.8 238.11 8.45 238.11 C13.1 238.11 16.9 237.04 16.9 235.74
									 L16.9 230.99 C16.9 232.3 13.1 233.37 8.45 233.37 Z" class="st7"/>
					</g>
					<g id="shape1055-44" v:mID="1055" v:groupContext="shape" v:layerMember="0" transform="translate(0,-5.93038)">
						<title>Sheet.1055</title>
						<path d="M14.49 235.74 C14.12 235.74 13.88 235.5 13.88 235.15 C13.88 234.79 14.12 234.55 14.49 234.55 C14.85
									 234.55 15.09 234.79 15.09 235.15 C15.09 235.5 14.85 235.74 14.49 235.74 ZM8.45 233.37 C3.8 233.37
									 0 232.3 0 230.99 L0 235.74 C0 237.04 3.8 238.11 8.45 238.11 C13.1 238.11 16.9 237.04 16.9 235.74
									 L16.9 230.99 C16.9 232.3 13.1 233.37 8.45 233.37 Z" class="st7"/>
					</g>
					<g id="shape1056-46" v:mID="1056" v:groupContext="shape" v:layerMember="0">
						<title>Sheet.1056</title>
						<path d="M14.49 235.74 C14.12 235.74 13.88 235.5 13.88 235.15 C13.88 234.79 14.12 234.55 14.49 234.55 C14.85
									 234.55 15.09 234.79 15.09 235.15 C15.09 235.5 14.85 235.74 14.49 235.74 ZM8.45 233.37 C3.8 233.37
									 0 232.3 0 230.99 L0 235.74 C0 237.04 3.8 238.11 8.45 238.11 C13.1 238.11 16.9 237.04 16.9 235.74
									 L16.9 230.99 C16.9 232.3 13.1 233.37 8.45 233.37 Z" class="st7"/>
					</g>
				</g>
			</g>
			<g id="shape1057-48" v:mID="1057" v:groupContext="shape" v:layerMember="1" transform="translate(109.028,-119.205)">
				<title>Dynamic connector</title>
				<path d="M0 231.02 L122.1 231.02" class="st8"/>
			</g>
			<g id="shape1058-51" v:mID="1058" v:groupContext="shape" v:layerMember="1" transform="translate(109.028,-119.126)">
				<title>Dynamic connector.21</title>
				<path d="M0 238.11 L58.32 287.56" class="st8"/>
			</g>
			<g id="shape1059-54" v:mID="1059" v:groupContext="shape" v:layerMember="1" transform="translate(185.669,-72.3622)">
				<title>Dynamic connector.22</title>
				<path d="M0 238.11 L45.46 192.63" class="st8"/>
			</g>
			<g id="shape1060-57" v:mID="1060" v:groupContext="shape" transform="translate(234.901,-139.26)">
				<title>Lock.23</title>
				<v:userDefs>
					<v:ud v:nameU="msvShapeCategories" v:prompt="" v:val="VT4(Icon)"/>
					<v:ud v:nameU="visVersion" v:prompt="" v:val="VT0(15):26"/>
				</v:userDefs>
				<path d="M5.49 233.77 C5.49 234.09 5.29 234.37 5.01 234.5 L5.22 236.16 L4.14 236.16 L4.35 234.5 C4.07 234.37 3.87
							 234.09 3.87 233.77 C3.87 233.33 4.23 232.97 4.68 232.97 C5.13 232.97 5.49 233.33 5.49 233.77 ZM8.64
							 237.05 L8.64 232.09 C8.64 231.89 8.48 231.73 8.28 231.73 L1.08 231.73 C0.88 231.73 0.72 231.89 0.72
							 232.09 L0.72 237.05 C0.72 237.24 0.88 237.4 1.08 237.4 L8.28 237.4 C8.48 237.4 8.64 237.24 8.64 237.05
							 ZM5.76 229.73 C5.73 229.27 5.25 228.9 4.68 228.9 C4.1 228.9 3.63 229.29 3.61 229.79 L3.6 229.79 L3.6
							 231.02 L5.76 231.02 L5.76 229.73 ZM2.16 229.69 C2.16 229.69 2.16 230.32 2.16 231.02 L2.88 231.02 C2.88
							 230.33 2.88 229.69 2.88 229.69 L2.89 229.76 C2.93 228.88 3.72 228.19 4.68 228.19 C5.64 228.19 6.43 228.87
							 6.48 229.69 C6.48 229.69 6.48 230.33 6.48 231.02 L7.2 231.02 C7.2 230.32 7.2 229.69 7.2 229.69 C7.13
							 228.47 6.03 227.48 4.68 227.48 C3.33 227.48 2.23 228.47 2.17 229.72 L2.16 229.69 ZM8.28 231.02 C8.88
							 231.02 9.36 231.5 9.36 232.09 L9.36 237.05 C9.36 237.63 8.88 238.11 8.28 238.11 L1.08 238.11 C0.48 238.11
							 0 237.63 0 237.05 L0 232.09 C0 231.5 0.48 231.02 1.08 231.02 L1.44 231.02 L1.44 229.69 L1.45 229.69
							 C1.53 228.07 2.94 226.77 4.68 226.77 C6.42 226.77 7.83 228.07 7.91 229.69 L7.92 229.69 L7.92 231.02
							 L8.28 231.02 Z" class="st6"/>
			</g>
			<g id="shape1061-59" v:mID="1061" v:groupContext="shape" transform="translate(173.04,-25.0236)">
				<title>Lock.24</title>
				<v:userDefs>
					<v:ud v:nameU="msvShapeCategories" v:prompt="" v:val="VT4(Icon)"/>
					<v:ud v:nameU="visVersion" v:prompt="" v:val="VT0(15):26"/>
				</v:userDefs>
				<path d="M5.49 233.77 C5.49 234.09 5.29 234.37 5.01 234.5 L5.22 236.16 L4.14 236.16 L4.35 234.5 C4.07 234.37 3.87
							 234.09 3.87 233.77 C3.87 233.33 4.23 232.97 4.68 232.97 C5.13 232.97 5.49 233.33 5.49 233.77 ZM8.64
							 237.05 L8.64 232.09 C8.64 231.89 8.48 231.73 8.28 231.73 L1.08 231.73 C0.88 231.73 0.72 231.89 0.72
							 232.09 L0.72 237.05 C0.72 237.24 0.88 237.4 1.08 237.4 L8.28 237.4 C8.48 237.4 8.64 237.24 8.64 237.05
							 ZM5.76 229.73 C5.73 229.27 5.25 228.9 4.68 228.9 C4.1 228.9 3.63 229.29 3.61 229.79 L3.6 229.79 L3.6
							 231.02 L5.76 231.02 L5.76 229.73 ZM2.16 229.69 C2.16 229.69 2.16 230.32 2.16 231.02 L2.88 231.02 C2.88
							 230.33 2.88 229.69 2.88 229.69 L2.89 229.76 C2.93 228.88 3.72 228.19 4.68 228.19 C5.64 228.19 6.43 228.87
							 6.48 229.69 C6.48 229.69 6.48 230.33 6.48 231.02 L7.2 231.02 C7.2 230.32 7.2 229.69 7.2 229.69 C7.13
							 228.47 6.03 227.48 4.68 227.48 C3.33 227.48 2.23 228.47 2.17 229.72 L2.16 229.69 ZM8.28 231.02 C8.88
							 231.02 9.36 231.5 9.36 232.09 L9.36 237.05 C9.36 237.63 8.88 238.11 8.28 238.11 L1.08 238.11 C0.48 238.11
							 0 237.63 0 237.05 L0 232.09 C0 231.5 0.48 231.02 1.08 231.02 L1.44 231.02 L1.44 229.69 L1.45 229.69
							 C1.53 228.07 2.94 226.77 4.68 226.77 C6.42 226.77 7.83 228.07 7.91 229.69 L7.92 229.69 L7.92 231.02
							 L8.28 231.02 Z" class="st6"/>
			</g>
			<g id="shape1062-61" v:mID="1062" v:groupContext="shape" transform="translate(53.9496,-116.291)">
				<title>Sheet.1062</title>
				<desc>Node</desc>
				<v:textBlock v:margins="rect(4,4,4,4)" v:tabSpace="42.5197"/>
				<v:textRect cx="18.5528" cy="228.11" width="37.11" height="20"/>
				<rect x="0" y="218.11" width="37.1055" height="20" class="st9"/>
				<text x="5.4" y="231.41" class="st2" v:langID="2057"><v:paragraph v:horizAlign="1"/><v:tabList/>Node</text>			</g>
			<g id="shape1063-64" v:mID="1063" v:groupContext="shape" transform="translate(247.969,-116.291)">
				<title>Sheet.1063</title>
				<desc>Node</desc>
				<v:textBlock v:margins="rect(4,4,4,4)" v:tabSpace="42.5197"/>
				<v:textRect cx="18.5528" cy="228.11" width="37.11" height="20"/>
				<rect x="0" y="218.11" width="37.1055" height="20" class="st9"/>
				<text x="5.4" y="231.41" class="st3" v:langID="2057"><v:paragraph v:horizAlign="1"/><v:tabList/>Node</text>			</g>
			<g id="shape1064-67" v:mID="1064" v:groupContext="shape" transform="translate(158.613,-31.2598)">
				<title>Sheet.1064</title>
				<desc>Node</desc>
				<v:textBlock v:margins="rect(4,4,4,4)" v:tabSpace="42.5197"/>
				<v:textRect cx="18.5528" cy="228.11" width="37.11" height="20"/>
				<rect x="0" y="218.11" width="37.1055" height="20" class="st9"/>
				<text x="5.4" y="231.41" class="st3" v:langID="2057"><v:paragraph v:horizAlign="1"/><v:tabList/>Node</text>			</g>
			<g id="shape1065-70" v:mID="1065" v:groupContext="shape" transform="translate(100.992,6.21524)">
				<title>Sheet.1065</title>
				<desc>CCF Network</desc>
				<v:textBlock v:margins="rect(4,4,4,4)" v:tabSpace="42.5197"/>
				<v:textRect cx="76" cy="228.11" width="152" height="20"/>
				<rect x="0" y="218.11" width="152" height="20" class="st9"/>
				<text x="40" y="231.71" class="st10" v:langID="2057"><v:paragraph v:horizAlign="1"/><v:tabList/>CCF Network</text>			</g>
			<g id="group1066-73" transform="translate(69.0083,-56.2664)" v:mID="1066" v:groupContext="group">
				<title>User.57</title>
				<desc>Operator</desc>
				<g id="shape1067-74" v:mID="1067" v:groupContext="shape">
					<title>Sheet.1067</title>
					<path d="M22.74 238.11 L0 238.11 L0 232.54 C0 231.7 0.43 230.86 1.14 230.31 C2.7 229.19 4.69 228.22 6.68 227.66
								 C8.24 227.24 9.81 226.96 11.37 226.96 C13.08 226.96 14.64 227.24 16.06 227.66 C18.05 228.22 20.04
								 229.05 21.6 230.31 C22.31 230.86 22.74 231.7 22.74 232.54 L22.74 238.11 ZM17.06 220 A5.68504 5.57357
								 0 1 1 5.69 220 A5.68504 5.57357 0 1 1 17.06 220 Z" class="st1"/>
				</g>
				<g id="shape1066-76" v:mID="1066" v:groupContext="groupContent">
					<v:textBlock v:margins="rect(4,4,4,4)" v:tabSpace="42.5197"/>
					<v:textRect cx="11.3701" cy="248.712" width="54.47" height="21.2037"/>
					<text x="-10.33" y="252.01" class="st3" v:langID="2057"><v:paragraph v:horizAlign="1"/><v:tabList/>Operator</text>				</g>
			</g>
			<g id="group1068-78" transform="translate(184.664,-135.291)" v:mID="1068" v:groupContext="group">
				<title>Sheet.1068</title>
				<g id="shape1069-79" v:mID="1069" v:groupContext="shape">
					<title>Rectangle</title>
					<v:userDefs>
						<v:ud v:nameU="visVersion" v:val="VT0(15):26"/>
					</v:userDefs>
					<rect x="0" y="226.772" width="12.3685" height="11.3386" class="st11"/>
				</g>
				<g id="shape1070-81" v:mID="1070" v:groupContext="shape" transform="translate(12.3685,-5.68434E-14)">
					<title>Rectangle.62</title>
					<v:userDefs>
						<v:ud v:nameU="visVersion" v:val="VT0(15):26"/>
					</v:userDefs>
					<rect x="0" y="226.772" width="12.3685" height="11.3386" class="st11"/>
				</g>
				<g id="shape1071-83" v:mID="1071" v:groupContext="shape" transform="translate(24.737,0)">
					<title>Rectangle.63</title>
					<v:userDefs>
						<v:ud v:nameU="visVersion" v:val="VT0(15):26"/>
					</v:userDefs>
					<rect x="0" y="226.772" width="12.3685" height="11.3386" class="st11"/>
				</g>
			</g>
			<g id="group1072-85" transform="translate(192.628,-56.8425)" v:mID="1072" v:groupContext="group">
				<title>Sheet.1072</title>
				<g id="shape1073-86" v:mID="1073" v:groupContext="shape">
					<title>Rectangle</title>
					<v:userDefs>
						<v:ud v:nameU="visVersion" v:val="VT0(15):26"/>
					</v:userDefs>
					<rect x="0" y="226.772" width="12.3685" height="11.3386" class="st11"/>
				</g>
				<g id="shape1074-88" v:mID="1074" v:groupContext="shape" transform="translate(12.3685,0)">
					<title>Rectangle.62</title>
					<v:userDefs>
						<v:ud v:nameU="visVersion" v:val="VT0(15):26"/>
					</v:userDefs>
					<rect x="0" y="226.772" width="12.3685" height="11.3386" class="st11"/>
				</g>
				<g id="shape1075-90" v:mID="1075" v:groupContext="shape" transform="translate(24.737,0)">
					<title>Rectangle.63</title>
					<v:userDefs>
						<v:ud v:nameU="visVersion" v:val="VT0(15):26"/>
					</v:userDefs>
					<rect x="0" y="226.772" width="12.3685" height="11.3386" class="st11"/>
				</g>
			</g>
			<g id="shape1076-92" v:mID="1076" v:groupContext="shape" transform="translate(212.41,-151.732)">
				<title>Lock.86</title>
				<v:userDefs>
					<v:ud v:nameU="msvShapeCategories" v:prompt="" v:val="VT4(Icon)"/>
					<v:ud v:nameU="visVersion" v:prompt="" v:val="VT0(15):26"/>
				</v:userDefs>
				<path d="M5.49 233.77 C5.49 234.09 5.29 234.37 5.01 234.5 L5.22 236.16 L4.14 236.16 L4.35 234.5 C4.07 234.37 3.87
							 234.09 3.87 233.77 C3.87 233.33 4.23 232.97 4.68 232.97 C5.13 232.97 5.49 233.33 5.49 233.77 ZM8.64
							 237.05 L8.64 232.09 C8.64 231.89 8.48 231.73 8.28 231.73 L1.08 231.73 C0.88 231.73 0.72 231.89 0.72
							 232.09 L0.72 237.05 C0.72 237.24 0.88 237.4 1.08 237.4 L8.28 237.4 C8.48 237.4 8.64 237.24 8.64 237.05
							 ZM5.76 229.73 C5.73 229.27 5.25 228.9 4.68 228.9 C4.1 228.9 3.63 229.29 3.61 229.79 L3.6 229.79 L3.6
							 231.02 L5.76 231.02 L5.76 229.73 ZM2.16 229.69 C2.16 229.69 2.16 230.32 2.16 231.02 L2.88 231.02 C2.88
							 230.33 2.88 229.69 2.88 229.69 L2.89 229.76 C2.93 228.88 3.72 228.19 4.68 228.19 C5.64 228.19 6.43 228.87
							 6.48 229.69 C6.48 229.69 6.48 230.33 6.48 231.02 L7.2 231.02 C7.2 230.32 7.2 229.69 7.2 229.69 C7.13
							 228.47 6.03 227.48 4.68 227.48 C3.33 227.48 2.23 228.47 2.17 229.72 L2.16 229.69 ZM8.28 231.02 C8.88
							 231.02 9.36 231.5 9.36 232.09 L9.36 237.05 C9.36 237.63 8.88 238.11 8.28 238.11 L1.08 238.11 C0.48 238.11
							 0 237.63 0 237.05 L0 232.09 C0 231.5 0.48 231.02 1.08 231.02 L1.44 231.02 L1.44 229.69 L1.45 229.69
							 C1.53 228.07 2.94 226.77 4.68 226.77 C6.42 226.77 7.83 228.07 7.91 229.69 L7.92 229.69 L7.92 231.02
							 L8.28 231.02 Z" class="st6"/>
			</g>
			<g id="shape1077-94" v:mID="1077" v:groupContext="shape" transform="translate(219.685,-41.2598)">
				<title>Lock.87</title>
				<v:userDefs>
					<v:ud v:nameU="msvShapeCategories" v:prompt="" v:val="VT4(Icon)"/>
					<v:ud v:nameU="visVersion" v:prompt="" v:val="VT0(15):26"/>
				</v:userDefs>
				<path d="M5.49 233.77 C5.49 234.09 5.29 234.37 5.01 234.5 L5.22 236.16 L4.14 236.16 L4.35 234.5 C4.07 234.37 3.87
							 234.09 3.87 233.77 C3.87 233.33 4.23 232.97 4.68 232.97 C5.13 232.97 5.49 233.33 5.49 233.77 ZM8.64
							 237.05 L8.64 232.09 C8.64 231.89 8.48 231.73 8.28 231.73 L1.08 231.73 C0.88 231.73 0.72 231.89 0.72
							 232.09 L0.72 237.05 C0.72 237.24 0.88 237.4 1.08 237.4 L8.28 237.4 C8.48 237.4 8.64 237.24 8.64 237.05
							 ZM5.76 229.73 C5.73 229.27 5.25 228.9 4.68 228.9 C4.1 228.9 3.63 229.29 3.61 229.79 L3.6 229.79 L3.6
							 231.02 L5.76 231.02 L5.76 229.73 ZM2.16 229.69 C2.16 229.69 2.16 230.32 2.16 231.02 L2.88 231.02 C2.88
							 230.33 2.88 229.69 2.88 229.69 L2.89 229.76 C2.93 228.88 3.72 228.19 4.68 228.19 C5.64 228.19 6.43 228.87
							 6.48 229.69 C6.48 229.69 6.48 230.33 6.48 231.02 L7.2 231.02 C7.2 230.32 7.2 229.69 7.2 229.69 C7.13
							 228.47 6.03 227.48 4.68 227.48 C3.33 227.48 2.23 228.47 2.17 229.72 L2.16 229.69 ZM8.28 231.02 C8.88
							 231.02 9.36 231.5 9.36 232.09 L9.36 237.05 C9.36 237.63 8.88 238.11 8.28 238.11 L1.08 238.11 C0.48 238.11
							 0 237.63 0 237.05 L0 232.09 C0 231.5 0.48 231.02 1.08 231.02 L1.44 231.02 L1.44 229.69 L1.45 229.69
							 C1.53 228.07 2.94 226.77 4.68 226.77 C6.42 226.77 7.83 228.07 7.91 229.69 L7.92 229.69 L7.92 231.02
							 L8.28 231.02 Z" class="st6"/>
			</g>
		</g>
		<g id="group1078-96" transform="translate(256.393,-157.543)" v:mID="1078" v:groupContext="group">
			<title>Sheet.1078</title>
			<g id="group1079-97" transform="translate(-5.19584E-14,0.283455)" v:mID="1079" v:groupContext="group">
				<title>Sheet.1079</title>
				<g id="shape1080-98" v:mID="1080" v:groupContext="shape">
					<title>Rectangle</title>
					<v:userDefs>
						<v:ud v:nameU="visVersion" v:val="VT0(15):26"/>
					</v:userDefs>
					<rect x="0" y="226.772" width="12.3685" height="11.3386" class="st11"/>
				</g>
				<g id="shape1081-100" v:mID="1081" v:groupContext="shape" transform="translate(12.3685,0)">
					<title>Rectangle.62</title>
					<v:userDefs>
						<v:ud v:nameU="visVersion" v:val="VT0(15):26"/>
					</v:userDefs>
					<rect x="0" y="226.772" width="12.3685" height="11.3386" class="st11"/>
				</g>
				<g id="shape1082-102" v:mID="1082" v:groupContext="shape" transform="translate(24.737,0)">
					<title>Rectangle.63</title>
					<v:userDefs>
						<v:ud v:nameU="visVersion" v:val="VT0(15):26"/>
					</v:userDefs>
					<rect x="0" y="226.772" width="12.3685" height="11.3386" class="st11"/>
				</g>
			</g>
			<g id="shape1083-104" v:mID="1083" v:groupContext="shape" transform="translate(27.0984,-13.8898)">
				<title>Lock.85</title>
				<v:userDefs>
					<v:ud v:nameU="msvShapeCategories" v:prompt="" v:val="VT4(Icon)"/>
					<v:ud v:nameU="visVersion" v:prompt="" v:val="VT0(15):26"/>
				</v:userDefs>
				<path d="M5.49 233.77 C5.49 234.09 5.29 234.37 5.01 234.5 L5.22 236.16 L4.14 236.16 L4.35 234.5 C4.07 234.37 3.87
							 234.09 3.87 233.77 C3.87 233.33 4.23 232.97 4.68 232.97 C5.13 232.97 5.49 233.33 5.49 233.77 ZM8.64
							 237.05 L8.64 232.09 C8.64 231.89 8.48 231.73 8.28 231.73 L1.08 231.73 C0.88 231.73 0.72 231.89 0.72
							 232.09 L0.72 237.05 C0.72 237.24 0.88 237.4 1.08 237.4 L8.28 237.4 C8.48 237.4 8.64 237.24 8.64 237.05
							 ZM5.76 229.73 C5.73 229.27 5.25 228.9 4.68 228.9 C4.1 228.9 3.63 229.29 3.61 229.79 L3.6 229.79 L3.6
							 231.02 L5.76 231.02 L5.76 229.73 ZM2.16 229.69 C2.16 229.69 2.16 230.32 2.16 231.02 L2.88 231.02 C2.88
							 230.33 2.88 229.69 2.88 229.69 L2.89 229.76 C2.93 228.88 3.72 228.19 4.68 228.19 C5.64 228.19 6.43 228.87
							 6.48 229.69 C6.48 229.69 6.48 230.33 6.48 231.02 L7.2 231.02 C7.2 230.32 7.2 229.69 7.2 229.69 C7.13
							 228.47 6.03 227.48 4.68 227.48 C3.33 227.48 2.23 228.47 2.17 229.72 L2.16 229.69 ZM8.28 231.02 C8.88
							 231.02 9.36 231.5 9.36 232.09 L9.36 237.05 C9.36 237.63 8.88 238.11 8.28 238.11 L1.08 238.11 C0.48 238.11
							 0 237.63 0 237.05 L0 232.09 C0 231.5 0.48 231.02 1.08 231.02 L1.44 231.02 L1.44 229.69 L1.45 229.69
							 C1.53 228.07 2.94 226.77 4.68 226.77 C6.42 226.77 7.83 228.07 7.91 229.69 L7.92 229.69 L7.92 231.02
							 L8.28 231.02 Z" class="st6"/>
			</g>
		</g>
		<g id="shape1084-106" v:mID="1084" v:groupContext="shape" transform="translate(296.268,-170.992)">
			<title>Sheet.1084</title>
			<desc>Replicated Encrypted Ledger</desc>
			<v:textBlock v:margins="rect(4,4,4,4)" v:tabSpace="42.5197"/>
			<v:textRect cx="32.0472" cy="228.11" width="64.1" height="20"/>
			<rect x="0" y="218.11" width="64.0945" height="20" class="st9"/>
			<text x="17.87" y="226.31" class="st12" v:langID="2057"><v:paragraph v:horizAlign="1"/><v:tabList/>Replicated <tspan
						x="8.37" dy="1.2em" class="st4">Encrypted Ledger</tspan></text>		</g>
		<g id="shape1085-110" v:mID="1085" v:groupContext="shape" v:layerMember="1" transform="translate(66.1421,-187.307)">
			<title>Dynamic connector</title>
			<desc>Governance Transactions</desc>
			<v:textBlock v:margins="rect(4,4,4,4)" v:tabSpace="42.5197"/>
			<v:textRect cx="89.6825" cy="231.024" width="123.56" height="18.8036"/>
			<path d="M0 231.02 L173.85 231.02" class="st13"/>
			<rect v:rectContext="textBkgnd" x="35.6561" y="225.624" width="108.053" height="10.7998" class="st15"/>
			<text x="40.66" y="233.72" class="st16" v:langID="2057"><v:paragraph v:horizAlign="1"/><v:tabList/>Governance Transactions    </text>		</g>
		<g id="shape1086-118" v:mID="1086" v:groupContext="shape" v:layerMember="1" transform="translate(42.5673,-73.9527)">
			<title>Dynamic connector.100</title>
			<desc>Business Transactions</desc>
			<v:textBlock v:margins="rect(4,4,4,4)" v:tabSpace="42.5197"/>
			<v:textRect cx="59.7163" cy="231.024" width="99.6" height="17.6036"/>
			<path d="M0 231.02 L113.92 231.02" class="st13"/>
			<rect v:rectContext="textBkgnd" x="17.2535" y="226.224" width="84.9257" height="9.59985" class="st17"/>
			<text x="21.7" y="233.42" class="st18" v:langID="2057"><v:paragraph v:horizAlign="1"/><v:tabList/>Business Transactions    </text>		</g>
		<g id="shape1087-125" v:mID="1087" v:groupContext="shape" v:layerMember="1" transform="translate(241.166,-97.9541)">
			<title>Dynamic connector.1000</title>
			<path d="M1.21 238.11 L1.21 199.48 L7.45 199.48" class="st13"/>
		</g>
		<g id="shape1088-130" v:mID="1088" v:groupContext="shape" transform="translate(202.662,-112.11)">
			<title>Sheet.1088</title>
			<desc>start</desc>
			<v:textBlock v:margins="rect(4,4,4,4)" v:tabSpace="42.5197"/>
			<v:textRect cx="18.5528" cy="228.11" width="37.11" height="20"/>
			<rect x="0" y="218.11" width="37.1055" height="20" class="st9"/>
			<text x="10.77" y="230.51" class="st18" v:langID="1033"><v:paragraph v:horizAlign="1"/><v:tabList/>start</text>		</g>
		<g id="shape1089-133" v:mID="1089" v:groupContext="shape" transform="translate(280.615,-69.6693)">
			<title>Sheet.1089</title>
			<desc>join</desc>
			<v:textBlock v:margins="rect(4,4,4,4)" v:tabSpace="42.5197"/>
			<v:textRect cx="11.3701" cy="228.11" width="22.75" height="20"/>
			<rect x="0" y="218.11" width="22.7402" height="20" class="st9"/>
			<text x="5.14" y="230.51" class="st18" v:langID="1033"><v:paragraph v:horizAlign="1"/><v:tabList/>join</text>		</g>
		<g id="shape1090-136" v:mID="1090" v:groupContext="shape" v:layerMember="1" transform="translate(262.406,-78.9336)">
			<title>Dynamic connector.1004</title>
			<path d="M0 231.02 L61.43 231.02" class="st13"/>
		</g>
		<g id="group1091-141" transform="translate(244.961,-145.354)" v:mID="1091" v:groupContext="group" v:layerMember="2">
			<title>Gears.1005</title>
			<g id="group1092-142" transform="translate(-3.93685E-13,-6.35147)" v:mID="1092" v:groupContext="group"
					v:layerMember="2">
				<title>Sheet.1092</title>
				<g id="shape1093-143" v:mID="1093" v:groupContext="shape" v:layerMember="2">
					<title>Sheet.1093</title>
					<path d="M3.67 235.45 C3.02 235.45 2.5 234.89 2.5 234.2 C2.5 233.51 3.02 232.95 3.67 232.95 C4.3 232.95 4.82
								 233.51 4.82 234.2 C4.83 234.89 4.3 235.45 3.67 235.45 ZM5.93 231.11 L4.99 231.62 L4.42 231.37 L4.05
								 230.29 L3.23 230.29 L2.9 231.37 L2.32 231.62 L1.35 231.14 L0.77 231.77 L1.25 232.78 L1.01 233.39
								 L0 233.78 L0 234.66 L1 235.01 L1.25 235.63 L0.79 236.66 L1.38 237.3 L2.32 236.78 L2.9 237.04 L3.26
								 238.11 L4.09 238.11 L4.42 237.04 L4.99 236.78 L5.96 237.27 L6.54 236.64 L6.07 235.64 L6.31 235.01
								 L7.31 234.63 L7.31 233.74 L6.31 233.39 L6.07 232.78 L6.53 231.75 L5.93 231.11 Z" class="st19"/>
				</g>
			</g>
			<g id="group1094-145" transform="translate(5.42729,8.52651E-14)" v:mID="1094" v:groupContext="group" v:layerMember="2">
				<title>Sheet.1094</title>
				<g id="shape1095-146" v:mID="1095" v:groupContext="shape" v:layerMember="2">
					<title>Sheet.1095</title>
					<path d="M5.18 234.36 C4.26 234.36 3.52 233.56 3.52 232.59 C3.52 231.62 4.27 230.83 5.18 230.83 C6.08 230.83
								 6.81 231.62 6.81 232.59 C6.81 233.56 6.08 234.36 5.18 234.36 ZM8.38 228.22 L7.05 228.95 L6.23 228.59
								 L5.72 227.07 L4.56 227.07 L4.1 228.59 L3.28 228.95 L1.91 228.26 L1.08 229.15 L1.76 230.58 L1.43
								 231.44 L0 231.99 L0 233.24 L1.42 233.74 L1.76 234.61 L1.11 236.07 L1.95 236.96 L3.28 236.23 L4.09
								 236.59 L4.6 238.11 L5.78 238.11 L6.24 236.59 L7.04 236.23 L8.41 236.92 L9.24 236.03 L8.57 234.62
								 L8.9 233.74 L10.32 233.19 L10.32 231.93 L8.9 231.44 L8.57 230.58 L9.22 229.12 L8.38 228.22 Z"
							class="st19"/>
				</g>
			</g>
		</g>
		<g id="group1096-148" transform="translate(328.804,-85.5433)" v:mID="1096" v:groupContext="group" v:layerMember="2">
			<title>Gears.1010</title>
			<g id="group1097-149" transform="translate(-3.93685E-13,-6.35147)" v:mID="1097" v:groupContext="group"
					v:layerMember="2">
				<title>Sheet.1097</title>
				<g id="shape1098-150" v:mID="1098" v:groupContext="shape" v:layerMember="2">
					<title>Sheet.1098</title>
					<path d="M3.67 235.45 C3.02 235.45 2.5 234.89 2.5 234.2 C2.5 233.51 3.02 232.95 3.67 232.95 C4.3 232.95 4.82
								 233.51 4.82 234.2 C4.83 234.89 4.3 235.45 3.67 235.45 ZM5.93 231.11 L4.99 231.62 L4.42 231.37 L4.05
								 230.29 L3.23 230.29 L2.9 231.37 L2.32 231.62 L1.35 231.14 L0.77 231.77 L1.25 232.78 L1.01 233.39
								 L0 233.78 L0 234.66 L1 235.01 L1.25 235.63 L0.79 236.66 L1.38 237.3 L2.32 236.78 L2.9 237.04 L3.26
								 238.11 L4.09 238.11 L4.42 237.04 L4.99 236.78 L5.96 237.27 L6.54 236.64 L6.07 235.64 L6.31 235.01
								 L7.31 234.63 L7.31 233.74 L6.31 233.39 L6.07 232.78 L6.53 231.75 L5.93 231.11 Z" class="st19"/>
				</g>
			</g>
			<g id="group1099-152" transform="translate(5.42729,8.52651E-14)" v:mID="1099" v:groupContext="group" v:layerMember="2">
				<title>Sheet.1099</title>
				<g id="shape1100-153" v:mID="1100" v:groupContext="shape" v:layerMember="2">
					<title>Sheet.1100</title>
					<path d="M5.18 234.36 C4.26 234.36 3.52 233.56 3.52 232.59 C3.52 231.62 4.27 230.83 5.18 230.83 C6.08 230.83
								 6.81 231.62 6.81 232.59 C6.81 233.56 6.08 234.36 5.18 234.36 ZM8.38 228.22 L7.05 228.95 L6.23 228.59
								 L5.72 227.07 L4.56 227.07 L4.1 228.59 L3.28 228.95 L1.91 228.26 L1.08 229.15 L1.76 230.58 L1.43
								 231.44 L0 231.99 L0 233.24 L1.42 233.74 L1.76 234.61 L1.11 236.07 L1.95 236.96 L3.28 236.23 L4.09
								 236.59 L4.6 238.11 L5.78 238.11 L6.24 236.59 L7.04 236.23 L8.41 236.92 L9.24 236.03 L8.57 234.62
								 L8.9 233.74 L10.32 233.19 L10.32 231.93 L8.9 231.44 L8.57 230.58 L9.22 229.12 L8.38 228.22 Z"
							class="st19"/>
				</g>
			</g>
		</g>
		<g id="group1101-155" transform="translate(385.622,-146.205)" v:mID="1101" v:groupContext="group" v:layerMember="2">
			<title>Gears.1015</title>
			<g id="group1102-156" transform="translate(-3.93685E-13,-6.35147)" v:mID="1102" v:groupContext="group"
					v:layerMember="2">
				<title>Sheet.1102</title>
				<g id="shape1103-157" v:mID="1103" v:groupContext="shape" v:layerMember="2">
					<title>Sheet.1103</title>
					<path d="M3.67 235.45 C3.02 235.45 2.5 234.89 2.5 234.2 C2.5 233.51 3.02 232.95 3.67 232.95 C4.3 232.95 4.82
								 233.51 4.82 234.2 C4.83 234.89 4.3 235.45 3.67 235.45 ZM5.93 231.11 L4.99 231.62 L4.42 231.37 L4.05
								 230.29 L3.23 230.29 L2.9 231.37 L2.32 231.62 L1.35 231.14 L0.77 231.77 L1.25 232.78 L1.01 233.39
								 L0 233.78 L0 234.66 L1 235.01 L1.25 235.63 L0.79 236.66 L1.38 237.3 L2.32 236.78 L2.9 237.04 L3.26
								 238.11 L4.09 238.11 L4.42 237.04 L4.99 236.78 L5.96 237.27 L6.54 236.64 L6.07 235.64 L6.31 235.01
								 L7.31 234.63 L7.31 233.74 L6.31 233.39 L6.07 232.78 L6.53 231.75 L5.93 231.11 Z" class="st19"/>
				</g>
			</g>
			<g id="group1104-159" transform="translate(5.42729,8.52651E-14)" v:mID="1104" v:groupContext="group" v:layerMember="2">
				<title>Sheet.1104</title>
				<g id="shape1105-160" v:mID="1105" v:groupContext="shape" v:layerMember="2">
					<title>Sheet.1105</title>
					<path d="M5.18 234.36 C4.26 234.36 3.52 233.56 3.52 232.59 C3.52 231.62 4.27 230.83 5.18 230.83 C6.08 230.83
								 6.81 231.62 6.81 232.59 C6.81 233.56 6.08 234.36 5.18 234.36 ZM8.38 228.22 L7.05 228.95 L6.23 228.59
								 L5.72 227.07 L4.56 227.07 L4.1 228.59 L3.28 228.95 L1.91 228.26 L1.08 229.15 L1.76 230.58 L1.43
								 231.44 L0 231.99 L0 233.24 L1.42 233.74 L1.76 234.61 L1.11 236.07 L1.95 236.96 L3.28 236.23 L4.09
								 236.59 L4.6 238.11 L5.78 238.11 L6.24 236.59 L7.04 236.23 L8.41 236.92 L9.24 236.03 L8.57 234.62
								 L8.9 233.74 L10.32 233.19 L10.32 231.93 L8.9 231.44 L8.57 230.58 L9.22 229.12 L8.38 228.22 Z"
							class="st19"/>
				</g>
			</g>
		</g>
		<g id="shape1106-162" v:mID="1106" v:groupContext="shape" transform="translate(258.36,-119.559)">
			<title>Lock.24</title>
			<v:userDefs>
				<v:ud v:nameU="msvShapeCategories" v:prompt="" v:val="VT4(Icon)"/>
				<v:ud v:nameU="visVersion" v:prompt="" v:val="VT0(15):26"/>
			</v:userDefs>
			<path d="M5.49 233.77 C5.49 234.09 5.29 234.37 5.01 234.5 L5.22 236.16 L4.14 236.16 L4.35 234.5 C4.07 234.37 3.87 234.09
						 3.87 233.77 C3.87 233.33 4.23 232.97 4.68 232.97 C5.13 232.97 5.49 233.33 5.49 233.77 ZM8.64 237.05 L8.64
						 232.09 C8.64 231.89 8.48 231.73 8.28 231.73 L1.08 231.73 C0.88 231.73 0.72 231.89 0.72 232.09 L0.72 237.05
						 C0.72 237.24 0.88 237.4 1.08 237.4 L8.28 237.4 C8.48 237.4 8.64 237.24 8.64 237.05 ZM5.76 229.73 C5.73 229.27
						 5.25 228.9 4.68 228.9 C4.1 228.9 3.63 229.29 3.61 229.79 L3.6 229.79 L3.6 231.02 L5.76 231.02 L5.76 229.73
						 ZM2.16 229.69 C2.16 229.69 2.16 230.32 2.16 231.02 L2.88 231.02 C2.88 230.33 2.88 229.69 2.88 229.69 L2.89
						 229.76 C2.93 228.88 3.72 228.19 4.68 228.19 C5.64 228.19 6.43 228.87 6.48 229.69 C6.48 229.69 6.48 230.33
						 6.48 231.02 L7.2 231.02 C7.2 230.32 7.2 229.69 7.2 229.69 C7.13 228.47 6.03 227.48 4.68 227.48 C3.33 227.48
						 2.23 228.47 2.17 229.72 L2.16 229.69 ZM8.28 231.02 C8.88 231.02 9.36 231.5 9.36 232.09 L9.36 237.05 C9.36
						 237.63 8.88 238.11 8.28 238.11 L1.08 238.11 C0.48 238.11 0 237.63 0 237.05 L0 232.09 C0 231.5 0.48 231.02
						 1.08 231.02 L1.44 231.02 L1.44 229.69 L1.45 229.69 C1.53 228.07 2.94 226.77 4.68 226.77 C6.42 226.77 7.83
						 228.07 7.91 229.69 L7.92 229.69 L7.92 231.02 L8.28 231.02 Z" class="st6"/>
		</g>
	</g>
</svg>
