<svg width="605" height="605" xmlns="http://www.w3.org/2000/svg" xmlns:xlink="http://www.w3.org/1999/xlink" overflow="hidden"><defs><clipPath id="clip0"><rect x="0" y="0" width="605" height="605"/></clipPath></defs><g clip-path="url(#clip0)"><rect x="0" y="0" width="605" height="605" fill="#FFFFFF"/><path d="M113.5 336.5C113.5 321.036 125.812 308.5 141 308.5 156.188 308.5 168.5 321.036 168.5 336.5 168.5 351.964 156.188 364.5 141 364.5 125.812 364.5 113.5 351.964 113.5 336.5Z" stroke="#2F528F" stroke-width="1.33407" stroke-miterlimit="8" fill="#4472C4" fill-rule="evenodd" fill-opacity="0.360784"/><text fill="#FFFFFF" font-family="Calibri,Calibri_MSFontService,sans-serif" font-weight="400" font-size="16" transform="translate(131.695 342)">H1</text><path d="M175.5 336.5C175.5 321.036 188.036 308.5 203.5 308.5 218.964 308.5 231.5 321.036 231.5 336.5 231.5 351.964 218.964 364.5 203.5 364.5 188.036 364.5 175.5 351.964 175.5 336.5Z" stroke="#2F528F" stroke-width="1.33407" stroke-miterlimit="8" fill="#4472C4" fill-rule="evenodd" fill-opacity="0.360784"/><text fill="#FFFFFF" font-family="Calibri,Calibri_MSFontService,sans-serif" font-weight="400" font-size="16" transform="translate(194.14 342)">H2</text><path d="M238.5 336.5C238.5 321.036 250.812 308.5 266 308.5 281.188 308.5 293.5 321.036 293.5 336.5 293.5 351.964 281.188 364.5 266 364.5 250.812 364.5 238.5 351.964 238.5 336.5Z" stroke="#2F528F" stroke-width="1.33407" stroke-miterlimit="8" fill="#4472C4" fill-rule="evenodd" fill-opacity="0.360784"/><text fill="#FFFFFF" font-family="Calibri,Calibri_MSFontService,sans-serif" font-weight="400" font-size="16" transform="translate(256.585 342)">H3</text><path d="M300.5 336.5C300.5 321.036 312.812 308.5 328 308.5 343.188 308.5 355.5 321.036 355.5 336.5 355.5 351.964 343.188 364.5 328 364.5 312.812 364.5 300.5 351.964 300.5 336.5Z" stroke="#2F528F" stroke-width="1.33407" stroke-miterlimit="8" fill="#4472C4" fill-rule="evenodd" fill-opacity="0.360784"/><text fill="#FFFFFF" font-family="Calibri,Calibri_MSFontService,sans-serif" font-weight="400" font-size="16" transform="translate(319.03 342)">H4</text><path d="M148.5 268.5C148.5 253.036 160.812 240.5 176 240.5 191.188 240.5 203.5 253.036 203.5 268.5 203.5 283.964 191.188 296.5 176 296.5 160.812 296.5 148.5 283.964 148.5 268.5Z" stroke="#2F528F" stroke-width="1.33407" stroke-miterlimit="8" fill="#4472C4" fill-rule="evenodd" fill-opacity="0.360784"/><text fill="#FFFFFF" font-family="Calibri,Calibri_MSFontService,sans-serif" font-weight="400" font-size="12" transform="translate(165.578 272)">H12</text><path d="M265.5 268.5C265.5 253.036 278.036 240.5 293.5 240.5 308.964 240.5 321.5 253.036 321.5 268.5 321.5 283.964 308.964 296.5 293.5 296.5 278.036 296.5 265.5 283.964 265.5 268.5Z" stroke="#2F528F" stroke-width="1.33407" stroke-miterlimit="8" fill="#4472C4" fill-rule="evenodd" fill-opacity="0.360784"/><text fill="#FFFFFF" font-family="Calibri,Calibri_MSFontService,sans-serif" font-weight="400" font-size="12" transform="translate(283.313 272)">H34</text><path d="M0 0 15.2519 20.865" stroke="#4472C4" stroke-width="0.667034" stroke-miterlimit="8" fill="none" fill-rule="evenodd" transform="matrix(1 0 0 -1 140.5 309.365)"/><path d="M203.597 309.365 195.5 288.5" stroke="#4472C4" stroke-width="0.667034" stroke-miterlimit="8" fill="none" fill-rule="evenodd"/><path d="M0 0 8.09685 20.865" stroke="#4472C4" stroke-width="0.667034" stroke-miterlimit="8" fill="none" fill-rule="evenodd" transform="matrix(1 0 0 -1 265.5 309.365)"/><path d="M328.752 309.365 313.5 288.5" stroke="#4472C4" stroke-width="0.667034" stroke-miterlimit="8" fill="none" fill-rule="evenodd"/><path d="M0 0 48.0485 29.3576" stroke="#4472C4" stroke-width="0.667034" stroke-miterlimit="8" fill="none" fill-rule="evenodd" transform="matrix(1 0 0 -1 175.5 240.858)"/><path d="M363.5 336.5C363.5 321.036 375.812 308.5 391 308.5 406.188 308.5 418.5 321.036 418.5 336.5 418.5 351.964 406.188 364.5 391 364.5 375.812 364.5 363.5 351.964 363.5 336.5Z" stroke="#2F5597" stroke-width="1.33407" stroke-miterlimit="8" fill="#4472C4" fill-rule="evenodd"/><text fill="#FFFFFF" font-family="Calibri,Calibri_MSFontService,sans-serif" font-weight="400" font-size="16" transform="translate(381.475 342)">H5</text><path d="M112.5 467.5C112.5 452.036 125.036 439.5 140.5 439.5 155.964 439.5 168.5 452.036 168.5 467.5 168.5 482.964 155.964 495.5 140.5 495.5 125.036 495.5 112.5 482.964 112.5 467.5Z" stroke="#2F528F" stroke-width="1.33407" stroke-miterlimit="8" fill="#4472C4" fill-rule="evenodd" fill-opacity="0.6"/><text fill="#FFFFFF" font-family="Calibri,Calibri_MSFontService,sans-serif" font-weight="400" font-size="16" transform="translate(132.803 463)">Tx<tspan font-size="16" x="3.33517" y="18">1</tspan></text><path d="M175.5 467.5C175.5 452.036 188.036 439.5 203.5 439.5 218.964 439.5 231.5 452.036 231.5 467.5 231.5 482.964 218.964 495.5 203.5 495.5 188.036 495.5 175.5 482.964 175.5 467.5Z" stroke="#2F528F" stroke-width="1.33407" stroke-miterlimit="8" fill="#4472C4" fill-rule="evenodd" fill-opacity="0.6"/><text fill="#FFFFFF" font-family="Calibri,Calibri_MSFontService,sans-serif" font-weight="400" font-size="16" transform="translate(195.641 463)">Tx<tspan font-size="16" x="3.33517" y="18">2</tspan></text><path d="M238.5 467.5C238.5 452.036 251.036 439.5 266.5 439.5 281.964 439.5 294.5 452.036 294.5 467.5 294.5 482.964 281.964 495.5 266.5 495.5 251.036 495.5 238.5 482.964 238.5 467.5Z" stroke="#2F528F" stroke-width="1.33407" stroke-miterlimit="8" fill="#4472C4" fill-rule="evenodd" fill-opacity="0.6"/><text fill="#FFFFFF" font-family="Calibri,Calibri_MSFontService,sans-serif" font-weight="400" font-size="16" transform="translate(258.873 463)">Tx<tspan font-size="16" x="3.33517" y="18">3</tspan></text><path d="M300.5 468C300.5 452.812 312.812 440.5 328 440.5 343.188 440.5 355.5 452.812 355.5 468 355.5 483.188 343.188 495.5 328 495.5 312.812 495.5 300.5 483.188 300.5 468Z" stroke="#2F528F" stroke-width="1.33407" stroke-miterlimit="8" fill="#4472C4" fill-rule="evenodd" fill-opacity="0.6"/><text fill="#FFFFFF" font-family="Calibri,Calibri_MSFontService,sans-serif" font-weight="400" font-size="16" transform="translate(320.531 464)">Tx<tspan font-size="16" x="3.33517" y="18">4</tspan></text><rect x="79" y="426" width="428" height="149" stroke="#4472C4" stroke-width="4.0022" stroke-miterlimit="8" fill="none"/><text fill="#2F5597" font-family="Calibri,Calibri_MSFontService,sans-serif" font-weight="700" font-size="31" transform="translate(96.2857 557)">Ledger</text><path d="M0 0 0.393498 75.4972" stroke="#4472C4" stroke-width="0.667034" stroke-miterlimit="8" stroke-dasharray="2.66814 2.0011" fill="none" fill-rule="evenodd" transform="matrix(-1 0 0 1 140.893 364.5)"/><path d="M0 0 0.000315134 75.4972" stroke="#4472C4" stroke-width="0.667034" stroke-miterlimit="8" stroke-dasharray="2.66814 2.0011" fill="none" fill-rule="evenodd" transform="matrix(-1 0 0 1 203.5 364.5)"/><path d="M265.5 364.5 266.287 439.997" stroke="#4472C4" stroke-width="0.667034" stroke-miterlimit="8" stroke-dasharray="2.66814 2.0011" fill="none" fill-rule="evenodd"/><path d="M328.5 364.5 328.5 440.327" stroke="#4472C4" stroke-width="0.667034" stroke-miterlimit="8" stroke-dasharray="2.66814 2.0011" fill="none" fill-rule="evenodd"/><path d="M363.5 467.5C363.5 452.036 375.812 439.5 391 439.5 406.188 439.5 418.5 452.036 418.5 467.5 418.5 482.964 406.188 495.5 391 495.5 375.812 495.5 363.5 482.964 363.5 467.5Z" stroke="#2F528F" stroke-width="1.33407" stroke-miterlimit="8" fill="#4472C4" fill-rule="evenodd" fill-opacity="0.6"/><text fill="#FFFFFF" font-family="Calibri,Calibri_MSFontService,sans-serif" font-weight="400" font-size="16" transform="translate(383.525 463)">Tx<tspan font-size="16" x="3.33517" y="18">5</tspan></text><path d="M390.5 364.5 391.049 439.997" stroke="#4472C4" stroke-width="0.667034" stroke-miterlimit="8" stroke-dasharray="2.66814 2.0011" fill="none" fill-rule="evenodd"/><path d="M215.5 192C215.5 176.812 227.812 164.5 243 164.5 258.188 164.5 270.5 176.812 270.5 192 270.5 207.188 258.188 219.5 243 219.5 227.812 219.5 215.5 207.188 215.5 192Z" stroke="#2F528F" stroke-width="1.33407" stroke-miterlimit="8" fill="#4472C4" fill-rule="evenodd"/><text fill="#FFFFFF" font-family="Calibri,Calibri_MSFontService,sans-serif" font-weight="400" font-size="7" transform="translate(234.092 194)">H1234</text><path d="M293.09 240.858 262.5 211.5" stroke="#4472C4" stroke-width="0.667034" stroke-miterlimit="8" fill="none" fill-rule="evenodd"/><path d="M289.5 119C289.5 103.812 302.036 91.5 317.5 91.5 332.964 91.5 345.5 103.812 345.5 119 345.5 134.188 332.964 146.5 317.5 146.5 302.036 146.5 289.5 134.188 289.5 119Z" stroke="#ED7D31" stroke-width="1.33407" stroke-miterlimit="8" fill="#ED7D31" fill-rule="evenodd"/><text fill="#FFFFFF" font-family="Calibri,Calibri_MSFontService,sans-serif" font-weight="400" font-size="9" transform="translate(308.078 116)">Root <tspan font-size="9" x="1.66757" y="11">at 6</tspan></text><path d="M0 0 35.0577 34.0298" stroke="#4472C4" stroke-width="0.667034" stroke-miterlimit="8" fill="none" fill-rule="evenodd" transform="matrix(1 0 0 -1 262.5 172.53)"/><path d="M427.5 467.5C427.5 452.036 439.812 439.5 455 439.5 470.188 439.5 482.5 452.036 482.5 467.5 482.5 482.964 470.188 495.5 455 495.5 439.812 495.5 427.5 482.964 427.5 467.5Z" stroke="#507E32" stroke-width="1.33407" stroke-miterlimit="8" fill="#70AD47" fill-rule="evenodd" fill-opacity="0.6"/><text fill="#FFFFFF" font-family="Calibri,Calibri_MSFontService,sans-serif" font-weight="400" font-size="16" transform="translate(445.516 463)">Sig <tspan font-size="16" x="5.08948" y="18">6</tspan></text><path d="M425.5 336.5C425.5 321.036 437.812 308.5 453 308.5 468.188 308.5 480.5 321.036 480.5 336.5 480.5 351.964 468.188 364.5 453 364.5 437.812 364.5 425.5 351.964 425.5 336.5Z" stroke="#2F5597" stroke-width="1.33407" stroke-miterlimit="8" fill="#4472C4" fill-rule="evenodd"/><text fill="#FFFFFF" font-family="Calibri,Calibri_MSFontService,sans-serif" font-weight="400" font-size="16" transform="translate(443.757 342)">H6</text><path d="M393.5 265C393.5 249.812 406.036 237.5 421.5 237.5 436.964 237.5 449.5 249.812 449.5 265 449.5 280.188 436.964 292.5 421.5 292.5 406.036 292.5 393.5 280.188 393.5 265Z" stroke="#2F528F" stroke-width="1.33407" stroke-miterlimit="8" fill="#4472C4" fill-rule="evenodd"/><text fill="#FFFFFF" font-family="Calibri,Calibri_MSFontService,sans-serif" font-weight="400" font-size="12" transform="translate(411.413 269)">H56</text><path d="M453.38 308.88 441.5 284.5" stroke="#4472C4" stroke-width="0.667034" stroke-miterlimit="8" fill="none" fill-rule="evenodd"/><path d="M0 0 11.3071 24.3797" stroke="#4472C4" stroke-width="0.667034" stroke-miterlimit="8" fill="none" fill-rule="evenodd" transform="matrix(1 0 0 -1 390.5 308.88)"/><path d="M402.489 245.566 337.5 138.5" stroke="#4472C4" stroke-width="0.667034" stroke-miterlimit="8" fill="none" fill-rule="evenodd"/><text fill="#4472C4" font-family="Calibri,Calibri_MSFontService,sans-serif" font-weight="700" font-size="16" transform="translate(41.752 44)">After H6 is inserted, assumes <tspan font-size="16" x="0" y="18">consensus commits and tree so </tspan><tspan font-size="16" x="0" y="37">far is compacted at 6</tspan><tspan font-size="16" x="0" y="74">(The tree still contains </tspan><tspan font-size="16" x="0" y="93">intermediate hashes to issue </tspan><tspan font-size="16" x="0" y="112">receipts for the left</tspan>-most leaf in <tspan font-size="16" x="0" y="131">the new tree, </tspan>i.e.<tspan font-size="16" x="113.896" y="131">H6)</tspan><tspan fill="#ED7D31" font-size="16" x="328.006" y="61">Root at 6 (occupies same </tspan><tspan fill="#ED7D31" font-size="16" x="328.006" y="79">position as Root at 5 in the tree </tspan><tspan fill="#ED7D31" font-size="16" x="328.006" y="98">but has different value)</tspan></text><path d="M453.5 364.5 455.509 439.997" stroke="#4472C4" stroke-width="0.667034" stroke-miterlimit="8" stroke-dasharray="2.66814 2.0011" fill="none" fill-rule="evenodd"/></g></svg>