<svg id="Layer_1" data-name="Layer 1" xmlns="http://www.w3.org/2000/svg" xmlns:xlink="http://www.w3.org/1999/xlink" viewBox="0 0 247.42 258.55"><defs><style>.cls-1,.cls-11,.cls-12,.cls-3,.cls-4{fill:none;}.cls-10,.cls-2,.cls-8{fill:#fff;}.cls-10,.cls-11,.cls-13,.cls-2,.cls-5,.cls-6,.cls-9{stroke:#000;}.cls-10,.cls-11,.cls-12,.cls-13,.cls-2,.cls-3,.cls-4,.cls-5,.cls-6,.cls-9{stroke-linecap:round;stroke-linejoin:round;}.cls-11,.cls-12,.cls-13,.cls-2,.cls-3,.cls-5,.cls-6{stroke-width:5px;}.cls-3{stroke:#7ebb42;}.cls-12,.cls-3{stroke-dasharray:3 10;}.cls-4{stroke:#f05125;stroke-width:4.69px;stroke-dasharray:2.82 9.39;}.cls-5{fill:#f05125;}.cls-6{fill:#7ebb42;}.cls-7{clip-path:url(#clip-path);}.cls-9{fill:#fdb813;}.cls-10,.cls-9{stroke-width:3.45px;}.cls-12{stroke:#33a0da;}.cls-13{fill:#33a0da;}</style><clipPath id="clip-path"><circle class="cls-1" cx="132.35" cy="77.23" r="24.27"/></clipPath></defs><title>CCF graphic final</title><path class="cls-2" d="M198.36,54a23,23,0,0,0-11.82,3.29A34,34,0,0,0,154.29,33a33.12,33.12,0,0,0-20.15,6.84A23.37,23.37,0,0,0,115,29.76c-13,0-23.6,10.85-23.6,24.24A24.85,24.85,0,0,0,92,59.22,23.08,23.08,0,0,0,77.38,54c-13,0-23.59,10.86-23.59,24.25S64.35,102.5,77.38,102.5a23,23,0,0,0,11.21-2.91,23.67,23.67,0,0,0,22.61,17.34,23.24,23.24,0,0,0,17.66-8.2A33.84,33.84,0,0,0,160,129.9c16.44,0,30.13-12,33.18-28a22.73,22.73,0,0,0,5.18.61c13,0,23.6-10.86,23.6-24.25S211.4,54,198.36,54Z"/><path class="cls-3" d="M36,153.56S21.34,96,70.8,87"/><path class="cls-4" d="M194.29,107.24s16.18,26.74-8.38,47.27"/><rect class="cls-5" x="148.2" y="178.87" width="25.31" height="58.47"/><rect class="cls-5" x="198.82" y="189.38" width="25.31" height="47.96"/><rect class="cls-5" x="173.51" y="153.56" width="25.31" height="83.78"/><rect x="179.79" y="160.01" width="5.35" height="3.93"/><rect x="187.32" y="160.01" width="5.35" height="3.93"/><rect x="179.79" y="165.9" width="5.35" height="3.93"/><rect x="187.32" y="165.9" width="5.35" height="3.93"/><rect x="205.04" y="194.93" width="5.35" height="3.93"/><rect x="212.56" y="194.93" width="5.35" height="3.93"/><rect x="205.04" y="200.82" width="5.35" height="3.93"/><rect x="212.56" y="200.82" width="5.35" height="3.93"/><rect x="179.79" y="171.79" width="5.35" height="3.93"/><rect x="187.32" y="171.79" width="5.35" height="3.93"/><rect x="179.79" y="177.68" width="5.35" height="3.93"/><rect x="187.32" y="177.68" width="5.35" height="3.93"/><rect x="179.79" y="183.58" width="5.35" height="3.93"/><rect x="187.32" y="183.58" width="5.35" height="3.93"/><rect x="154.42" y="185.11" width="5.35" height="3.93"/><rect x="161.94" y="185.11" width="5.35" height="3.93"/><rect x="154.42" y="191" width="5.35" height="3.93"/><rect x="161.94" y="191" width="5.35" height="3.93"/><rect x="154.42" y="196.89" width="5.35" height="3.93"/><rect x="161.94" y="196.89" width="5.35" height="3.93"/><rect class="cls-6" x="48.6" y="178.87" width="25.31" height="58.47" transform="translate(122.51 416.2) rotate(-180)"/><rect class="cls-6" x="23.29" y="153.56" width="25.31" height="83.78" transform="translate(71.89 390.89) rotate(-180)"/><rect x="29.51" y="160.01" width="5.35" height="3.93"/><rect x="37.04" y="160.01" width="5.35" height="3.93"/><rect x="29.51" y="165.9" width="5.35" height="3.93"/><rect x="37.04" y="165.9" width="5.35" height="3.93"/><rect x="29.51" y="171.79" width="5.35" height="3.93"/><rect x="37.04" y="171.79" width="5.35" height="3.93"/><rect x="29.51" y="177.68" width="5.35" height="3.93"/><rect x="37.04" y="177.68" width="5.35" height="3.93"/><rect x="29.51" y="183.58" width="5.35" height="3.93"/><rect x="37.04" y="183.58" width="5.35" height="3.93"/><rect x="54.82" y="184.7" width="5.35" height="3.93"/><rect x="62.35" y="184.7" width="5.35" height="3.93"/><rect x="54.82" y="190.59" width="5.35" height="3.93"/><rect x="62.35" y="190.59" width="5.35" height="3.93"/><rect x="54.82" y="196.48" width="5.35" height="3.93"/><rect x="62.35" y="196.48" width="5.35" height="3.93"/><circle class="cls-6" cx="79.1" cy="78.86" r="14.62"/><circle class="cls-5" cx="187.32" cy="90.96" r="14.62"/><g class="cls-7"><rect class="cls-8" x="93.25" y="39.66" width="74.23" height="78.25"/><path class="cls-9" d="M160.49,77.23c-27.55,27.12-56.28,0-56.28,0S132.94,50.11,160.49,77.23Z"/><circle class="cls-10" cx="132.35" cy="77.23" r="11.49"/><circle cx="132.35" cy="77.23" r="5.02"/></g><circle class="cls-11" cx="132.35" cy="77.23" r="24.27"/><line class="cls-11" x1="119.96" y1="57.74" x2="143.99" y2="95.49"/><line class="cls-2" x1="96.27" y1="77.23" x2="105.61" y2="77.23"/><line class="cls-2" x1="150.16" y1="48.22" x2="145.45" y2="54.23"/><path class="cls-12" d="M130.16,152.48s46.42-35.94,32.77-101"/><circle class="cls-13" cx="157.9" cy="35.83" r="14.62"/><rect class="cls-13" x="87.11" y="198.54" width="25.31" height="38.8"/><rect class="cls-13" x="112.42" y="153.56" width="25.31" height="83.78"/><rect x="117.8" y="159.04" width="14.55" height="2.94"/><rect x="117.8" y="164.43" width="14.55" height="2.94"/><rect x="117.8" y="169.83" width="14.55" height="2.94"/><rect x="117.8" y="175.23" width="14.55" height="2.94"/><rect x="92.49" y="204.28" width="14.55" height="2.94"/><rect x="92.49" y="209.67" width="14.55" height="2.94"/><line class="cls-2" x1="173.51" y1="86.18" x2="156.22" y2="81.54"/></svg>