<svg width="756" height="605" xmlns="http://www.w3.org/2000/svg" xmlns:xlink="http://www.w3.org/1999/xlink" overflow="hidden"><defs><clipPath id="clip0"><rect x="0" y="0" width="756" height="605"/></clipPath></defs><g clip-path="url(#clip0)"><rect x="0" y="0" width="756" height="605.2" fill="#FFFFFF"/><path d="M32.5 354.117C32.5 338.924 44.8122 326.608 60 326.608 75.1878 326.608 87.5 338.924 87.5 354.117 87.5 369.31 75.1878 381.626 60 381.626 44.8122 381.626 32.5 369.31 32.5 354.117Z" stroke="#2F528F" stroke-width="1.33363" stroke-miterlimit="8" fill="#4472C4" fill-rule="evenodd" fill-opacity="0.341176"/><text fill="#FFFFFF" font-family="Calibri,Calibri_MSFontService,sans-serif" font-weight="400" font-size="16" transform="matrix(1 0 0 1.00033 50.7194 359)">H1</text><path d="M94.5 354.117C94.5 338.924 107.036 326.608 122.5 326.608 137.964 326.608 150.5 338.924 150.5 354.117 150.5 369.31 137.964 381.626 122.5 381.626 107.036 381.626 94.5 369.31 94.5 354.117Z" stroke="#2F528F" stroke-width="1.33363" stroke-miterlimit="8" fill="#4472C4" fill-rule="evenodd" fill-opacity="0.341176"/><text fill="#FFFFFF" font-family="Calibri,Calibri_MSFontService,sans-serif" font-weight="400" font-size="16" transform="matrix(1 0 0 1.00033 113.144 359)">H2</text><path d="M157.5 354.117C157.5 338.924 169.812 326.608 185 326.608 200.188 326.608 212.5 338.924 212.5 354.117 212.5 369.31 200.188 381.626 185 381.626 169.812 381.626 157.5 369.31 157.5 354.117Z" stroke="#2F528F" stroke-width="1.33363" stroke-miterlimit="8" fill="#4472C4" fill-rule="evenodd" fill-opacity="0.341176"/><text fill="#FFFFFF" font-family="Calibri,Calibri_MSFontService,sans-serif" font-weight="400" font-size="16" transform="matrix(1 0 0 1.00033 175.568 359)">H3</text><path d="M219.5 354.117C219.5 338.924 231.812 326.608 247 326.608 262.188 326.608 274.5 338.924 274.5 354.117 274.5 369.31 262.188 381.626 247 381.626 231.812 381.626 219.5 369.31 219.5 354.117Z" stroke="#2F528F" stroke-width="1.33363" stroke-miterlimit="8" fill="#4472C4" fill-rule="evenodd" fill-opacity="0.341176"/><text fill="#FFFFFF" font-family="Calibri,Calibri_MSFontService,sans-serif" font-weight="400" font-size="16" transform="matrix(1 0 0 1.00033 237.992 359)">H4</text><path d="M67.5 286.095C67.5 270.902 79.8122 258.586 95 258.586 110.188 258.586 122.5 270.902 122.5 286.095 122.5 301.287 110.188 313.604 95 313.604 79.8122 313.604 67.5 301.287 67.5 286.095Z" stroke="#2F528F" stroke-width="1.33363" stroke-miterlimit="8" fill="#4472C4" fill-rule="evenodd" fill-opacity="0.341176"/><text fill="#FFFFFF" font-family="Calibri,Calibri_MSFontService,sans-serif" font-weight="400" font-size="12" transform="matrix(1 0 0 1.00033 84.591 290)">H12</text><path d="M184.5 286.095C184.5 270.902 197.036 258.586 212.5 258.586 227.964 258.586 240.5 270.902 240.5 286.095 240.5 301.287 227.964 313.604 212.5 313.604 197.036 313.604 184.5 301.287 184.5 286.095Z" stroke="#2F528F" stroke-width="1.33363" stroke-miterlimit="8" fill="#4472C4" fill-rule="evenodd" fill-opacity="0.341176"/><text fill="#FFFFFF" font-family="Calibri,Calibri_MSFontService,sans-serif" font-weight="400" font-size="12" transform="matrix(1 0 0 1.00033 202.287 290)">H34</text><path d="M0 0 15.247 20.8581" stroke="#4472C4" stroke-width="0.666814" stroke-miterlimit="8" fill="none" fill-rule="evenodd" transform="matrix(1 0 0 -1.00033 59.5 326.466)"/><path d="M122.594 326.466 114.5 305.601" stroke="#4472C4" stroke-width="0.666814" stroke-miterlimit="8" fill="none" fill-rule="evenodd"/><path d="M0 0 8.09417 20.8581" stroke="#4472C4" stroke-width="0.666814" stroke-miterlimit="8" fill="none" fill-rule="evenodd" transform="matrix(1 0 0 -1.00033 184.5 326.466)"/><path d="M246.747 326.466 231.5 305.601" stroke="#4472C4" stroke-width="0.666814" stroke-miterlimit="8" fill="none" fill-rule="evenodd"/><path d="M0 0 48.0326 29.348" stroke="#4472C4" stroke-width="0.666814" stroke-miterlimit="8" fill="none" fill-rule="evenodd" transform="matrix(1 0 0 -1.00033 94.5 257.933)"/><path d="M282.5 354.117C282.5 338.924 294.812 326.608 310 326.608 325.188 326.608 337.5 338.924 337.5 354.117 337.5 369.31 325.188 381.626 310 381.626 294.812 381.626 282.5 369.31 282.5 354.117Z" stroke="#2F5597" stroke-width="1.33363" stroke-miterlimit="8" fill="#4472C4" fill-rule="evenodd"/><text fill="#FFFFFF" font-family="Calibri,Calibri_MSFontService,sans-serif" font-weight="400" font-size="16" transform="matrix(1 0 0 1.00033 300.416 359)">H5</text><path d="M31.5 485.16C31.5 469.968 44.036 457.651 59.5 457.651 74.964 457.651 87.5 469.968 87.5 485.16 87.5 500.353 74.964 512.669 59.5 512.669 44.036 512.669 31.5 500.353 31.5 485.16Z" stroke="#2F528F" stroke-width="1.33363" stroke-miterlimit="8" fill="#4472C4" fill-rule="evenodd" fill-opacity="0.6"/><text fill="#FFFFFF" font-family="Calibri,Calibri_MSFontService,sans-serif" font-weight="400" font-size="16" transform="matrix(1 0 0 1.00033 51.8263 481)">Tx<tspan font-size="16" x="3.33407" y="17.994">1</tspan></text><path d="M94.5 485.16C94.5 469.968 107.036 457.651 122.5 457.651 137.964 457.651 150.5 469.968 150.5 485.16 150.5 500.353 137.964 512.669 122.5 512.669 107.036 512.669 94.5 500.353 94.5 485.16Z" stroke="#2F528F" stroke-width="1.33363" stroke-miterlimit="8" fill="#4472C4" fill-rule="evenodd" fill-opacity="0.6"/><text fill="#FFFFFF" font-family="Calibri,Calibri_MSFontService,sans-serif" font-weight="400" font-size="16" transform="matrix(1 0 0 1.00033 114.644 481)">Tx<tspan font-size="16" x="3.33407" y="17.994">2</tspan></text><path d="M157.5 485.16C157.5 469.968 170.036 457.651 185.5 457.651 200.964 457.651 213.5 469.968 213.5 485.16 213.5 500.353 200.964 512.669 185.5 512.669 170.036 512.669 157.5 500.353 157.5 485.16Z" stroke="#2F528F" stroke-width="1.33363" stroke-miterlimit="8" fill="#4472C4" fill-rule="evenodd" fill-opacity="0.6"/><text fill="#FFFFFF" font-family="Calibri,Calibri_MSFontService,sans-serif" font-weight="400" font-size="16" transform="matrix(1 0 0 1.00033 177.855 481)">Tx<tspan font-size="16" x="3.33406" y="17.994">3</tspan></text><path d="M219.5 485.16C219.5 469.968 231.812 457.651 247 457.651 262.188 457.651 274.5 469.968 274.5 485.16 274.5 500.353 262.188 512.669 247 512.669 231.812 512.669 219.5 500.353 219.5 485.16Z" stroke="#2F528F" stroke-width="1.33363" stroke-miterlimit="8" fill="#4472C4" fill-rule="evenodd" fill-opacity="0.6"/><text fill="#FFFFFF" font-family="Calibri,Calibri_MSFontService,sans-serif" font-weight="400" font-size="16" transform="matrix(1 0 0 1.00033 239.492 481)">Tx<tspan font-size="16" x="3.33406" y="17.994">4</tspan></text><rect x="7.99998" y="443.147" width="742" height="150.05" stroke="#4472C4" stroke-width="4.00088" stroke-miterlimit="8" fill="none"/><text fill="#2F5597" font-family="Calibri,Calibri_MSFontService,sans-serif" font-weight="700" font-size="31" transform="matrix(1 0 0 1.00033 24.4052 574)">Ledger</text><path d="M0 0 0.393368 75.4721" stroke="#4472C4" stroke-width="0.666814" stroke-miterlimit="8" stroke-dasharray="2.66725 2.00044" fill="none" fill-rule="evenodd" transform="matrix(-1 0 0 1.00033 59.8934 381.626)"/><path d="M122.5 381.626 122.5 457.123" stroke="#4472C4" stroke-width="0.666814" stroke-miterlimit="8" stroke-dasharray="2.66725 2.00044" fill="none" fill-rule="evenodd"/><path d="M184.5 381.626 185.287 457.123" stroke="#4472C4" stroke-width="0.666814" stroke-miterlimit="8" stroke-dasharray="2.66725 2.00044" fill="none" fill-rule="evenodd"/><path d="M247.5 381.626 247.5 457.453" stroke="#4472C4" stroke-width="0.666814" stroke-miterlimit="8" stroke-dasharray="2.66725 2.00044" fill="none" fill-rule="evenodd"/><path d="M282.5 485.16C282.5 469.968 294.812 457.651 310 457.651 325.188 457.651 337.5 469.968 337.5 485.16 337.5 500.353 325.188 512.669 310 512.669 294.812 512.669 282.5 500.353 282.5 485.16Z" stroke="#2F528F" stroke-width="1.33363" stroke-miterlimit="8" fill="#4472C4" fill-rule="evenodd" fill-opacity="0.6"/><text fill="#FFFFFF" font-family="Calibri,Calibri_MSFontService,sans-serif" font-weight="400" font-size="16" transform="matrix(1 0 0 1.00033 302.466 481)">Tx<tspan font-size="16" x="3.33408" y="17.994">5</tspan></text><path d="M309.5 381.626 310.049 457.123" stroke="#4472C4" stroke-width="0.666814" stroke-miterlimit="8" stroke-dasharray="2.66725 2.00044" fill="none" fill-rule="evenodd"/><path d="M134.5 209.569C134.5 194.1 146.812 181.56 162 181.56 177.188 181.56 189.5 194.1 189.5 209.569 189.5 225.038 177.188 237.579 162 237.579 146.812 237.579 134.5 225.038 134.5 209.569Z" stroke="#2F528F" stroke-width="1.33363" stroke-miterlimit="8" fill="#4472C4" fill-rule="evenodd"/><text fill="#FFFFFF" font-family="Calibri,Calibri_MSFontService,sans-serif" font-weight="400" font-size="6" transform="matrix(1 0 0 1.00033 153.165 211)">H1234</text><path d="M212.08 257.933 181.5 228.576" stroke="#4472C4" stroke-width="0.666814" stroke-miterlimit="8" fill="none" fill-rule="evenodd"/><path d="M260.5 131.043C260.5 115.85 272.812 103.534 288 103.534 303.188 103.534 315.5 115.85 315.5 131.043 315.5 146.236 303.188 158.552 288 158.552 272.812 158.552 260.5 146.236 260.5 131.043Z" stroke="#4472C4" stroke-width="1.33363" stroke-miterlimit="8" fill="#4472C4" fill-rule="evenodd"/><text fill="#FFFFFF" font-family="Calibri,Calibri_MSFontService,sans-serif" font-weight="400" font-size="9" transform="matrix(1 0 0 1.00033 278.589 134)">H1<tspan font-size="9" x="10.5023" y="0">-</tspan><tspan font-size="9" x="13.3363" y="0">8</tspan></text><path d="M0 0 86.6743 39.3077" stroke="#4472C4" stroke-width="0.666814" stroke-miterlimit="8" fill="none" fill-rule="evenodd" transform="matrix(1 0 0 -1.00033 181.5 189.87)"/><path d="M0 0 12.1173 21.7494" stroke="#4472C4" stroke-width="0.666814" stroke-miterlimit="8" fill="none" fill-rule="evenodd" transform="matrix(1 0 0 -1.00033 309.5 326.357)"/><path d="M345.5 486.161C345.5 470.968 357.812 458.652 373 458.652 388.188 458.652 400.5 470.968 400.5 486.161 400.5 501.354 388.188 513.67 373 513.67 357.812 513.67 345.5 501.354 345.5 486.161Z" stroke="#507E32" stroke-width="1.33363" stroke-miterlimit="8" fill="#70AD47" fill-rule="evenodd" fill-opacity="0.6"/><text fill="#FFFFFF" font-family="Calibri,Calibri_MSFontService,sans-serif" font-weight="400" font-size="16" transform="matrix(1 0 0 1.00033 363.74 482)">Sig <tspan font-size="16" x="5.0878" y="17.994">6</tspan></text><path d="M345.5 354.117C345.5 338.924 357.812 326.608 373 326.608 388.188 326.608 400.5 338.924 400.5 354.117 400.5 369.31 388.188 381.626 373 381.626 357.812 381.626 345.5 369.31 345.5 354.117Z" stroke="#2F5597" stroke-width="1.33363" stroke-miterlimit="8" fill="#4472C4" fill-rule="evenodd"/><text fill="#FFFFFF" font-family="Calibri,Calibri_MSFontService,sans-serif" font-weight="400" font-size="16" transform="matrix(1 0 0 1.00033 363.99 359)">H6</text><path d="M0 0 0.00031503 76.546" stroke="#4472C4" stroke-width="0.666814" stroke-miterlimit="8" stroke-dasharray="2.66725 2.00044" fill="none" fill-rule="evenodd" transform="matrix(-1 0 0 1.00033 373.5 381.626)"/><path d="M437.5 486.161C437.5 470.968 449.812 458.652 465 458.652 480.188 458.652 492.5 470.968 492.5 486.161 492.5 501.354 480.188 513.67 465 513.67 449.812 513.67 437.5 501.354 437.5 486.161Z" stroke="#2F528F" stroke-width="1.33363" stroke-miterlimit="8" fill="#4472C4" fill-rule="evenodd" fill-opacity="0.6"/><text fill="#FFFFFF" font-family="Calibri,Calibri_MSFontService,sans-serif" font-weight="400" font-size="16" transform="matrix(1 0 0 1.00033 457.084 482)">Tx<tspan font-size="16" x="3.33408" y="17.994">7</tspan></text><path d="M313.5 285.094C313.5 269.901 325.812 257.585 341 257.585 356.188 257.585 368.5 269.901 368.5 285.094 368.5 300.287 356.188 312.603 341 312.603 325.812 312.603 313.5 300.287 313.5 285.094Z" stroke="#2F528F" stroke-width="1.33363" stroke-miterlimit="8" fill="#4472C4" fill-rule="evenodd"/><text fill="#FFFFFF" font-family="Calibri,Calibri_MSFontService,sans-serif" font-weight="400" font-size="12" transform="matrix(1 0 0 1.00033 331.158 289)">H56</text><path d="M372.873 326.357 360.5 304.601" stroke="#4472C4" stroke-width="0.666814" stroke-miterlimit="8" fill="none" fill-rule="evenodd"/><path d="M0 0 51.643 34.1435" stroke="#4472C4" stroke-width="0.666814" stroke-miterlimit="8" fill="none" fill-rule="evenodd" transform="matrix(1 0 0 -1.00033 341.5 257.729)"/><path d="M499.5 486.161C499.5 470.968 512.036 458.652 527.5 458.652 542.964 458.652 555.5 470.968 555.5 486.161 555.5 501.354 542.964 513.67 527.5 513.67 512.036 513.67 499.5 501.354 499.5 486.161Z" stroke="#2F528F" stroke-width="1.33363" stroke-miterlimit="8" fill="#4472C4" fill-rule="evenodd" fill-opacity="0.6"/><text fill="#FFFFFF" font-family="Calibri,Calibri_MSFontService,sans-serif" font-weight="400" font-size="16" transform="matrix(1 0 0 1.00033 519.82 482)">Tx<tspan font-size="16" x="3.33405" y="17.994">8</tspan></text><path d="M562.5 485.16C562.5 469.968 574.812 457.651 590 457.651 605.188 457.651 617.5 469.968 617.5 485.16 617.5 500.353 605.188 512.669 590 512.669 574.812 512.669 562.5 500.353 562.5 485.16Z" stroke="#2F528F" stroke-width="1.33363" stroke-miterlimit="8" fill="#4472C4" fill-rule="evenodd" fill-opacity="0.6"/><text fill="#FFFFFF" font-family="Calibri,Calibri_MSFontService,sans-serif" font-weight="400" font-size="16" transform="matrix(1 0 0 1.00033 582.556 481)">Tx<tspan font-size="16" x="3.33405" y="17.994">9</tspan></text><path d="M625.5 485.16C625.5 469.968 637.812 457.651 653 457.651 668.188 457.651 680.5 469.968 680.5 485.16 680.5 500.353 668.188 512.669 653 512.669 637.812 512.669 625.5 500.353 625.5 485.16Z" stroke="#2F528F" stroke-width="1.33363" stroke-miterlimit="8" fill="#4472C4" fill-rule="evenodd" fill-opacity="0.6"/><text fill="#FFFFFF" font-family="Calibri,Calibri_MSFontService,sans-serif" font-weight="400" font-size="16" transform="matrix(1 0 0 1.00033 645.295 481)">Tx<tspan font-size="16" x="-0.586792" y="17.994">10</tspan></text><path d="M686.5 485.16C686.5 469.968 698.812 457.651 714 457.651 729.188 457.651 741.5 469.968 741.5 485.16 741.5 500.353 729.188 512.669 714 512.669 698.812 512.669 686.5 500.353 686.5 485.16Z" stroke="#507E32" stroke-width="1.33363" stroke-miterlimit="8" fill="#70AD47" fill-rule="evenodd" fill-opacity="0.6"/><text fill="#FFFFFF" font-family="Calibri,Calibri_MSFontService,sans-serif" font-weight="400" font-size="16" transform="matrix(1 0 0 1.00033 704.658 481)">Sig <tspan font-size="16" x="1.16693" y="17.994">11</tspan></text><path d="M436.5 354.117C436.5 338.924 448.812 326.608 464 326.608 479.188 326.608 491.5 338.924 491.5 354.117 491.5 369.31 479.188 381.626 464 381.626 448.812 381.626 436.5 369.31 436.5 354.117Z" stroke="#2F5597" stroke-width="1.33363" stroke-miterlimit="8" fill="#4472C4" fill-rule="evenodd"/><text fill="#FFFFFF" font-family="Calibri,Calibri_MSFontService,sans-serif" font-weight="400" font-size="16" transform="matrix(1 0 0 1.00033 454.976 359)">H7</text><path d="M499.5 353.617C499.5 338.148 512.036 325.608 527.5 325.608 542.964 325.608 555.5 338.148 555.5 353.617 555.5 369.086 542.964 381.626 527.5 381.626 512.036 381.626 499.5 369.086 499.5 353.617Z" stroke="#2F5597" stroke-width="1.33363" stroke-miterlimit="8" fill="#4472C4" fill-rule="evenodd"/><text fill="#FFFFFF" font-family="Calibri,Calibri_MSFontService,sans-serif" font-weight="400" font-size="16" transform="matrix(1 0 0 1.00033 518.32 359)">H8</text><path d="M562.5 353.617C562.5 338.148 574.812 325.608 590 325.608 605.188 325.608 617.5 338.148 617.5 353.617 617.5 369.086 605.188 381.626 590 381.626 574.812 381.626 562.5 369.086 562.5 353.617Z" stroke="#2F5597" stroke-width="1.33363" stroke-miterlimit="8" fill="#4472C4" fill-rule="evenodd"/><text fill="#FFFFFF" font-family="Calibri,Calibri_MSFontService,sans-serif" font-weight="400" font-size="16" transform="matrix(1 0 0 1.00033 581.056 359)">H9</text><path d="M625.5 353.617C625.5 338.148 637.812 325.608 653 325.608 668.188 325.608 680.5 338.148 680.5 353.617 680.5 369.086 668.188 381.626 653 381.626 637.812 381.626 625.5 369.086 625.5 353.617Z" stroke="#2F5597" stroke-width="1.33363" stroke-miterlimit="8" fill="#4472C4" fill-rule="evenodd"/><text fill="#FFFFFF" font-family="Calibri,Calibri_MSFontService,sans-serif" font-weight="400" font-size="16" transform="matrix(1 0 0 1.00033 647.709 349)">H<tspan font-size="16" x="-3.00067" y="17.994">10</tspan></text><path d="M468.5 278.092C468.5 262.899 480.812 250.583 496 250.583 511.188 250.583 523.5 262.899 523.5 278.092 523.5 293.285 511.188 305.601 496 305.601 480.812 305.601 468.5 293.285 468.5 278.092Z" stroke="#2F528F" stroke-width="1.33363" stroke-miterlimit="8" fill="#4472C4" fill-rule="evenodd"/><text fill="#FFFFFF" font-family="Calibri,Calibri_MSFontService,sans-serif" font-weight="400" font-size="12" transform="matrix(1 0 0 1.00033 486.035 282)">H78</text><path d="M0 0 12.434 28.9523" stroke="#4472C4" stroke-width="0.666814" stroke-miterlimit="8" fill="none" fill-rule="evenodd" transform="matrix(1 0 0 -1.00033 464.5 326.56)"/><path d="M527.327 325.999 515.5 297.598" stroke="#4472C4" stroke-width="0.666814" stroke-miterlimit="8" fill="none" fill-rule="evenodd"/><path d="M590.5 281.093C590.5 265.9 602.812 253.584 618 253.584 633.188 253.584 645.5 265.9 645.5 281.093 645.5 296.286 633.188 308.602 618 308.602 602.812 308.602 590.5 296.286 590.5 281.093Z" stroke="#2F528F" stroke-width="1.33363" stroke-miterlimit="8" fill="#4472C4" fill-rule="evenodd"/><text fill="#FFFFFF" font-family="Calibri,Calibri_MSFontService,sans-serif" font-weight="400" font-size="9" transform="matrix(1 0 0 1.00033 607.608 283)">H910</text><path d="M653.059 325.711 637.5 300.599" stroke="#4472C4" stroke-width="0.666814" stroke-miterlimit="8" fill="none" fill-rule="evenodd"/><path d="M0 0 8.09417 25.1033" stroke="#4472C4" stroke-width="0.666814" stroke-miterlimit="8" fill="none" fill-rule="evenodd" transform="matrix(1 0 0 -1.00033 590.5 325.711)"/><path d="M384.5 204.067C384.5 188.875 397.036 176.558 412.5 176.558 427.964 176.558 440.5 188.875 440.5 204.067 440.5 219.26 427.964 231.577 412.5 231.577 397.036 231.577 384.5 219.26 384.5 204.067Z" stroke="#2F528F" stroke-width="1.33363" stroke-miterlimit="8" fill="#4472C4" fill-rule="evenodd"/><text fill="#FFFFFF" font-family="Calibri,Calibri_MSFontService,sans-serif" font-weight="400" font-size="6" transform="matrix(1 0 0 1.00033 403.343 206)">H5678</text><path d="M477.109 258.62 432.5 223.574" stroke="#4472C4" stroke-width="0.666814" stroke-miterlimit="8" fill="none" fill-rule="evenodd"/><path d="M392.837 184.182 307.5 150.55" stroke="#4472C4" stroke-width="0.666814" stroke-miterlimit="8" fill="none" fill-rule="evenodd"/><path d="M499.5 39.0129C499.5 23.82 511.812 11.5038 527 11.5038 542.188 11.5038 554.5 23.82 554.5 39.0129 554.5 54.2058 542.188 66.522 527 66.522 511.812 66.522 499.5 54.2058 499.5 39.0129Z" stroke="#ED7D31" stroke-width="1.33363" stroke-miterlimit="8" fill="#ED7D31" fill-rule="evenodd"/><text fill="#FFFFFF" font-family="Calibri,Calibri_MSFontService,sans-serif" font-weight="400" font-size="9" transform="matrix(1 0 0 1.00033 517.707 36)">Root <tspan font-size="9" x="-0.666809" y="10.9964">at 10</tspan></text><path d="M617.776 253.703 546.5 58.5194" stroke="#4472C4" stroke-width="0.666814" stroke-miterlimit="8" fill="none" fill-rule="evenodd"/><path d="M0 0 183.763 92.1863" stroke="#4472C4" stroke-width="0.666814" stroke-miterlimit="8" fill="none" fill-rule="evenodd" transform="matrix(1 0 0 -1.00033 315.5 130.73)"/><path d="M464.5 381.626 465.107 458.197" stroke="#4472C4" stroke-width="0.666814" stroke-miterlimit="8" stroke-dasharray="2.66725 2.00044" fill="none" fill-rule="evenodd"/><path d="M0 0 0.00031503 77.1069" stroke="#4472C4" stroke-width="0.666814" stroke-miterlimit="8" stroke-dasharray="2.66725 2.00044" fill="none" fill-rule="evenodd" transform="matrix(-1 0 0 1.00033 527.5 381.626)"/><path d="M0 0 0.00031503 76.0328" stroke="#4472C4" stroke-width="0.666814" stroke-miterlimit="8" stroke-dasharray="2.66725 2.00044" fill="none" fill-rule="evenodd" transform="matrix(-1 0 0 1.00033 590.5 381.626)"/><path d="M0 0 0.00031503 76.0328" stroke="#4472C4" stroke-width="0.666814" stroke-miterlimit="8" stroke-dasharray="2.66725 2.00044" fill="none" fill-rule="evenodd" transform="matrix(-1 0 0 1.00033 653.5 381.626)"/><path d="M0-0.666814 5.33451-0.666814 5.33451 0.666814 0 0.666814ZM9.33539-0.666814 14.6699-0.666814 14.6699 0.666814 9.33539 0.666814ZM18.6708-0.666814 24.0053-0.666814 24.0053 0.666814 18.6708 0.666814ZM28.0062-0.666814 33.3407-0.666814 33.3407 0.666814 28.0062 0.666814ZM37.3416-0.666814 42.6761-0.666814 42.6761 0.666814 37.3416 0.666814ZM46.677-0.666814 52.0115-0.666814 52.0115 0.666814 46.677 0.666814ZM56.0123-0.666814 61.3469-0.666814 61.3469 0.666814 56.0123 0.666814ZM65.3477-0.666814 70.6823-0.666814 70.6823 0.666814 65.3477 0.666814ZM74.6831-0.666814 80.0176-0.666814 80.0176 0.666814 74.6831 0.666814ZM84.0185-0.666814 89.353-0.666814 89.353 0.666814 84.0185 0.666814ZM93.3539-0.666814 98.6884-0.666814 98.6884 0.666814 93.3539 0.666814ZM102.689-0.666814 108.024-0.666814 108.024 0.666814 102.689 0.666814ZM112.025-0.666814 117.359-0.666814 117.359 0.666814 112.025 0.666814ZM121.36-0.666814 126.695-0.666814 126.695 0.666814 121.36 0.666814ZM130.695-0.666814 136.03-0.666814 136.03 0.666814 130.695 0.666814ZM140.031-0.666814 145.365-0.666814 145.365 0.666814 140.031 0.666814ZM149.366-0.666814 154.701-0.666814 154.701 0.666814 149.366 0.666814ZM158.702-0.666814 164.036-0.666814 164.036 0.666814 158.702 0.666814ZM168.037-0.666814 173.372-0.666814 173.372 0.666814 168.037 0.666814ZM177.372-0.666814 182.707-0.666814 182.707 0.666814 177.372 0.666814ZM186.708-0.666814 192.042-0.666814 192.042 0.666814 186.708 0.666814ZM196.043-0.666814 201.378-0.666814 201.378 0.666814 196.043 0.666814ZM205.379-0.666814 210.713-0.666814 210.713 0.666814 205.379 0.666814ZM214.714-0.666814 220.049-0.666814 220.049 0.666814 214.714 0.666814ZM224.049-0.666814 229.384-0.666814 229.384 0.666814 224.049 0.666814ZM233.385-0.666814 238.719-0.666814 238.719 0.666814 233.385 0.666814ZM242.72-0.666814 248.055-0.666814 248.055 0.666814 242.72 0.666814ZM252.056-0.666814 257.39-0.666814 257.39 0.666814 252.056 0.666814ZM261.391-0.666814 266.725-0.666814 266.725 0.666814 261.391 0.666814ZM270.726-0.666814 276.061-0.666814 276.061 0.666814 270.726 0.666814ZM280.062-0.666814 285.396-0.666814 285.396 0.666814 280.062 0.666814ZM289.397-0.666814 294.732-0.666814 294.732 0.666814 289.397 0.666814ZM298.733-0.666814 304.067-0.666814 304.067 0.666814 298.733 0.666814ZM308.068-0.666814 313.402-0.666814 313.402 0.666814 308.068 0.666814ZM317.403-0.666814 322.738-0.666814 322.738 0.666814 317.403 0.666814ZM326.739-0.666814 332.073-0.666814 332.073 0.666814 326.739 0.666814ZM336.074-0.666814 341.409-0.666814 341.409 0.666814 336.074 0.666814ZM345.409-0.666814 350.744-0.666814 350.744 0.666814 345.409 0.666814ZM354.745-0.666814 360.079-0.666814 360.079 0.666814 354.745 0.666814ZM364.08-0.666814 369.415-0.666814 369.415 0.666814 364.08 0.666814ZM373.416-0.666814 378.75-0.666814 378.75 0.666814 373.416 0.666814ZM382.751-0.666814 388.086-0.666814 388.086 0.666814 382.751 0.666814ZM392.086-0.666814 397.421-0.666814 397.421 0.666814 392.086 0.666814ZM401.422-0.666814 406.756-0.666814 406.756 0.666814 401.422 0.666814ZM410.757-0.666814 416.092-0.666814 416.092 0.666814 410.757 0.666814ZM418.912 1.84734 418.912 7.18185 417.578 7.18185 417.578 1.84734ZM418.912 11.1827 418.912 16.5172 417.578 16.5172 417.578 11.1827ZM418.912 20.5181 418.912 25.8526 417.578 25.8526 417.578 20.5181ZM418.912 29.8535 418.912 35.188 417.578 35.188 417.578 29.8535ZM418.912 39.1889 418.912 44.5234 417.578 44.5234 417.578 39.1889ZM418.912 48.5243 418.912 53.8588 417.578 53.8588 417.578 48.5243ZM418.912 57.8597 418.912 63.1942 417.578 63.1942 417.578 57.8597ZM418.912 67.1951 418.912 72.5296 417.578 72.5296 417.578 67.1951ZM418.912 76.5305 418.912 81.865 417.578 81.865 417.578 76.5305ZM418.912 85.8659 418.912 91.2004 417.578 91.2004 417.578 85.8659ZM418.912 95.2012 418.912 100.536 417.578 100.536 417.578 95.2012ZM418.912 104.537 418.912 109.871 417.578 109.871 417.578 104.537ZM418.912 113.872 418.912 119.207 417.578 119.207 417.578 113.872ZM418.912 123.207 418.912 128.542 417.578 128.542 417.578 123.207ZM418.912 132.543 418.912 137.877 417.578 137.877 417.578 132.543ZM418.912 141.878 418.912 147.213 417.578 147.213 417.578 141.878ZM418.912 151.214 418.912 152.731 417.578 152.731 417.578 151.214ZM422.246 151.397 418.245 159.399 414.244 151.397Z" fill="#4472C4" transform="matrix(-1.83697e-16 -1.00033 -1 1.83758e-16 713.899 456.896)"/><text fill="#4472C4" font-family="Calibri,Calibri_MSFontService,sans-serif" font-weight="400" font-size="21" transform="matrix(1 0 0 1.00033 665.161 31)">signs</text></g></svg>