<svg width="1008" height="756" xmlns="http://www.w3.org/2000/svg" xmlns:xlink="http://www.w3.org/1999/xlink" overflow="hidden"><defs><clipPath id="clip0"><rect x="0" y="0" width="1008" height="756"/></clipPath></defs><g clip-path="url(#clip0)"><rect x="0" y="0" width="1008" height="756.042" fill="#FFFFFF"/><path d="M305.5 398.022C305.5 382.833 317.812 370.52 333 370.52 348.188 370.52 360.5 382.833 360.5 398.022 360.5 413.211 348.188 425.523 333 425.523 317.812 425.523 305.5 413.211 305.5 398.022Z" stroke="#2F528F" stroke-width="1.33355" stroke-miterlimit="8" fill="#4472C4" fill-rule="evenodd" fill-opacity="0.360784"/><text fill="#FFFFFF" font-family="Calibri,Calibri_MSFontService,sans-serif" font-weight="400" font-size="16" transform="matrix(1 0 0 1.00006 323.676 403)">H1</text><path d="M367.5 398.022C367.5 382.833 379.812 370.52 395 370.52 410.188 370.52 422.5 382.833 422.5 398.022 422.5 413.211 410.188 425.523 395 425.523 379.812 425.523 367.5 413.211 367.5 398.022Z" stroke="#2F528F" stroke-width="1.33355" stroke-miterlimit="8" fill="#4472C4" fill-rule="evenodd" fill-opacity="0.360784"/><text fill="#FFFFFF" font-family="Calibri,Calibri_MSFontService,sans-serif" font-weight="400" font-size="16" transform="matrix(1 0 0 1.00006 386.097 403)">H2</text><path d="M430.5 398.022C430.5 382.833 442.812 370.52 458 370.52 473.188 370.52 485.5 382.833 485.5 398.022 485.5 413.211 473.188 425.523 458 425.523 442.812 425.523 430.5 413.211 430.5 398.022Z" stroke="#2F528F" stroke-width="1.33355" stroke-miterlimit="8" fill="#4472C4" fill-rule="evenodd" fill-opacity="0.360784"/><text fill="#FFFFFF" font-family="Calibri,Calibri_MSFontService,sans-serif" font-weight="400" font-size="16" transform="matrix(1 0 0 1.00006 448.518 403)">H3</text><path d="M492.5 398.022C492.5 382.833 504.812 370.52 520 370.52 535.188 370.52 547.5 382.833 547.5 398.022 547.5 413.211 535.188 425.523 520 425.523 504.812 425.523 492.5 413.211 492.5 398.022Z" stroke="#2F528F" stroke-width="1.33355" stroke-miterlimit="8" fill="#4472C4" fill-rule="evenodd" fill-opacity="0.360784"/><text fill="#FFFFFF" font-family="Calibri,Calibri_MSFontService,sans-serif" font-weight="400" font-size="16" transform="matrix(1 0 0 1.00006 510.938 403)">H4</text><path d="M340.5 330.018C340.5 314.829 352.812 302.517 368 302.517 383.188 302.517 395.5 314.829 395.5 330.018 395.5 345.207 383.188 357.52 368 357.52 352.812 357.52 340.5 345.207 340.5 330.018Z" stroke="#2F528F" stroke-width="1.33355" stroke-miterlimit="8" fill="#4472C4" fill-rule="evenodd" fill-opacity="0.360784"/><text fill="#FFFFFF" font-family="Calibri,Calibri_MSFontService,sans-serif" font-weight="400" font-size="12" transform="matrix(1 0 0 1.00006 357.546 334)">H12</text><path d="M457.5 330.018C457.5 314.829 470.036 302.517 485.5 302.517 500.964 302.517 513.5 314.829 513.5 330.018 513.5 345.207 500.964 357.52 485.5 357.52 470.036 357.52 457.5 345.207 457.5 330.018Z" stroke="#2F528F" stroke-width="1.33355" stroke-miterlimit="8" fill="#4472C4" fill-rule="evenodd" fill-opacity="0.360784"/><text fill="#FFFFFF" font-family="Calibri,Calibri_MSFontService,sans-serif" font-weight="400" font-size="12" transform="matrix(1 0 0 1.00006 475.235 334)">H34</text><path d="M0 0 15.2463 20.8571" stroke="#4472C4" stroke-width="0.666777" stroke-miterlimit="8" fill="none" fill-rule="evenodd" transform="matrix(1 0 0 -1.00006 332.5 370.378)"/><path d="M395.594 370.378 387.5 349.519" stroke="#4472C4" stroke-width="0.666777" stroke-miterlimit="8" fill="none" fill-rule="evenodd"/><path d="M0 0 8.09404 20.8571" stroke="#4472C4" stroke-width="0.666777" stroke-miterlimit="8" fill="none" fill-rule="evenodd" transform="matrix(1 0 0 -1.00006 457.5 370.378)"/><path d="M519.746 370.378 504.5 349.519" stroke="#4472C4" stroke-width="0.666777" stroke-miterlimit="8" fill="none" fill-rule="evenodd"/><path d="M0 0 48.0301 29.3465" stroke="#4472C4" stroke-width="0.666777" stroke-miterlimit="8" fill="none" fill-rule="evenodd" transform="matrix(1 0 0 -1.00006 367.5 302.863)"/><path d="M554.5 398.022C554.5 382.833 567.036 370.52 582.5 370.52 597.964 370.52 610.5 382.833 610.5 398.022 610.5 413.211 597.964 425.523 582.5 425.523 567.036 425.523 554.5 413.211 554.5 398.022Z" stroke="#2F5597" stroke-width="1.33355" stroke-miterlimit="8" fill="#4472C4" fill-rule="evenodd"/><text fill="#FFFFFF" font-family="Calibri,Calibri_MSFontService,sans-serif" font-weight="400" font-size="16" transform="matrix(1 0 0 1.00006 573.359 403)">H5</text><path d="M304.5 529.029C304.5 513.841 317.036 501.528 332.5 501.528 347.964 501.528 360.5 513.841 360.5 529.029 360.5 544.218 347.964 556.531 332.5 556.531 317.036 556.531 304.5 544.218 304.5 529.029Z" stroke="#2F528F" stroke-width="1.33355" stroke-miterlimit="8" fill="#4472C4" fill-rule="evenodd" fill-opacity="0.6"/><text fill="#FFFFFF" font-family="Calibri,Calibri_MSFontService,sans-serif" font-weight="400" font-size="16" transform="matrix(1 0 0 1.00006 324.783 525)">Tx<tspan font-size="16" x="3.33389" y="17.999">1</tspan></text><path d="M367.5 529.029C367.5 513.841 379.812 501.528 395 501.528 410.188 501.528 422.5 513.841 422.5 529.029 422.5 544.218 410.188 556.531 395 556.531 379.812 556.531 367.5 544.218 367.5 529.029Z" stroke="#2F528F" stroke-width="1.33355" stroke-miterlimit="8" fill="#4472C4" fill-rule="evenodd" fill-opacity="0.6"/><text fill="#FFFFFF" font-family="Calibri,Calibri_MSFontService,sans-serif" font-weight="400" font-size="16" transform="matrix(1 0 0 1.00006 387.597 525)">Tx<tspan font-size="16" x="3.33389" y="17.999">2</tspan></text><path d="M430.5 529.029C430.5 513.841 443.036 501.528 458.5 501.528 473.964 501.528 486.5 513.841 486.5 529.029 486.5 544.218 473.964 556.531 458.5 556.531 443.036 556.531 430.5 544.218 430.5 529.029Z" stroke="#2F528F" stroke-width="1.33355" stroke-miterlimit="8" fill="#4472C4" fill-rule="evenodd" fill-opacity="0.6"/><text fill="#FFFFFF" font-family="Calibri,Calibri_MSFontService,sans-serif" font-weight="400" font-size="16" transform="matrix(1 0 0 1.00006 450.805 525)">Tx<tspan font-size="16" x="3.33389" y="17.999">3</tspan></text><path d="M492.5 529.029C492.5 513.841 504.812 501.528 520 501.528 535.188 501.528 547.5 513.841 547.5 529.029 547.5 544.218 535.188 556.531 520 556.531 504.812 556.531 492.5 544.218 492.5 529.029Z" stroke="#2F528F" stroke-width="1.33355" stroke-miterlimit="8" fill="#4472C4" fill-rule="evenodd" fill-opacity="0.6"/><text fill="#FFFFFF" font-family="Calibri,Calibri_MSFontService,sans-serif" font-weight="400" font-size="16" transform="matrix(1 0 0 1.00006 512.439 525)">Tx<tspan font-size="16" x="3.33386" y="17.999">4</tspan></text><rect x="271" y="487.027" width="428" height="150.008" stroke="#4472C4" stroke-width="4.00066" stroke-miterlimit="8" fill="none"/><text fill="#2F5597" font-family="Calibri,Calibri_MSFontService,sans-serif" font-weight="700" font-size="31" transform="matrix(1 0 0 1.00006 288.28 618)">Ledger</text><path d="M0 0 0.393346 75.468" stroke="#4472C4" stroke-width="0.666777" stroke-miterlimit="8" stroke-dasharray="2.66711 2.00033" fill="none" fill-rule="evenodd" transform="matrix(-1 0 0 1.00006 332.893 425.523)"/><path d="M0 0 0.000210008 75.468" stroke="#4472C4" stroke-width="0.666777" stroke-miterlimit="8" stroke-dasharray="2.66711 2.00033" fill="none" fill-rule="evenodd" transform="matrix(-1 0 0 1.00006 395.5 425.523)"/><path d="M457.5 425.523 458.287 500.996" stroke="#4472C4" stroke-width="0.666777" stroke-miterlimit="8" stroke-dasharray="2.66711 2.00033" fill="none" fill-rule="evenodd"/><path d="M0 0 0.000210008 75.7975" stroke="#4472C4" stroke-width="0.666777" stroke-miterlimit="8" stroke-dasharray="2.66711 2.00033" fill="none" fill-rule="evenodd" transform="matrix(-1 0 0 1.00006 520.5 425.523)"/><path d="M555.5 529.029C555.5 513.841 567.812 501.528 583 501.528 598.188 501.528 610.5 513.841 610.5 529.029 610.5 544.218 598.188 556.531 583 556.531 567.812 556.531 555.5 544.218 555.5 529.029Z" stroke="#2F528F" stroke-width="1.33355" stroke-miterlimit="8" fill="#4472C4" fill-rule="evenodd" fill-opacity="0.6"/><text fill="#FFFFFF" font-family="Calibri,Calibri_MSFontService,sans-serif" font-weight="400" font-size="16" transform="matrix(1 0 0 1.00006 575.409 525)">Tx<tspan font-size="16" x="3.33386" y="17.999">5</tspan></text><path d="M582.5 425.523 583.049 500.996" stroke="#4472C4" stroke-width="0.666777" stroke-miterlimit="8" stroke-dasharray="2.66711 2.00033" fill="none" fill-rule="evenodd"/><path d="M407.5 253.514C407.5 238.049 419.812 225.512 435 225.512 450.188 225.512 462.5 238.049 462.5 253.514 462.5 268.979 450.188 281.516 435 281.516 419.812 281.516 407.5 268.979 407.5 253.514Z" stroke="#2F528F" stroke-width="1.33355" stroke-miterlimit="8" fill="#4472C4" fill-rule="evenodd"/><text fill="#FFFFFF" font-family="Calibri,Calibri_MSFontService,sans-serif" font-weight="400" font-size="7" transform="matrix(1 0 0 1.00006 426.033 255)">H1234</text><path d="M485.079 302.863 454.5 273.515" stroke="#4472C4" stroke-width="0.666777" stroke-miterlimit="8" fill="none" fill-rule="evenodd"/><path d="M481.5 180.51C481.5 165.045 494.036 152.508 509.5 152.508 524.964 152.508 537.5 165.045 537.5 180.51 537.5 195.975 524.964 208.511 509.5 208.511 494.036 208.511 481.5 195.975 481.5 180.51Z" stroke="#ED7D31" stroke-width="1.33355" stroke-miterlimit="8" fill="#ED7D31" fill-rule="evenodd"/><text fill="#FFFFFF" font-family="Calibri,Calibri_MSFontService,sans-serif" font-weight="400" font-size="9" transform="matrix(1 0 0 1.00006 499.824 178)">Root <tspan font-size="9" x="1.83365" y="10.9994">at 6</tspan></text><path d="M0 0 35.044 34.0169" stroke="#4472C4" stroke-width="0.666777" stroke-miterlimit="8" fill="none" fill-rule="evenodd" transform="matrix(1 0 0 -1.00006 454.5 234.53)"/><path d="M619.5 529.029C619.5 513.841 631.812 501.528 647 501.528 662.188 501.528 674.5 513.841 674.5 529.029 674.5 544.218 662.188 556.531 647 556.531 631.812 556.531 619.5 544.218 619.5 529.029Z" stroke="#507E32" stroke-width="1.33355" stroke-miterlimit="8" fill="#70AD47" fill-rule="evenodd" fill-opacity="0.6"/><text fill="#FFFFFF" font-family="Calibri,Calibri_MSFontService,sans-serif" font-weight="400" font-size="16" transform="matrix(1 0 0 1.00006 637.376 525)">Sig <tspan font-size="16" x="5.08746" y="17.999">6</tspan></text><path d="M617.5 398.022C617.5 382.833 629.812 370.52 645 370.52 660.188 370.52 672.5 382.833 672.5 398.022 672.5 413.211 660.188 425.523 645 425.523 629.812 425.523 617.5 413.211 617.5 398.022Z" stroke="#2F5597" stroke-width="1.33355" stroke-miterlimit="8" fill="#4472C4" fill-rule="evenodd"/><text fill="#FFFFFF" font-family="Calibri,Calibri_MSFontService,sans-serif" font-weight="400" font-size="16" transform="matrix(1 0 0 1.00006 635.618 403)">H6</text><path d="M585.5 326.518C585.5 311.053 598.036 298.516 613.5 298.516 628.964 298.516 641.5 311.053 641.5 326.518 641.5 341.983 628.964 354.52 613.5 354.52 598.036 354.52 585.5 341.983 585.5 326.518Z" stroke="#2F528F" stroke-width="1.33355" stroke-miterlimit="8" fill="#4472C4" fill-rule="evenodd"/><text fill="#FFFFFF" font-family="Calibri,Calibri_MSFontService,sans-serif" font-weight="400" font-size="12" transform="matrix(1 0 0 1.00006 603.286 330)">H56</text><path d="M644.375 370.891 632.5 346.519" stroke="#4472C4" stroke-width="0.666777" stroke-miterlimit="8" fill="none" fill-rule="evenodd"/><path d="M0 0 11.303 24.3705" stroke="#4472C4" stroke-width="0.666777" stroke-miterlimit="8" fill="none" fill-rule="evenodd" transform="matrix(1 0 0 -1.00006 582.5 370.891)"/><path d="M593.464 307.541 528.5 200.511" stroke="#4472C4" stroke-width="0.666777" stroke-miterlimit="8" fill="none" fill-rule="evenodd"/><text fill="#4472C4" font-family="Calibri,Calibri_MSFontService,sans-serif" font-weight="700" font-size="16" transform="matrix(1 0 0 1.00006 233.767 105)">After H6 is inserted, assumes <tspan font-size="16" x="0" y="17.999">consensus commits and tree so </tspan><tspan font-size="16" x="0" y="36.998">far is compacted at </tspan><tspan font-size="16" x="126.688" y="36.998">6</tspan><tspan font-size="16" x="0" y="74.9959">(The tree still contains </tspan><tspan font-size="16" x="0" y="92.9949">intermediate hashes to issue </tspan><tspan font-size="16" x="0" y="111.994">receipts for the left</tspan><tspan font-size="16" x="124.187" y="111.994">-</tspan>most leaf in <tspan font-size="16" x="0" y="130.993">the new tree, </tspan><tspan font-size="16" x="90.3483" y="130.993">i.e.</tspan><tspan font-size="16" x="113.852" y="130.993">H6)</tspan><tspan fill="#ED7D31" font-size="16" x="327.88" y="61.9966">Root at 6 (occupies same </tspan><tspan fill="#ED7D31" font-size="16" x="327.88" y="79.9956">position as Root at 5 in the tree </tspan><tspan fill="#ED7D31" font-size="16" x="327.88" y="98.9945">but has different value)</tspan></text><path d="M644.5 425.523 646.508 500.996" stroke="#4472C4" stroke-width="0.666777" stroke-miterlimit="8" stroke-dasharray="2.66711 2.00033" fill="none" fill-rule="evenodd"/></g></svg>