<svg width="1008" height="756" xmlns="http://www.w3.org/2000/svg" xmlns:xlink="http://www.w3.org/1999/xlink" overflow="hidden"><defs><clipPath id="clip0"><rect x="0" y="0" width="1008" height="756"/></clipPath></defs><g clip-path="url(#clip0)"><rect x="0" y="0" width="1008" height="756.042" fill="#FFFFFF"/><path d="M310.5 386.021C310.5 370.833 323.036 358.52 338.5 358.52 353.964 358.52 366.5 370.833 366.5 386.021 366.5 401.21 353.964 413.523 338.5 413.523 323.036 413.523 310.5 401.21 310.5 386.021Z" stroke="#2F528F" stroke-width="1.33355" stroke-miterlimit="8" fill="#4472C4" fill-rule="evenodd"/><text fill="#FFFFFF" font-family="Calibri,Calibri_MSFontService,sans-serif" font-weight="400" font-size="16" transform="matrix(1 0 0 1.00006 329.324 391)">H1</text><path d="M373.5 386.021C373.5 370.833 385.812 358.52 401 358.52 416.188 358.52 428.5 370.833 428.5 386.021 428.5 401.21 416.188 413.523 401 413.523 385.812 413.523 373.5 401.21 373.5 386.021Z" stroke="#2F528F" stroke-width="1.33355" stroke-miterlimit="8" fill="#4472C4" fill-rule="evenodd"/><text fill="#FFFFFF" font-family="Calibri,Calibri_MSFontService,sans-serif" font-weight="400" font-size="16" transform="matrix(1 0 0 1.00006 391.745 391)">H2</text><path d="M435.5 386.021C435.5 370.833 448.036 358.52 463.5 358.52 478.964 358.52 491.5 370.833 491.5 386.021 491.5 401.21 478.964 413.523 463.5 413.523 448.036 413.523 435.5 401.21 435.5 386.021Z" stroke="#2F528F" stroke-width="1.33355" stroke-miterlimit="8" fill="#4472C4" fill-rule="evenodd"/><text fill="#FFFFFF" font-family="Calibri,Calibri_MSFontService,sans-serif" font-weight="400" font-size="16" transform="matrix(1 0 0 1.00006 454.166 391)">H3</text><path d="M498.5 386.021C498.5 370.833 510.812 358.52 526 358.52 541.188 358.52 553.5 370.833 553.5 386.021 553.5 401.21 541.188 413.523 526 413.523 510.812 413.523 498.5 401.21 498.5 386.021Z" stroke="#2F528F" stroke-width="1.33355" stroke-miterlimit="8" fill="#4472C4" fill-rule="evenodd"/><text fill="#FFFFFF" font-family="Calibri,Calibri_MSFontService,sans-serif" font-weight="400" font-size="16" transform="matrix(1 0 0 1.00006 516.586 391)">H4</text><path d="M345.5 318.018C345.5 302.829 357.812 290.516 373 290.516 388.188 290.516 400.5 302.829 400.5 318.018 400.5 333.206 388.188 345.519 373 345.519 357.812 345.519 345.5 333.206 345.5 318.018Z" stroke="#2F528F" stroke-width="1.33355" stroke-miterlimit="8" fill="#4472C4" fill-rule="evenodd"/><text fill="#FFFFFF" font-family="Calibri,Calibri_MSFontService,sans-serif" font-weight="400" font-size="12" transform="matrix(1 0 0 1.00006 363.194 322)">H12</text><path d="M463.5 318.018C463.5 302.829 475.812 290.516 491 290.516 506.188 290.516 518.5 302.829 518.5 318.018 518.5 333.206 506.188 345.519 491 345.519 475.812 345.519 463.5 333.206 463.5 318.018Z" stroke="#2F528F" stroke-width="1.33355" stroke-miterlimit="8" fill="#4472C4" fill-rule="evenodd"/><text fill="#FFFFFF" font-family="Calibri,Calibri_MSFontService,sans-serif" font-weight="400" font-size="12" transform="matrix(1 0 0 1.00006 480.883 322)">H34</text><path d="M0 0 15.2463 20.8571" stroke="#4472C4" stroke-width="0.666777" stroke-miterlimit="8" fill="none" fill-rule="evenodd" transform="matrix(1 0 0 -1.00006 338.5 358.377)"/><path d="M400.594 358.377 392.5 337.519" stroke="#4472C4" stroke-width="0.666777" stroke-miterlimit="8" fill="none" fill-rule="evenodd"/><path d="M0 0 8.09404 20.8571" stroke="#4472C4" stroke-width="0.666777" stroke-miterlimit="8" fill="none" fill-rule="evenodd" transform="matrix(1 0 0 -1.00006 463.5 358.377)"/><path d="M525.746 358.377 510.5 337.519" stroke="#4472C4" stroke-width="0.666777" stroke-miterlimit="8" fill="none" fill-rule="evenodd"/><path d="M0 0 48.0301 29.3465" stroke="#4472C4" stroke-width="0.666777" stroke-miterlimit="8" fill="none" fill-rule="evenodd" transform="matrix(1 0 0 -1.00006 373.5 290.863)"/><path d="M560.5 386.021C560.5 370.833 572.812 358.52 588 358.52 603.188 358.52 615.5 370.833 615.5 386.021 615.5 401.21 603.188 413.523 588 413.523 572.812 413.523 560.5 401.21 560.5 386.021Z" stroke="#2F5597" stroke-width="1.33355" stroke-miterlimit="8" fill="#4472C4" fill-rule="evenodd"/><text fill="#FFFFFF" font-family="Calibri,Calibri_MSFontService,sans-serif" font-weight="400" font-size="16" transform="matrix(1 0 0 1.00006 579.007 391)">H5</text><path d="M310.5 517.029C310.5 501.84 322.812 489.527 338 489.527 353.188 489.527 365.5 501.84 365.5 517.029 365.5 532.217 353.188 544.53 338 544.53 322.812 544.53 310.5 532.217 310.5 517.029Z" stroke="#2F528F" stroke-width="1.33355" stroke-miterlimit="8" fill="#4472C4" fill-rule="evenodd" fill-opacity="0.6"/><text fill="#FFFFFF" font-family="Calibri,Calibri_MSFontService,sans-serif" font-weight="400" font-size="16" transform="matrix(1 0 0 1.00006 330.431 513)">Tx<tspan font-size="16" x="3.33389" y="17.999">1</tspan></text><path d="M373.5 517.029C373.5 501.84 385.812 489.527 401 489.527 416.188 489.527 428.5 501.84 428.5 517.029 428.5 532.217 416.188 544.53 401 544.53 385.812 544.53 373.5 532.217 373.5 517.029Z" stroke="#2F528F" stroke-width="1.33355" stroke-miterlimit="8" fill="#4472C4" fill-rule="evenodd" fill-opacity="0.6"/><text fill="#FFFFFF" font-family="Calibri,Calibri_MSFontService,sans-serif" font-weight="400" font-size="16" transform="matrix(1 0 0 1.00006 393.245 513)">Tx<tspan font-size="16" x="3.33389" y="17.999">2</tspan></text><path d="M436.5 517.029C436.5 501.84 448.812 489.527 464 489.527 479.188 489.527 491.5 501.84 491.5 517.029 491.5 532.217 479.188 544.53 464 544.53 448.812 544.53 436.5 532.217 436.5 517.029Z" stroke="#2F528F" stroke-width="1.33355" stroke-miterlimit="8" fill="#4472C4" fill-rule="evenodd" fill-opacity="0.6"/><text fill="#FFFFFF" font-family="Calibri,Calibri_MSFontService,sans-serif" font-weight="400" font-size="16" transform="matrix(1 0 0 1.00006 456.453 513)">Tx<tspan font-size="16" x="3.33389" y="17.999">3</tspan></text><path d="M498.5 517.029C498.5 501.84 510.812 489.527 526 489.527 541.188 489.527 553.5 501.84 553.5 517.029 553.5 532.217 541.188 544.53 526 544.53 510.812 544.53 498.5 532.217 498.5 517.029Z" stroke="#2F528F" stroke-width="1.33355" stroke-miterlimit="8" fill="#4472C4" fill-rule="evenodd" fill-opacity="0.6"/><text fill="#FFFFFF" font-family="Calibri,Calibri_MSFontService,sans-serif" font-weight="400" font-size="16" transform="matrix(1 0 0 1.00006 518.087 513)">Tx<tspan font-size="16" x="3.33386" y="17.999">4</tspan></text><rect x="279" y="475.026" width="424" height="150.008" stroke="#4472C4" stroke-width="4.00066" stroke-miterlimit="8" fill="none"/><text fill="#2F5597" font-family="Calibri,Calibri_MSFontService,sans-serif" font-weight="700" font-size="31" transform="matrix(1 0 0 1.00006 292.873 605)">Ledger</text><path d="M0 0 0.393346 75.468" stroke="#4472C4" stroke-width="0.666777" stroke-miterlimit="8" stroke-dasharray="2.66711 2.00033" fill="none" fill-rule="evenodd" transform="matrix(-1 0 0 1.00006 338.893 413.523)"/><path d="M0 0 0.000210008 75.468" stroke="#4472C4" stroke-width="0.666777" stroke-miterlimit="8" stroke-dasharray="2.66711 2.00033" fill="none" fill-rule="evenodd" transform="matrix(-1 0 0 1.00006 400.5 413.523)"/><path d="M463.5 413.523 464.287 488.995" stroke="#4472C4" stroke-width="0.666777" stroke-miterlimit="8" stroke-dasharray="2.66711 2.00033" fill="none" fill-rule="evenodd"/><path d="M0 0 0.000210008 75.7975" stroke="#4472C4" stroke-width="0.666777" stroke-miterlimit="8" stroke-dasharray="2.66711 2.00033" fill="none" fill-rule="evenodd" transform="matrix(-1 0 0 1.00006 525.5 413.523)"/><path d="M561.5 517.029C561.5 501.84 573.812 489.527 589 489.527 604.188 489.527 616.5 501.84 616.5 517.029 616.5 532.217 604.188 544.53 589 544.53 573.812 544.53 561.5 532.217 561.5 517.029Z" stroke="#2F528F" stroke-width="1.33355" stroke-miterlimit="8" fill="#4472C4" fill-rule="evenodd" fill-opacity="0.6"/><text fill="#FFFFFF" font-family="Calibri,Calibri_MSFontService,sans-serif" font-weight="400" font-size="16" transform="matrix(1 0 0 1.00006 581.057 513)">Tx<tspan font-size="16" x="3.33392" y="17.999">5</tspan></text><path d="M588.5 413.523 589.049 488.995" stroke="#4472C4" stroke-width="0.666777" stroke-miterlimit="8" stroke-dasharray="2.66711 2.00033" fill="none" fill-rule="evenodd"/><path d="M413.5 241.513C413.5 226.048 425.812 213.512 441 213.512 456.188 213.512 468.5 226.048 468.5 241.513 468.5 256.978 456.188 269.515 441 269.515 425.812 269.515 413.5 256.978 413.5 241.513Z" stroke="#2F528F" stroke-width="1.33355" stroke-miterlimit="8" fill="#4472C4" fill-rule="evenodd"/><text fill="#FFFFFF" font-family="Calibri,Calibri_MSFontService,sans-serif" font-weight="400" font-size="7" transform="matrix(1 0 0 1.00006 431.764 243)">H1234</text><path d="M491.078 290.863 460.5 261.514" stroke="#4472C4" stroke-width="0.666777" stroke-miterlimit="8" fill="none" fill-rule="evenodd"/><path d="M487.5 168.509C487.5 153.044 499.812 140.508 515 140.508 530.188 140.508 542.5 153.044 542.5 168.509 542.5 183.974 530.188 196.511 515 196.511 499.812 196.511 487.5 183.974 487.5 168.509Z" stroke="#ED7D31" stroke-width="1.33355" stroke-miterlimit="8" fill="#ED7D31" fill-rule="evenodd"/><text fill="#FFFFFF" font-family="Calibri,Calibri_MSFontService,sans-serif" font-weight="400" font-size="9" transform="matrix(1 0 0 1.00006 505.472 166)">Root <tspan font-size="9" x="1.83365" y="10.9994">at 5</tspan></text><path d="M0 0 35.044 34.0169" stroke="#4472C4" stroke-width="0.666777" stroke-miterlimit="8" fill="none" fill-rule="evenodd" transform="matrix(1 0 0 -1.00006 460.5 222.529)"/><path d="M588.161 358.995 534.5 188.51" stroke="#4472C4" stroke-width="0.666777" stroke-miterlimit="8" fill="none" fill-rule="evenodd"/><path d="M623.5 517.029C623.5 501.84 635.812 489.527 651 489.527 666.188 489.527 678.5 501.84 678.5 517.029 678.5 532.217 666.188 544.53 651 544.53 635.812 544.53 623.5 532.217 623.5 517.029Z" stroke="#507E32" stroke-width="1.33355" stroke-miterlimit="8" fill="#70AD47" fill-rule="evenodd" fill-opacity="0.6"/><text fill="#FFFFFF" font-family="Calibri,Calibri_MSFontService,sans-serif" font-weight="400" font-size="16" transform="matrix(1 0 0 1.00006 641.727 513)">Sig <tspan font-size="16" x="5.08746" y="17.999">6</tspan></text><path d="M516.361 122.069C471.829 149.662 337.945 274.633 305.657 325.754 273.37 376.876 272.677 410.251 322.638 428.799 372.6 447.347 563.724 481.809 605.425 437.042 647.127 392.275 587.578 212.749 572.849 160.196 558.121 107.643 560.893 94.4763 516.361 122.069Z" stroke="#2F528F" stroke-width="2.00033" stroke-miterlimit="8" stroke-dasharray="8.00132 6.00099" fill="none" fill-rule="evenodd"/><path d="M0-0.666777 5.33422-0.666777 5.33422 0.666777 0 0.666777ZM9.33488-0.666777 14.6691-0.666777 14.6691 0.666777 9.33488 0.666777ZM18.6698-0.666777 24.004-0.666777 24.004 0.666777 18.6698 0.666777ZM28.0046-0.666777 33.3388-0.666777 33.3388 0.666777 28.0046 0.666777ZM37.3395-0.666777 42.6737-0.666777 42.6737 0.666777 37.3395 0.666777ZM46.6744-0.666777 52.0086-0.666777 52.0086 0.666777 46.6744 0.666777ZM56.0093-0.666777 61.3435-0.666777 61.3435 0.666777 56.0093 0.666777ZM65.3441-0.666777 70.6784-0.666777 70.6784 0.666777 65.3441 0.666777ZM74.679-0.666777 80.0132-0.666777 80.0132 0.666777 74.679 0.666777ZM84.0139-0.666777 89.3481-0.666777 89.3481 0.666777 84.0139 0.666777ZM93.3488-0.666777 98.683-0.666777 98.683 0.666777 93.3488 0.666777ZM102.684-0.666777 108.018-0.666777 108.018 0.666777 102.684 0.666777ZM112.019-0.666777 117.353-0.666777 117.353 0.666777 112.019 0.666777ZM121.353-0.666777 126.688-0.666777 126.688 0.666777 121.353 0.666777ZM130.688-0.666777 136.022-0.666777 136.022 0.666777 130.688 0.666777ZM140.023-0.666777 145.357-0.666777 145.357 0.666777 140.023 0.666777ZM149.358-0.666777 154.692-0.666777 154.692 0.666777 149.358 0.666777ZM158.693-0.666777 164.027-0.666777 164.027 0.666777 158.693 0.666777ZM168.028-0.666777 173.362-0.666777 173.362 0.666777 168.028 0.666777ZM177.363-0.666777 182.697-0.666777 182.697 0.666777 177.363 0.666777ZM186.698-0.666777 192.032-0.666777 192.032 0.666777 186.698 0.666777ZM196.032-0.666777 201.367-0.666777 201.367 0.666777 196.032 0.666777ZM205.367-0.666777 210.702-0.666777 210.702 0.666777 205.367 0.666777ZM214.702-0.666777 220.036-0.666777 220.036 0.666777 214.702 0.666777ZM224.037-0.666777 229.371-0.666777 229.371 0.666777 224.037 0.666777ZM233.372-0.666777 238.706-0.666777 238.706 0.666777 233.372 0.666777ZM242.707-0.666777 248.041-0.666777 248.041 0.666777 242.707 0.666777ZM252.042-0.666777 257.376-0.666777 257.376 0.666777 252.042 0.666777ZM261.377-0.666777 266.711-0.666777 266.711 0.666777 261.377 0.666777ZM270.711-0.666777 276.046-0.666777 276.046 0.666777 270.711 0.666777ZM280.046-0.666777 285.381-0.666777 285.381 0.666777 280.046 0.666777ZM289.381-0.666777 294.715-0.666777 294.715 0.666777 289.381 0.666777ZM298.716-0.666777 304.05-0.666777 304.05 0.666777 298.716 0.666777ZM308.051-0.666777 313.385-0.666777 313.385 0.666777 308.051 0.666777ZM317.386-0.666777 321.419-0.666777 321.419 1.96778 320.085 1.96778 320.085 0 320.752 0.666777 317.386 0.666777ZM321.419 5.96844 321.419 11.3027 320.085 11.3027 320.085 5.96844ZM321.419 15.3033 321.419 20.6375 320.085 20.6375 320.085 15.3033ZM321.419 24.6382 321.419 29.9724 320.085 29.9724 320.085 24.6382ZM321.419 33.9731 321.419 39.3073 320.085 39.3073 320.085 33.9731ZM321.419 43.3079 321.419 48.6422 320.085 48.6422 320.085 43.3079ZM321.419 52.6428 321.419 57.977 320.085 57.977 320.085 52.6428ZM321.419 61.9777 321.419 67.3119 320.085 67.3119 320.085 61.9777ZM321.419 71.3126 321.419 76.6468 320.085 76.6468 320.085 71.3126ZM321.419 80.6475 321.419 85.9817 320.085 85.9817 320.085 80.6475ZM321.419 89.9823 321.419 95.3166 320.085 95.3166 320.085 89.9823ZM321.419 99.3172 321.419 101.869 320.085 101.869 320.085 99.3172ZM324.753 100.536 320.752 108.537 316.752 100.536Z" fill="#4472C4" transform="matrix(-1.83697e-16 -1.00006 -1 1.83707e-16 651.037 489.279)"/><text fill="#4472C4" font-family="Calibri,Calibri_MSFontService,sans-serif" font-weight="400" font-size="21" transform="matrix(1 0 0 1.00006 601.475 154)">signs<tspan font-weight="700" font-size="18" x="-317.169" y="2.99983">compacted tree at 5, </tspan><tspan font-weight="700" font-size="18" x="-317.169" y="24.9986">included in Sig 6</tspan></text></g></svg>