<svg width="1008" height="756" xmlns="http://www.w3.org/2000/svg" xmlns:xlink="http://www.w3.org/1999/xlink" overflow="hidden"><defs><clipPath id="clip0"><rect x="0" y="0" width="1008" height="756"/></clipPath></defs><g clip-path="url(#clip0)"><rect x="0" y="0" width="1008" height="756.042" fill="#FFFFFF"/><path d="M161.5 471.026C161.5 455.837 174.036 443.524 189.5 443.524 204.964 443.524 217.5 455.837 217.5 471.026 217.5 486.215 204.964 498.527 189.5 498.527 174.036 498.527 161.5 486.215 161.5 471.026Z" stroke="#2F528F" stroke-width="1.33355" stroke-miterlimit="8" fill="#4472C4" fill-rule="evenodd" fill-opacity="0.341176"/><text fill="#FFFFFF" font-family="Calibri,Calibri_MSFontService,sans-serif" font-weight="400" font-size="16" transform="matrix(1 0 0 1.00006 180.338 476)">H1</text><path d="M224.5 471.026C224.5 455.837 236.812 443.524 252 443.524 267.188 443.524 279.5 455.837 279.5 471.026 279.5 486.215 267.188 498.527 252 498.527 236.812 498.527 224.5 486.215 224.5 471.026Z" stroke="#2F528F" stroke-width="1.33355" stroke-miterlimit="8" fill="#4472C4" fill-rule="evenodd" fill-opacity="0.341176"/><text fill="#FFFFFF" font-family="Calibri,Calibri_MSFontService,sans-serif" font-weight="400" font-size="16" transform="matrix(1 0 0 1.00006 242.759 476)">H2</text><path d="M286.5 471.026C286.5 455.837 299.036 443.524 314.5 443.524 329.964 443.524 342.5 455.837 342.5 471.026 342.5 486.215 329.964 498.527 314.5 498.527 299.036 498.527 286.5 486.215 286.5 471.026Z" stroke="#2F528F" stroke-width="1.33355" stroke-miterlimit="8" fill="#4472C4" fill-rule="evenodd" fill-opacity="0.341176"/><text fill="#FFFFFF" font-family="Calibri,Calibri_MSFontService,sans-serif" font-weight="400" font-size="16" transform="matrix(1 0 0 1.00006 305.18 476)">H3</text><path d="M349.5 471.026C349.5 455.837 361.812 443.524 377 443.524 392.188 443.524 404.5 455.837 404.5 471.026 404.5 486.215 392.188 498.527 377 498.527 361.812 498.527 349.5 486.215 349.5 471.026Z" stroke="#2F528F" stroke-width="1.33355" stroke-miterlimit="8" fill="#4472C4" fill-rule="evenodd" fill-opacity="0.341176"/><text fill="#FFFFFF" font-family="Calibri,Calibri_MSFontService,sans-serif" font-weight="400" font-size="16" transform="matrix(1 0 0 1.00006 367.6 476)">H4</text><path d="M196.5 403.022C196.5 387.834 209.036 375.521 224.5 375.521 239.964 375.521 252.5 387.834 252.5 403.022 252.5 418.211 239.964 430.524 224.5 430.524 209.036 430.524 196.5 418.211 196.5 403.022Z" stroke="#2F528F" stroke-width="1.33355" stroke-miterlimit="8" fill="#4472C4" fill-rule="evenodd" fill-opacity="0.341176"/><text fill="#FFFFFF" font-family="Calibri,Calibri_MSFontService,sans-serif" font-weight="400" font-size="12" transform="matrix(1 0 0 1.00006 214.208 406)">H12</text><path d="M314.5 403.022C314.5 387.834 326.812 375.521 342 375.521 357.188 375.521 369.5 387.834 369.5 403.022 369.5 418.211 357.188 430.524 342 430.524 326.812 430.524 314.5 418.211 314.5 403.022Z" stroke="#2F528F" stroke-width="1.33355" stroke-miterlimit="8" fill="#4472C4" fill-rule="evenodd" fill-opacity="0.341176"/><text fill="#FFFFFF" font-family="Calibri,Calibri_MSFontService,sans-serif" font-weight="400" font-size="12" transform="matrix(1 0 0 1.00006 331.897 406)">H34</text><path d="M0 0 15.2463 20.8571" stroke="#4472C4" stroke-width="0.666777" stroke-miterlimit="8" fill="none" fill-rule="evenodd" transform="matrix(1 0 0 -1.00006 189.5 443.382)"/><path d="M251.594 443.382 243.5 422.523" stroke="#4472C4" stroke-width="0.666777" stroke-miterlimit="8" fill="none" fill-rule="evenodd"/><path d="M0 0 8.09404 20.8571" stroke="#4472C4" stroke-width="0.666777" stroke-miterlimit="8" fill="none" fill-rule="evenodd" transform="matrix(1 0 0 -1.00006 314.5 443.382)"/><path d="M376.746 443.382 361.5 422.523" stroke="#4472C4" stroke-width="0.666777" stroke-miterlimit="8" fill="none" fill-rule="evenodd"/><path d="M0 0 48.0301 29.3465" stroke="#4472C4" stroke-width="0.666777" stroke-miterlimit="8" fill="none" fill-rule="evenodd" transform="matrix(1 0 0 -1.00006 224.5 374.867)"/><path d="M411.5 471.026C411.5 455.837 423.812 443.524 439 443.524 454.188 443.524 466.5 455.837 466.5 471.026 466.5 486.215 454.188 498.527 439 498.527 423.812 498.527 411.5 486.215 411.5 471.026Z" stroke="#2F5597" stroke-width="1.33355" stroke-miterlimit="8" fill="#4472C4" fill-rule="evenodd"/><text fill="#FFFFFF" font-family="Calibri,Calibri_MSFontService,sans-serif" font-weight="400" font-size="16" transform="matrix(1 0 0 1.00006 430.021 476)">H5</text><path d="M161.5 601.533C161.5 586.068 173.812 573.532 189 573.532 204.188 573.532 216.5 586.068 216.5 601.533 216.5 616.998 204.188 629.535 189 629.535 173.812 629.535 161.5 616.998 161.5 601.533Z" stroke="#2F528F" stroke-width="1.33355" stroke-miterlimit="8" fill="#4472C4" fill-rule="evenodd" fill-opacity="0.6"/><text fill="#FFFFFF" font-family="Calibri,Calibri_MSFontService,sans-serif" font-weight="400" font-size="16" transform="matrix(1 0 0 1.00006 181.445 597)">Tx<tspan font-size="16" x="3.33388" y="17.999">1</tspan></text><path d="M224.5 601.533C224.5 586.068 236.812 573.532 252 573.532 267.188 573.532 279.5 586.068 279.5 601.533 279.5 616.998 267.188 629.535 252 629.535 236.812 629.535 224.5 616.998 224.5 601.533Z" stroke="#2F528F" stroke-width="1.33355" stroke-miterlimit="8" fill="#4472C4" fill-rule="evenodd" fill-opacity="0.6"/><text fill="#FFFFFF" font-family="Calibri,Calibri_MSFontService,sans-serif" font-weight="400" font-size="16" transform="matrix(1 0 0 1.00006 244.259 597)">Tx<tspan font-size="16" x="3.33388" y="17.999">2</tspan></text><path d="M287.5 601.533C287.5 586.068 299.812 573.532 315 573.532 330.188 573.532 342.5 586.068 342.5 601.533 342.5 616.998 330.188 629.535 315 629.535 299.812 629.535 287.5 616.998 287.5 601.533Z" stroke="#2F528F" stroke-width="1.33355" stroke-miterlimit="8" fill="#4472C4" fill-rule="evenodd" fill-opacity="0.6"/><text fill="#FFFFFF" font-family="Calibri,Calibri_MSFontService,sans-serif" font-weight="400" font-size="16" transform="matrix(1 0 0 1.00006 307.467 597)">Tx<tspan font-size="16" x="3.33389" y="17.999">3</tspan></text><path d="M349.5 602.033C349.5 586.845 361.812 574.532 377 574.532 392.188 574.532 404.5 586.845 404.5 602.033 404.5 617.222 392.188 629.535 377 629.535 361.812 629.535 349.5 617.222 349.5 602.033Z" stroke="#2F528F" stroke-width="1.33355" stroke-miterlimit="8" fill="#4472C4" fill-rule="evenodd" fill-opacity="0.6"/><text fill="#FFFFFF" font-family="Calibri,Calibri_MSFontService,sans-serif" font-weight="400" font-size="16" transform="matrix(1 0 0 1.00006 369.101 598)">Tx<tspan font-size="16" x="3.33389" y="17.999">4</tspan></text><rect x="137" y="560.031" width="775" height="149.008" stroke="#4472C4" stroke-width="4.00066" stroke-miterlimit="8" fill="none"/><text fill="#2F5597" font-family="Calibri,Calibri_MSFontService,sans-serif" font-weight="700" font-size="31" transform="matrix(1 0 0 1.00006 154.025 691)">Ledger</text><path d="M0 0 0.393346 75.468" stroke="#4472C4" stroke-width="0.666777" stroke-miterlimit="8" stroke-dasharray="2.66711 2.00033" fill="none" fill-rule="evenodd" transform="matrix(-1 0 0 1.00006 189.893 498.527)"/><path d="M0 0 0.000210008 75.468" stroke="#4472C4" stroke-width="0.666777" stroke-miterlimit="8" stroke-dasharray="2.66711 2.00033" fill="none" fill-rule="evenodd" transform="matrix(-1 0 0 1.00006 252.5 498.527)"/><path d="M314.5 498.527 315.287 574" stroke="#4472C4" stroke-width="0.666777" stroke-miterlimit="8" stroke-dasharray="2.66711 2.00033" fill="none" fill-rule="evenodd"/><path d="M0 0 0.000210008 75.7975" stroke="#4472C4" stroke-width="0.666777" stroke-miterlimit="8" stroke-dasharray="2.66711 2.00033" fill="none" fill-rule="evenodd" transform="matrix(-1 0 0 1.00006 376.5 498.527)"/><path d="M412.5 601.533C412.5 586.068 424.812 573.532 440 573.532 455.188 573.532 467.5 586.068 467.5 601.533 467.5 616.998 455.188 629.535 440 629.535 424.812 629.535 412.5 616.998 412.5 601.533Z" stroke="#2F528F" stroke-width="1.33355" stroke-miterlimit="8" fill="#4472C4" fill-rule="evenodd" fill-opacity="0.6"/><text fill="#FFFFFF" font-family="Calibri,Calibri_MSFontService,sans-serif" font-weight="400" font-size="16" transform="matrix(1 0 0 1.00006 432.071 597)">Tx<tspan font-size="16" x="3.33386" y="17.999">5</tspan></text><path d="M439.5 498.527 440.049 574" stroke="#4472C4" stroke-width="0.666777" stroke-miterlimit="8" stroke-dasharray="2.66711 2.00033" fill="none" fill-rule="evenodd"/><path d="M264.5 326.018C264.5 310.829 276.812 298.516 292 298.516 307.188 298.516 319.5 310.829 319.5 326.018 319.5 341.207 307.188 353.52 292 353.52 276.812 353.52 264.5 341.207 264.5 326.018Z" stroke="#2F528F" stroke-width="1.33355" stroke-miterlimit="8" fill="#4472C4" fill-rule="evenodd"/><text fill="#FFFFFF" font-family="Calibri,Calibri_MSFontService,sans-serif" font-weight="400" font-size="7" transform="matrix(1 0 0 1.00006 282.778 328)">H1234</text><path d="M342.078 374.867 311.5 345.519" stroke="#4472C4" stroke-width="0.666777" stroke-miterlimit="8" fill="none" fill-rule="evenodd"/><path d="M390.5 248.014C390.5 232.825 402.812 220.512 418 220.512 433.188 220.512 445.5 232.825 445.5 248.014 445.5 263.202 433.188 275.515 418 275.515 402.812 275.515 390.5 263.202 390.5 248.014Z" stroke="#4472C4" stroke-width="1.33355" stroke-miterlimit="8" fill="#4472C4" fill-rule="evenodd"/><text fill="#FFFFFF" font-family="Calibri,Calibri_MSFontService,sans-serif" font-weight="400" font-size="9" transform="matrix(1 0 0 1.00006 408.195 251)">H1<tspan font-size="9" x="10.5017" y="0">-</tspan>8</text><path d="M0 0 86.6696 39.3056" stroke="#4472C4" stroke-width="0.666777" stroke-miterlimit="8" fill="none" fill-rule="evenodd" transform="matrix(1 0 0 -1.00006 311.5 306.823)"/><path d="M0 0 12.1166 21.7483" stroke="#4472C4" stroke-width="0.666777" stroke-miterlimit="8" fill="none" fill-rule="evenodd" transform="matrix(1 0 0 -1.00006 439.5 443.273)"/><path d="M475.5 602.533C475.5 587.068 487.812 574.532 503 574.532 518.188 574.532 530.5 587.068 530.5 602.533 530.5 617.998 518.188 630.535 503 630.535 487.812 630.535 475.5 617.998 475.5 602.533Z" stroke="#507E32" stroke-width="1.33355" stroke-miterlimit="8" fill="#70AD47" fill-rule="evenodd" fill-opacity="0.6"/><text fill="#FFFFFF" font-family="Calibri,Calibri_MSFontService,sans-serif" font-weight="400" font-size="16" transform="matrix(1 0 0 1.00006 493.341 598)">Sig <tspan font-size="16" x="5.08749" y="17.999">6</tspan></text><path d="M475.5 471.026C475.5 455.837 487.812 443.524 503 443.524 518.188 443.524 530.5 455.837 530.5 471.026 530.5 486.215 518.188 498.527 503 498.527 487.812 498.527 475.5 486.215 475.5 471.026Z" stroke="#2F5597" stroke-width="1.33355" stroke-miterlimit="8" fill="#4472C4" fill-rule="evenodd"/><text fill="#FFFFFF" font-family="Calibri,Calibri_MSFontService,sans-serif" font-weight="400" font-size="16" transform="matrix(1 0 0 1.00006 493.591 476)">H6</text><path d="M502.5 498.527 502.5 575.074" stroke="#4472C4" stroke-width="0.666777" stroke-miterlimit="8" stroke-dasharray="2.66711 2.00033" fill="none" fill-rule="evenodd"/><path d="M566.5 602.533C566.5 587.068 579.036 574.532 594.5 574.532 609.964 574.532 622.5 587.068 622.5 602.533 622.5 617.998 609.964 630.535 594.5 630.535 579.036 630.535 566.5 617.998 566.5 602.533Z" stroke="#2F528F" stroke-width="1.33355" stroke-miterlimit="8" fill="#4472C4" fill-rule="evenodd" fill-opacity="0.6"/><text fill="#FFFFFF" font-family="Calibri,Calibri_MSFontService,sans-serif" font-weight="400" font-size="16" transform="matrix(1 0 0 1.00006 586.68 598)">Tx<tspan font-size="16" x="3.33392" y="17.999">7</tspan></text><path d="M443.5 402.022C443.5 386.834 455.812 374.521 471 374.521 486.188 374.521 498.5 386.834 498.5 402.022 498.5 417.211 486.188 429.524 471 429.524 455.812 429.524 443.5 417.211 443.5 402.022Z" stroke="#2F528F" stroke-width="1.33355" stroke-miterlimit="8" fill="#4472C4" fill-rule="evenodd"/><text fill="#FFFFFF" font-family="Calibri,Calibri_MSFontService,sans-serif" font-weight="400" font-size="12" transform="matrix(1 0 0 1.00006 460.761 405)">H56</text><path d="M502.872 443.273 490.5 421.523" stroke="#4472C4" stroke-width="0.666777" stroke-miterlimit="8" fill="none" fill-rule="evenodd"/><path d="M0 0 51.64 34.1421" stroke="#4472C4" stroke-width="0.666777" stroke-miterlimit="8" fill="none" fill-rule="evenodd" transform="matrix(1 0 0 -1.00006 470.5 374.663)"/><path d="M629.5 602.533C629.5 587.068 641.812 574.532 657 574.532 672.188 574.532 684.5 587.068 684.5 602.533 684.5 617.998 672.188 630.535 657 630.535 641.812 630.535 629.5 617.998 629.5 602.533Z" stroke="#2F528F" stroke-width="1.33355" stroke-miterlimit="8" fill="#4472C4" fill-rule="evenodd" fill-opacity="0.6"/><text fill="#FFFFFF" font-family="Calibri,Calibri_MSFontService,sans-serif" font-weight="400" font-size="16" transform="matrix(1 0 0 1.00006 649.412 598)">Tx<tspan font-size="16" x="3.33386" y="17.999">8</tspan></text><path d="M692.5 601.533C692.5 586.068 704.812 573.532 720 573.532 735.188 573.532 747.5 586.068 747.5 601.533 747.5 616.998 735.188 629.535 720 629.535 704.812 629.535 692.5 616.998 692.5 601.533Z" stroke="#2F528F" stroke-width="1.33355" stroke-miterlimit="8" fill="#4472C4" fill-rule="evenodd" fill-opacity="0.6"/><text fill="#FFFFFF" font-family="Calibri,Calibri_MSFontService,sans-serif" font-weight="400" font-size="16" transform="matrix(1 0 0 1.00006 712.145 597)">Tx<tspan font-size="16" x="3.33386" y="17.999">9</tspan></text><path d="M754.5 601.533C754.5 586.068 767.036 573.532 782.5 573.532 797.964 573.532 810.5 586.068 810.5 601.533 810.5 616.998 797.964 629.535 782.5 629.535 767.036 629.535 754.5 616.998 754.5 601.533Z" stroke="#2F528F" stroke-width="1.33355" stroke-miterlimit="8" fill="#4472C4" fill-rule="evenodd" fill-opacity="0.6"/><text fill="#FFFFFF" font-family="Calibri,Calibri_MSFontService,sans-serif" font-weight="400" font-size="16" transform="matrix(1 0 0 1.00006 774.881 597)">Tx<tspan font-size="16" x="-0.586731" y="17.999">10</tspan></text><path d="M816.5 601.533C816.5 586.068 828.812 573.532 844 573.532 859.188 573.532 871.5 586.068 871.5 601.533 871.5 616.998 859.188 629.535 844 629.535 828.812 629.535 816.5 616.998 816.5 601.533Z" stroke="#507E32" stroke-width="1.33355" stroke-miterlimit="8" fill="#70AD47" fill-rule="evenodd" fill-opacity="0.6"/><text fill="#FFFFFF" font-family="Calibri,Calibri_MSFontService,sans-serif" font-weight="400" font-size="16" transform="matrix(1 0 0 1.00006 834.24 597)">Sig <tspan font-size="16" x="1.16687" y="17.999">11</tspan></text><path d="M566.5 471.026C566.5 455.837 578.812 443.524 594 443.524 609.188 443.524 621.5 455.837 621.5 471.026 621.5 486.215 609.188 498.527 594 498.527 578.812 498.527 566.5 486.215 566.5 471.026Z" stroke="#2F5597" stroke-width="1.33355" stroke-miterlimit="8" fill="#4472C4" fill-rule="evenodd"/><text fill="#FFFFFF" font-family="Calibri,Calibri_MSFontService,sans-serif" font-weight="400" font-size="16" transform="matrix(1 0 0 1.00006 584.572 476)">H7</text><path d="M629.5 470.026C629.5 454.837 641.812 442.524 657 442.524 672.188 442.524 684.5 454.837 684.5 470.026 684.5 485.215 672.188 497.527 657 497.527 641.812 497.527 629.5 485.215 629.5 470.026Z" stroke="#2F5597" stroke-width="1.33355" stroke-miterlimit="8" fill="#4472C4" fill-rule="evenodd"/><text fill="#FFFFFF" font-family="Calibri,Calibri_MSFontService,sans-serif" font-weight="400" font-size="16" transform="matrix(1 0 0 1.00006 647.912 475)">H8</text><path d="M692.5 470.026C692.5 454.837 704.812 442.524 720 442.524 735.188 442.524 747.5 454.837 747.5 470.026 747.5 485.215 735.188 497.527 720 497.527 704.812 497.527 692.5 485.215 692.5 470.026Z" stroke="#2F5597" stroke-width="1.33355" stroke-miterlimit="8" fill="#4472C4" fill-rule="evenodd"/><text fill="#FFFFFF" font-family="Calibri,Calibri_MSFontService,sans-serif" font-weight="400" font-size="16" transform="matrix(1 0 0 1.00006 710.645 475)">H9</text><path d="M754.5 470.026C754.5 454.837 767.036 442.524 782.5 442.524 797.964 442.524 810.5 454.837 810.5 470.026 810.5 485.215 797.964 497.527 782.5 497.527 767.036 497.527 754.5 485.215 754.5 470.026Z" stroke="#2F5597" stroke-width="1.33355" stroke-miterlimit="8" fill="#4472C4" fill-rule="evenodd"/><text fill="#FFFFFF" font-family="Calibri,Calibri_MSFontService,sans-serif" font-weight="400" font-size="16" transform="matrix(1 0 0 1.00006 777.295 466)">H<tspan font-size="16" x="-3.00049" y="17.999">10</tspan></text><path d="M598.5 395.022C598.5 379.833 610.812 367.52 626 367.52 641.188 367.52 653.5 379.833 653.5 395.022 653.5 410.21 641.188 422.523 626 422.523 610.812 422.523 598.5 410.21 598.5 395.022Z" stroke="#2F528F" stroke-width="1.33355" stroke-miterlimit="8" fill="#4472C4" fill-rule="evenodd"/><text fill="#FFFFFF" font-family="Calibri,Calibri_MSFontService,sans-serif" font-weight="400" font-size="12" transform="matrix(1 0 0 1.00006 615.629 398)">H78</text><path d="M0 0 12.4334 28.9511" stroke="#4472C4" stroke-width="0.666777" stroke-miterlimit="8" fill="none" fill-rule="evenodd" transform="matrix(1 0 0 -1.00006 593.5 443.476)"/><path d="M657.326 442.914 645.5 414.523" stroke="#4472C4" stroke-width="0.666777" stroke-miterlimit="8" fill="none" fill-rule="evenodd"/><path d="M719.5 398.022C719.5 382.833 732.036 370.52 747.5 370.52 762.964 370.52 775.5 382.833 775.5 398.022 775.5 413.211 762.964 425.523 747.5 425.523 732.036 425.523 719.5 413.211 719.5 398.022Z" stroke="#2F528F" stroke-width="1.33355" stroke-miterlimit="8" fill="#4472C4" fill-rule="evenodd"/><text fill="#FFFFFF" font-family="Calibri,Calibri_MSFontService,sans-serif" font-weight="400" font-size="9" transform="matrix(1 0 0 1.00006 737.195 401)">H910</text><path d="M783.058 442.626 767.5 417.523" stroke="#4472C4" stroke-width="0.666777" stroke-miterlimit="8" fill="none" fill-rule="evenodd"/><path d="M0 0 8.09404 25.1021" stroke="#4472C4" stroke-width="0.666777" stroke-miterlimit="8" fill="none" fill-rule="evenodd" transform="matrix(1 0 0 -1.00006 719.5 442.626)"/><path d="M514.5 320.518C514.5 305.053 526.812 292.516 542 292.516 557.188 292.516 569.5 305.053 569.5 320.518 569.5 335.983 557.188 348.519 542 348.519 526.812 348.519 514.5 335.983 514.5 320.518Z" stroke="#2F528F" stroke-width="1.33355" stroke-miterlimit="8" fill="#4472C4" fill-rule="evenodd"/><text fill="#FFFFFF" font-family="Calibri,Calibri_MSFontService,sans-serif" font-weight="400" font-size="7" transform="matrix(1 0 0 1.00006 532.942 322)">H5678</text><path d="M606.107 375.554 561.5 340.519" stroke="#4472C4" stroke-width="0.666777" stroke-miterlimit="8" fill="none" fill-rule="evenodd"/><path d="M522.833 301.135 437.5 267.515" stroke="#4472C4" stroke-width="0.666777" stroke-miterlimit="8" fill="none" fill-rule="evenodd"/><path d="M629.5 156.009C629.5 140.82 641.812 128.507 657 128.507 672.188 128.507 684.5 140.82 684.5 156.009 684.5 171.197 672.188 183.51 657 183.51 641.812 183.51 629.5 171.197 629.5 156.009Z" stroke="#ED7D31" stroke-width="1.33355" stroke-miterlimit="8" fill="#ED7D31" fill-rule="evenodd"/><text fill="#FFFFFF" font-family="Calibri,Calibri_MSFontService,sans-serif" font-weight="400" font-size="9" transform="matrix(1 0 0 1.00006 647.133 153)">Root <tspan font-size="9" x="-0.500061" y="10.9994">at 10</tspan></text><path d="M747.773 370.629 676.5 175.51" stroke="#4472C4" stroke-width="0.666777" stroke-miterlimit="8" fill="none" fill-rule="evenodd"/><path d="M0 0 183.752 92.1818" stroke="#4472C4" stroke-width="0.666777" stroke-miterlimit="8" fill="none" fill-rule="evenodd" transform="matrix(1 0 0 -1.00006 445.5 247.695)"/><path d="M593.5 498.527 594.108 575.074" stroke="#4472C4" stroke-width="0.666777" stroke-miterlimit="8" stroke-dasharray="2.66711 2.00033" fill="none" fill-rule="evenodd"/><path d="M657.5 497.527 657.5 574.635" stroke="#4472C4" stroke-width="0.666777" stroke-miterlimit="8" stroke-dasharray="2.66711 2.00033" fill="none" fill-rule="evenodd"/><path d="M719.5 497.527 719.5 573.561" stroke="#4472C4" stroke-width="0.666777" stroke-miterlimit="8" stroke-dasharray="2.66711 2.00033" fill="none" fill-rule="evenodd"/><path d="M782.5 497.527 782.5 573.561" stroke="#4472C4" stroke-width="0.666777" stroke-miterlimit="8" stroke-dasharray="2.66711 2.00033" fill="none" fill-rule="evenodd"/><path d="M0-0.666777 5.33422-0.666777 5.33422 0.666777 0 0.666777ZM9.33488-0.666777 14.6691-0.666777 14.6691 0.666777 9.33488 0.666777ZM18.6698-0.666777 24.004-0.666777 24.004 0.666777 18.6698 0.666777ZM28.0046-0.666777 33.3388-0.666777 33.3388 0.666777 28.0046 0.666777ZM37.3395-0.666777 42.6737-0.666777 42.6737 0.666777 37.3395 0.666777ZM46.6744-0.666777 52.0086-0.666777 52.0086 0.666777 46.6744 0.666777ZM56.0093-0.666777 61.3435-0.666777 61.3435 0.666777 56.0093 0.666777ZM65.3441-0.666777 70.6784-0.666777 70.6784 0.666777 65.3441 0.666777ZM74.679-0.666777 80.0132-0.666777 80.0132 0.666777 74.679 0.666777ZM84.0139-0.666777 89.3481-0.666777 89.3481 0.666777 84.0139 0.666777ZM93.3488-0.666777 98.683-0.666777 98.683 0.666777 93.3488 0.666777ZM102.684-0.666777 108.018-0.666777 108.018 0.666777 102.684 0.666777ZM112.019-0.666777 117.353-0.666777 117.353 0.666777 112.019 0.666777ZM121.353-0.666777 126.688-0.666777 126.688 0.666777 121.353 0.666777ZM130.688-0.666777 136.022-0.666777 136.022 0.666777 130.688 0.666777ZM140.023-0.666777 145.357-0.666777 145.357 0.666777 140.023 0.666777ZM149.358-0.666777 154.692-0.666777 154.692 0.666777 149.358 0.666777ZM158.693-0.666777 164.027-0.666777 164.027 0.666777 158.693 0.666777ZM168.028-0.666777 173.362-0.666777 173.362 0.666777 168.028 0.666777ZM177.363-0.666777 182.697-0.666777 182.697 0.666777 177.363 0.666777ZM186.698-0.666777 192.032-0.666777 192.032 0.666777 186.698 0.666777ZM196.032-0.666777 201.367-0.666777 201.367 0.666777 196.032 0.666777ZM205.367-0.666777 210.702-0.666777 210.702 0.666777 205.367 0.666777ZM214.702-0.666777 220.036-0.666777 220.036 0.666777 214.702 0.666777ZM224.037-0.666777 229.371-0.666777 229.371 0.666777 224.037 0.666777ZM233.372-0.666777 238.706-0.666777 238.706 0.666777 233.372 0.666777ZM242.707-0.666777 248.041-0.666777 248.041 0.666777 242.707 0.666777ZM252.042-0.666777 257.376-0.666777 257.376 0.666777 252.042 0.666777ZM261.377-0.666777 266.711-0.666777 266.711 0.666777 261.377 0.666777ZM270.711-0.666777 276.046-0.666777 276.046 0.666777 270.711 0.666777ZM280.046-0.666777 285.381-0.666777 285.381 0.666777 280.046 0.666777ZM289.381-0.666777 294.715-0.666777 294.715 0.666777 289.381 0.666777ZM298.716-0.666777 304.05-0.666777 304.05 0.666777 298.716 0.666777ZM308.051-0.666777 313.385-0.666777 313.385 0.666777 308.051 0.666777ZM317.386-0.666777 322.72-0.666777 322.72 0.666777 317.386 0.666777ZM326.721-0.666777 332.055-0.666777 332.055 0.666777 326.721 0.666777ZM336.056-0.666777 341.39-0.666777 341.39 0.666777 336.056 0.666777ZM345.39-0.666777 350.725-0.666777 350.725 0.666777 345.39 0.666777ZM354.725-0.666777 360.06-0.666777 360.06 0.666777 354.725 0.666777ZM364.06-0.666777 369.394-0.666777 369.394 0.666777 364.06 0.666777ZM373.395-0.666777 378.729-0.666777 378.729 0.666777 373.395 0.666777ZM382.73-0.666777 388.064-0.666777 388.064 0.666777 382.73 0.666777ZM392.065-0.666777 397.399-0.666777 397.399 0.666777 392.065 0.666777ZM401.4-0.666777 406.734-0.666777 406.734 0.666777 401.4 0.666777ZM410.735-0.666777 416.069-0.666777 416.069 0.666777 410.735 0.666777ZM418.889 1.84681 418.889 7.18103 417.556 7.18103 417.556 1.84681ZM418.889 11.1817 418.889 16.5159 417.556 16.5159 417.556 11.1817ZM418.889 20.5166 418.889 25.8508 417.556 25.8508 417.556 20.5166ZM418.889 29.8514 418.889 35.1857 417.556 35.1857 417.556 29.8514ZM418.889 39.1863 418.889 44.5205 417.556 44.5205 417.556 39.1863ZM418.889 48.5212 418.889 53.8554 417.556 53.8554 417.556 48.5212ZM418.889 57.8561 418.889 63.1903 417.556 63.1903 417.556 57.8561ZM418.889 67.191 418.889 72.5252 417.556 72.5252 417.556 67.191ZM418.889 76.5258 418.889 81.86 417.556 81.86 417.556 76.5258ZM418.889 85.8607 418.889 91.1949 417.556 91.1949 417.556 85.8607ZM418.889 95.1956 418.889 100.53 417.556 100.53 417.556 95.1956ZM418.889 104.53 418.889 109.865 417.556 109.865 417.556 104.53ZM418.889 113.865 418.889 119.2 417.556 119.2 417.556 113.865ZM418.889 123.2 418.889 128.534 417.556 128.534 417.556 123.2ZM418.889 132.535 418.889 137.869 417.556 137.869 417.556 132.535ZM418.889 141.87 418.889 147.204 417.556 147.204 417.556 141.87ZM418.889 151.205 418.889 152.723 417.556 152.723 417.556 151.205ZM422.223 151.389 418.223 159.39 414.222 151.389Z" fill="#4472C4" transform="matrix(-1.83697e-16 -1.00006 -1 1.83707e-16 843.89 573.754)"/><text fill="#4472C4" font-family="Calibri,Calibri_MSFontService,sans-serif" font-weight="400" font-size="21" transform="matrix(1 0 0 1.00006 794.745 148)">signs<tspan font-weight="700" font-size="18" x="-501.182" y="-54.997">compacted tree </tspan><tspan font-weight="700" font-size="18" x="-501.182" y="-32.9982">from 6 to 10, </tspan><tspan font-weight="700" font-size="18" x="-501.182" y="-10.9994">included in Sig 11</tspan></text><path d="M664.229 90.1361C557.457 57.4601 247.013 227.143 213.248 299.13 179.482 371.117 354.864 489.381 461.636 522.057 568.408 554.733 819.45 567.09 853.88 495.186 888.309 423.282 771.001 122.812 664.229 90.1361Z" stroke="#2F528F" stroke-width="2.00033" stroke-miterlimit="8" stroke-dasharray="8.00132 6.00099" fill="none" fill-rule="evenodd"/></g></svg>