<svg width="1167" height="720" xmlns="http://www.w3.org/2000/svg" xmlns:xlink="http://www.w3.org/1999/xlink" overflow="hidden"><defs><clipPath id="clip0"><rect x="0" y="0" width="1167" height="720"/></clipPath></defs><g clip-path="url(#clip0)"><rect x="0" y="0" width="1167" height="719.794" fill="#FFFFFF"/><path d="M171.5 153.123 890.972 153.123 890.972 153.79 171.5 153.789ZM889.638 149.456 897.64 153.456 889.638 157.456Z" fill="#4472C4"/><path d="M177.5 230.101 891.578 230.101 891.578 230.768 177.5 230.767ZM890.243 226.434 898.245 230.434 890.243 234.434Z" fill="#4472C4"/><path d="M177.502 315.077 891.58 319.708 891.576 320.374 177.498 315.743ZM890.269 316.032 898.245 320.084 890.217 324.032Z" fill="#4472C4"/><text font-family="Calibri,Calibri_MSFontService,sans-serif" font-weight="400" font-size="19" transform="matrix(1 0 0 0.999714 77.8994 152)">Node 0<tspan font-size="19" x="0" y="23.0066">(primary)</tspan><tspan font-size="19" x="0" y="77.022">Node 1</tspan><tspan font-size="19" x="1.88684" y="163.047">Node 2</tspan></text><path d="M171 162.953 421.319 162.954" stroke="#4472C4" stroke-width="6.00171" stroke-miterlimit="8" fill="none" fill-rule="evenodd"/><path d="M194 239.931 444.319 239.932" stroke="#4472C4" stroke-width="6.00171" stroke-miterlimit="8" fill="none" fill-rule="evenodd"/><path d="M226 330.905 476.319 330.905" stroke="#4472C4" stroke-width="6.00171" stroke-miterlimit="8" fill="none" fill-rule="evenodd"/><path d="M100 566.838 199.101 566.838" stroke="#4472C4" stroke-width="6.00171" stroke-miterlimit="8" fill="none" fill-rule="evenodd"/><text fill="#4472C4" font-family="Calibri,Calibri_MSFontService,sans-serif" font-weight="400" font-size="24" transform="matrix(1 0 0 0.999714 216.546 559)">Initial certificate <tspan font-size="24" x="0" y="29.0083">validity period (24h default, </tspan>cchost<tspan font-size="24" x="343.465" y="29.0083">option)</tspan></text><path d="M362.5 113.468 362.5 373.423" stroke="#00B050" stroke-width="3.00086" stroke-miterlimit="8" stroke-dasharray="12.0034 9.00257" fill="none" fill-rule="evenodd"/><text fill="#70AD47" font-family="Calibri,Calibri_MSFontService,sans-serif" font-weight="700" font-size="19" transform="matrix(1 0 0 0.999714 224.37 62)">Members open service<tspan font-size="19" x="-105.684" y="23.0066">+ </tspan>set_all_nodes_certificates_validity</text><path d="M362 176.949 864.795 176.95" stroke="#A9D18E" stroke-width="6.00171" stroke-miterlimit="8" fill="none" fill-rule="evenodd"/><path d="M362 258.926 864.795 258.926" stroke="#A9D18E" stroke-width="6.00171" stroke-miterlimit="8" fill="none" fill-rule="evenodd"/><path d="M362 347.901 864.795 347.901" stroke="#A9D18E" stroke-width="6.00171" stroke-miterlimit="8" fill="none" fill-rule="evenodd"/><path d="M100 660.811 199.101 660.811" stroke="#A9D18E" stroke-width="6.00171" stroke-miterlimit="8" fill="none" fill-rule="evenodd"/><path d="M430.5 445.039 891.203 445.039 891.203 445.706 430.5 445.706ZM889.867 441.373 897.869 445.373 889.867 449.373Z" fill="#4472C4"/><text font-family="Calibri,Calibri_MSFontService,sans-serif" font-weight="400" font-size="19" transform="matrix(1 0 0 0.999714 303.064 425)">Node 3<tspan font-size="19" x="0" y="23.0066">joins after </tspan><tspan font-size="19" x="0" y="45.0129">service open</tspan></text><path d="M430 456.87 680.319 456.87" stroke="#4472C4" stroke-width="6.00171" stroke-miterlimit="8" fill="none" fill-rule="evenodd"/><path d="M584.5 116.467 584.5 499.747" stroke="#F4B183" stroke-width="3.00086" stroke-miterlimit="8" stroke-dasharray="12.0034 9.00257" fill="none" fill-rule="evenodd"/><text fill="#F4B183" font-family="Calibri,Calibri_MSFontService,sans-serif" font-weight="700" font-size="19" transform="matrix(1 0 0 0.999714 518.482 61)">Members trust new node 3<tspan font-size="19" x="0" y="23.0066">transition_node_to_trusted</tspan></text><path d="M584 469.866 1086.8 469.866" stroke="#F8CBAD" stroke-width="6.00171" stroke-miterlimit="8" fill="none" fill-rule="evenodd"/><path d="M460 651.814 571.798 651.814" stroke="#F8CBAD" stroke-width="6.00171" stroke-miterlimit="8" fill="none" fill-rule="evenodd"/><text fill="#A9D18E" font-family="Calibri,Calibri_MSFontService,sans-serif" font-weight="400" font-size="24" transform="matrix(1 0 0 0.999714 209.189 653)">Post service open <tspan font-size="24" x="0" y="29.0083">validity period</tspan><tspan fill="#F4B183" font-size="24" x="383.217" y="-6.00171">New joiner</tspan><tspan fill="#F4B183" font-size="24" x="383.217" y="23.0066">Validity period</tspan></text><rect x="777" y="115.967" width="76" height="271.922" stroke="#EE0000" stroke-width="4.00114" stroke-miterlimit="8" stroke-dasharray="16.0046 12.0034" fill="none"/><text fill="#EE0000" font-family="Calibri,Calibri_MSFontService,sans-serif" font-weight="700" font-size="19" transform="matrix(1 0 0 0.999714 874.172 52)">/!<tspan font-size="19" x="14.004" y="0">\</tspan><tspan font-size="19" x="0" y="23.0066">Members should issue new </tspan><tspan font-size="19" x="0" y="45.0129">set_node_certificate_validity</tspan><tspan font-size="19" x="0" y="68.0194">proposal before certificate expiry</tspan></text></g></svg>